<?xml version="1.0" standalone="no"?>
<!DOCTYPE svg PUBLIC "-//W3C//DTD SVG 20010904//EN"
 "http://www.w3.org/TR/2001/REC-SVG-20010904/DTD/svg10.dtd">
<svg version="1.0" xmlns="http://www.w3.org/2000/svg"
 width="700.000000pt" height="700.000000pt" viewBox="0 0 700.000000 700.000000"
 preserveAspectRatio="xMidYMid meet">
<metadata>
Created by potrace 1.11, written by Peter Selinger 2001-2013
</metadata>
<g transform="translate(0.000000,700.000000) scale(0.100000,-0.100000)"
fill="#000000" stroke="none">
<path d="M328 6722 l-48 -3 -1 -47 c0 -26 0 -445 0 -932 0 -792 3 -969 15
-1036 2 -10 7 -39 11 -64 20 -125 77 -300 143 -440 42 -89 137 -250 174 -295
9 -11 33 -40 53 -65 87 -108 304 -309 352 -327 8 -3 -14 -25 -54 -55 -81 -60
-296 -275 -338 -338 -16 -25 -33 -47 -36 -50 -15 -12 -109 -171 -142 -240 -69
-143 -132 -335 -152 -460 -3 -19 -7 -46 -10 -60 -14 -82 -16 -225 -16 -1023 0
-485 0 -909 0 -942 l1 -61 973 2 c534 1 981 4 993 7 12 3 45 8 75 12 30 4 57
9 60 11 3 2 21 6 40 9 90 15 275 78 387 132 246 118 508 332 649 529 21 29 40
53 43 53 3 0 23 -25 45 -56 47 -66 216 -241 295 -305 150 -120 322 -218 515
-290 69 -26 259 -75 320 -82 28 -4 66 -9 85 -12 19 -3 468 -7 998 -8 l962 -2
1 36 c3 254 -1 1856 -6 1907 -16 169 -61 344 -133 513 -40 94 -60 135 -103
210 -24 40 -126 186 -155 222 -55 65 -251 254 -305 292 l-55 40 65 50 c315
240 543 587 640 971 27 106 30 125 47 264 6 52 7 1921 1 1928 -6 6 -1865 5
-1922 -1 -122 -13 -156 -18 -215 -32 -150 -34 -342 -103 -440 -157 -19 -11
-55 -31 -80 -45 -166 -92 -384 -284 -505 -445 -27 -37 -53 -67 -56 -67 -3 0
-26 28 -51 63 -57 77 -192 217 -278 289 -61 50 -232 168 -245 168 -3 0 -22 10
-43 23 -107 66 -376 161 -517 182 -22 4 -51 8 -65 11 -73 13 -272 16 -1060 17
-476 1 -886 1 -912 -1z m3243 -2867 c78 -99 212 -231 302 -298 37 -27 67 -51
67 -52 0 -2 -26 -22 -57 -46 -128 -96 -322 -297 -370 -383 -9 -17 -13 -15 -39
20 -88 121 -227 263 -343 351 -83 63 -83 52 -1 113 97 72 232 208 313 313 28
37 55 66 58 65 4 -2 35 -39 70 -83z"/>
</g>
</svg>
