<svg width="76" height="58" viewBox="0 0 76 58" fill="none" xmlns="http://www.w3.org/2000/svg">
<path fill-rule="evenodd" clip-rule="evenodd" d="M24.3041 10.7922C25.0026 8.85887 25.7472 6.80815 26.4921 4.78061H26.5385L28.5865 10.7922H24.3041ZM43.0265 14.9428V0.609863C42.2353 0.893084 40.7926 1.29361 39.5822 1.43538V2.00097C41.0486 2.1187 41.1884 2.18943 41.1884 3.79262V14.9428C41.1884 16.4776 40.9839 16.6359 39.5705 16.7752C38.136 16.6359 37.9536 16.4776 37.9536 14.9428V1.58378C37.1626 1.86657 35.72 2.26795 34.5096 2.40908V2.9752C35.976 3.09263 36.1154 3.40682 36.1154 5.00956V14.9428C36.1154 16.416 35.9282 16.5951 34.6643 16.729C34.62 16.7338 34.5948 16.7343 34.5459 16.7313C34.5307 16.7317 34.514 16.7313 34.4976 16.73C34.4598 16.7258 34.422 16.7225 34.3854 16.7193C34.3312 16.7137 34.2773 16.7069 34.2263 16.7013C34.2058 16.6993 34.185 16.6967 34.1654 16.6938C33.9354 16.6652 33.7374 16.6287 33.564 16.5766V16.5785C32.8226 16.3603 32.5142 15.8554 31.9608 14.3516C30.4713 10.2494 28.9125 5.77077 27.4692 1.71625L26.7475 1.92853L21.9305 14.3044C21.1164 16.3785 20.7904 16.5203 19.3242 16.7317V17.3926H24.3743V16.7317C22.6285 16.5675 22.4192 16.3317 22.9315 14.8459C23.2341 13.8558 23.5827 12.8667 23.9551 11.8056H28.9125C29.4243 13.2431 29.8901 14.517 30.1924 15.4358C30.4947 16.3545 30.2855 16.5436 28.8193 16.7317V17.3926H33.564V17.3935H44.7026V16.7811C43.2134 16.6397 43.0265 16.4981 43.0265 14.9428ZM66.4236 9.21429C67.0517 8.74232 68.0058 8.22352 68.7504 8.22352C70.4494 8.22352 71.8692 9.63845 71.8692 12.1607C71.8692 14.8245 70.5654 16.5222 68.6112 16.5222C67.8195 16.5222 66.9351 16.1446 66.4236 15.6023V9.21429ZM68.0289 17.6763C71.0543 17.1115 73.8239 14.8245 73.8239 11.266C73.8239 8.93109 72.2881 6.80953 69.7047 6.80953C69.4253 6.80953 68.983 6.92737 68.5635 7.16337L66.4236 8.43643V6.57408C65.3298 7.02247 64.0272 7.42299 63.0488 7.5873V8.15364C64.4918 8.342 64.5846 8.38912 64.5846 9.92145V20.8536C64.5846 22.4097 64.3755 22.5514 62.8859 22.692V23.3287H68.4018V22.692C66.5859 22.528 66.4236 22.4097 66.4236 20.6187V17.2529C66.7259 17.4172 67.3543 17.6532 68.0289 17.6763ZM63.8637 16.2391L63.212 16.1922C62.3279 16.1446 62.1416 15.9797 62.1416 14.8009V6.92737C61.7927 6.99833 61.2335 7.09232 60.5826 7.16337C59.9074 7.25783 59.1162 7.32888 58.4879 7.35194V7.89382L59.326 8.0356C60.0937 8.15364 60.3029 8.29498 60.3029 9.56793V15.0604C59.5114 15.8383 58.6279 16.1922 57.7898 16.1922C56.7417 16.1922 55.742 15.6264 55.742 13.5515V10.3691C55.742 8.76622 55.742 7.65802 55.8117 6.92737C55.4159 6.99833 54.7879 7.09232 54.1593 7.18678C53.5312 7.25783 52.9717 7.32888 52.4837 7.35194V7.89382L53.1346 8.0356C53.7172 8.17702 53.903 8.29498 53.903 9.54411V14.1642C53.903 16.7105 55.2296 17.6763 56.7886 17.6763C57.4175 17.6763 57.9061 17.4888 58.5808 17.0875C59.2325 16.6872 59.7686 16.2618 60.3029 15.8609V17.535L60.4426 17.6763C60.8852 17.5591 61.467 17.3705 62.0713 17.2055C62.7005 17.0404 63.3517 16.8987 63.8637 16.828V16.2391ZM49.2261 11.2182C48.1788 10.77 47.2482 10.2044 47.2482 9.16762C47.2482 8.24798 47.8757 7.5403 48.7603 7.5403C49.9007 7.5403 50.7162 8.48355 51.1579 9.87413L51.7625 9.73309C51.6928 9.14315 51.4365 7.75269 51.2505 7.2108C50.7616 7.02247 50.1338 6.78667 49.1798 6.80953C47.0385 6.80953 45.6421 8.20055 45.6421 9.85093C45.6421 11.6656 47.155 12.4436 48.5514 13.1037C49.7147 13.646 50.3893 14.2115 50.3893 15.2485C50.3893 16.2391 49.5984 16.8987 48.7366 16.8987C47.3411 16.8987 46.2938 15.5318 45.8744 13.9761L45.2701 14.0938C45.2701 14.9428 45.4789 16.5456 45.6421 16.8756C46.0612 17.2293 47.1319 17.6763 48.3186 17.6763C50.1801 17.6763 52.1574 16.5688 52.1574 14.4236C52.1574 12.7967 50.9716 11.9487 49.2261 11.2182Z" fill="#0080AD"/>
<path fill-rule="evenodd" clip-rule="evenodd" d="M74.3672 6.3802C74.4087 6.3802 74.448 6.37903 74.484 6.37657C74.5218 6.37341 74.554 6.36565 74.5828 6.35313C74.6118 6.34025 74.6343 6.32079 74.6516 6.29455C74.6689 6.26783 74.6771 6.23105 74.6771 6.18402C74.6771 6.14376 74.6695 6.11192 74.6539 6.08865C74.6384 6.06407 74.6191 6.0466 74.5951 6.03355C74.5707 6.0212 74.5429 6.01245 74.5113 6.00801C74.4799 6.00338 74.4492 6.0009 74.4181 6.0009H74.1759V6.3802H74.3672ZM74.448 5.84946C74.5886 5.84946 74.6917 5.87799 74.7597 5.93441C74.8268 5.99133 74.8607 6.07727 74.8607 6.19128C74.8607 6.29917 74.8312 6.37838 74.7714 6.42851C74.7128 6.47852 74.6384 6.50804 74.5508 6.51679L74.8874 7.04653H74.6905L74.3701 6.53131H74.1759V7.04653H73.9925V5.84946H74.448ZM73.6178 6.7928C73.66 6.89987 73.7177 6.99257 73.793 7.07079C73.8671 7.1498 73.955 7.21102 74.0564 7.25588C74.158 7.30077 74.2678 7.32286 74.3868 7.32286C74.5031 7.32286 74.6117 7.30077 74.7119 7.25588C74.8124 7.21102 74.8997 7.1498 74.9744 7.07079C75.0488 6.99257 75.1077 6.89987 75.1499 6.7928C75.192 6.68655 75.2128 6.5704 75.2128 6.44402C75.2128 6.32129 75.192 6.20746 75.1499 6.10121C75.1077 5.99595 75.0488 5.90439 74.9744 5.82635C74.8997 5.74848 74.8124 5.68776 74.7119 5.64354C74.6117 5.59801 74.5031 5.57592 74.3868 5.57592C74.2678 5.57592 74.158 5.59801 74.0564 5.64354C73.955 5.68776 73.8671 5.74848 73.793 5.82635C73.7177 5.90439 73.66 5.99595 73.6178 6.10121C73.5757 6.20746 73.5549 6.32129 73.5549 6.44402C73.5549 6.5704 73.5757 6.68655 73.6178 6.7928ZM73.4517 6.04166C73.5056 5.91691 73.5786 5.80902 73.6709 5.71813C73.764 5.62639 73.8715 5.55496 73.9943 5.50299C74.1176 5.45085 74.2482 5.4248 74.3868 5.4248C74.5253 5.4248 74.6545 5.45085 74.777 5.50299C74.8991 5.55496 75.006 5.62639 75.0974 5.71813C75.1891 5.80902 75.2618 5.91691 75.316 6.04166C75.3693 6.16538 75.3968 6.29952 75.3968 6.44402C75.3968 6.59203 75.3693 6.72813 75.316 6.85352C75.2618 6.97888 75.1891 7.08712 75.0974 7.1795C75.006 7.27156 74.8991 7.34349 74.777 7.39447C74.6545 7.44579 74.5253 7.47134 74.3868 7.47134C74.2482 7.47134 74.1176 7.44579 73.9943 7.39447C73.8715 7.34349 73.764 7.27156 73.6709 7.1795C73.5786 7.08712 73.5056 6.97888 73.4517 6.85352C73.3976 6.72813 73.3706 6.59203 73.3706 6.44402C73.3706 6.29952 73.3976 6.16538 73.4517 6.04166Z" fill="#009AC7"/>
<path fill-rule="evenodd" clip-rule="evenodd" d="M12.564 9.49692C15.1895 9.49692 17.3179 7.37097 17.3179 4.74846C17.3179 3.87951 17.3179 2.2967 17.3179 0C15.029 0 13.4444 0 12.564 0C9.93845 0 7.81006 2.12596 7.81006 4.74846C7.81006 7.37097 9.93845 9.49692 12.564 9.49692Z" fill="#63B44A"/>
<path fill-rule="evenodd" clip-rule="evenodd" d="M12.564 7.80103C15.1895 7.80103 17.3179 9.92698 17.3179 12.5495C17.3179 13.4184 17.3179 15.0012 17.3179 17.2979C15.029 17.2979 13.4444 17.2979 12.564 17.2979C9.93845 17.2979 7.81006 15.172 7.81006 12.5495C7.81006 9.92698 9.93845 7.80103 12.564 7.80103Z" fill="#EA882D"/>
<path fill-rule="evenodd" clip-rule="evenodd" d="M4.75393 9.49692C2.1284 9.49692 0 7.37097 0 4.74846C0 3.87951 0 2.2967 0 0C2.28887 0 3.8735 0 4.75393 0C7.37942 0 9.50785 2.12596 9.50785 4.74846C9.50785 7.37097 7.37942 9.49692 4.75393 9.49692Z" fill="#0080AD"/>
<path fill-rule="evenodd" clip-rule="evenodd" d="M4.75393 7.80103C2.1284 7.80103 0 9.92698 0 12.5495C0 13.4184 0 15.0012 0 17.2979C2.28887 17.2979 3.8735 17.2979 4.75393 17.2979C7.37942 17.2979 9.50785 15.172 9.50785 12.5495C9.50785 9.92698 7.37942 7.80103 4.75393 7.80103Z" fill="#7E327F"/>
<path fill-rule="evenodd" clip-rule="evenodd" d="M8.64862 9.83569C9.19438 10.5999 9.51649 11.5368 9.51649 12.5496C9.51649 13.5622 9.19467 14.4986 8.64903 15.2625C8.10328 14.4986 7.78076 13.5617 7.78076 12.5489C7.78076 11.536 8.10328 10.5999 8.64862 9.83569Z" fill="#541A5C"/>
<path fill-rule="evenodd" clip-rule="evenodd" d="M12.5678 7.79846C13.5735 7.79846 14.5036 8.11099 15.2628 8.63955C14.5036 9.16883 13.5731 9.48176 12.5674 9.48176C11.5615 9.48176 10.6314 9.16883 9.8728 8.63985C10.6314 8.11099 11.5619 7.79846 12.5678 7.79846Z" fill="#658235"/>
<path fill-rule="evenodd" clip-rule="evenodd" d="M7.41518 8.64191C6.66065 9.20179 5.73567 9.53251 4.73593 9.53251C3.73617 9.53251 2.8115 9.20179 2.05737 8.64276C2.81182 8.08244 3.73649 7.75183 4.73593 7.75183C5.73608 7.75183 6.66065 8.08244 7.41518 8.64191Z" fill="#25367F"/>
<path fill-rule="evenodd" clip-rule="evenodd" d="M8.65885 7.43423C8.05661 6.67595 7.70044 5.74631 7.70044 4.7419C7.70044 3.73659 8.05629 2.80786 8.65885 2.0498C9.26155 2.80786 9.61728 3.737 9.61728 4.7419C9.61728 5.74672 9.26155 6.67595 8.65885 7.43423Z" fill="#006E39"/>
<path d="M0 30.0071L9.83803e-08 30.5071L71.069 30.5071V30.0071L0 30.0071Z" fill="#606060"/>
<path d="M0.919179 44.0071V36.3331H5.84696V37.5179H2.31446V39.4115H5.45938V40.5743H2.31446V42.8222H6.11272V44.0071H0.919179Z" fill="#3C4C54"/>
<path d="M10.8719 40.9618C10.8719 40.3565 10.7943 39.9209 10.6393 39.6552C10.4917 39.382 10.2111 39.2454 9.79771 39.2454C9.65007 39.2454 9.48765 39.2565 9.31047 39.2786C9.13329 39.3008 9.00041 39.3192 8.91182 39.334V44.0071H7.57191V38.4038C7.83029 38.33 8.1662 38.2599 8.57961 38.1934C9.00041 38.127 9.44336 38.0938 9.90845 38.0938C10.3071 38.0938 10.6319 38.1454 10.8829 38.2488C11.1413 38.3522 11.3554 38.4887 11.5252 38.6585C11.6064 38.5995 11.7098 38.5367 11.8353 38.4703C11.9608 38.4038 12.101 38.3448 12.2561 38.2931C12.4111 38.234 12.5735 38.186 12.7433 38.1491C12.9205 38.1122 13.0977 38.0938 13.2748 38.0938C13.7252 38.0938 14.0943 38.1602 14.3822 38.2931C14.6775 38.4186 14.9064 38.5995 15.0688 38.8357C15.2386 39.0646 15.353 39.3451 15.4121 39.6773C15.4785 40.0021 15.5117 40.3602 15.5117 40.7514V44.0071H14.1718V40.9618C14.1718 40.3565 14.098 39.9209 13.9503 39.6552C13.8027 39.382 13.5185 39.2454 13.0977 39.2454C12.8836 39.2454 12.6806 39.2823 12.4886 39.3562C12.2967 39.4226 12.1527 39.489 12.0567 39.5555C12.1158 39.74 12.1564 39.9357 12.1785 40.1424C12.2007 40.3491 12.2118 40.5706 12.2118 40.8068V44.0071H10.8719V40.9618Z" fill="#3C4C54"/>
<path d="M21.2265 41.139C21.2265 40.541 21.0899 40.0759 20.8168 39.7437C20.551 39.4115 20.1191 39.2454 19.5211 39.2454C19.3956 39.2454 19.2627 39.2528 19.1225 39.2676C18.9896 39.275 18.8567 39.2971 18.7238 39.334V42.645C18.8419 42.7262 18.997 42.8038 19.1889 42.8776C19.3883 42.944 19.5986 42.9772 19.8201 42.9772C20.3074 42.9772 20.6617 42.8111 20.8832 42.4789C21.112 42.1467 21.2265 41.7001 21.2265 41.139ZM22.5996 41.1169C22.5996 41.5598 22.5406 41.9659 22.4224 42.335C22.3117 42.7041 22.1493 43.0215 21.9352 43.2873C21.7211 43.5531 21.4516 43.7598 21.1268 43.9074C20.8094 44.0551 20.4476 44.1289 20.0416 44.1289C19.7684 44.1289 19.5174 44.0957 19.2886 44.0292C19.0597 43.9628 18.8715 43.889 18.7238 43.8078V46.0557H17.3839V38.4038C17.6571 38.33 17.993 38.2599 18.3916 38.1934C18.7903 38.127 19.2111 38.0938 19.654 38.0938C20.1117 38.0938 20.5215 38.1639 20.8832 38.3042C21.2449 38.4444 21.5513 38.6474 21.8023 38.9132C22.0607 39.1716 22.2563 39.489 22.3892 39.8656C22.5295 40.2347 22.5996 40.6518 22.5996 41.1169Z" fill="#3C4C54"/>
<path d="M26.2266 44.1178C25.828 44.1105 25.4958 44.0662 25.23 43.985C24.9716 43.9037 24.7649 43.7893 24.6099 43.6417C24.4549 43.4866 24.3441 43.2984 24.2777 43.0769C24.2186 42.8481 24.1891 42.5897 24.1891 42.3018V35.6354L25.529 35.4139V42.0471C25.529 42.2095 25.5401 42.346 25.5622 42.4568C25.5917 42.5675 25.6397 42.6635 25.7062 42.7447C25.7726 42.8185 25.8612 42.8776 25.9719 42.9219C26.0901 42.9588 26.2377 42.9883 26.4149 43.0105L26.2266 44.1178Z" fill="#3C4C54"/>
<path d="M32.9673 41.1058C32.9673 41.5635 32.9008 41.9806 32.7679 42.3571C32.6351 42.7336 32.4468 43.0548 32.2032 43.3205C31.9596 43.5863 31.6643 43.793 31.3173 43.9407C30.9777 44.0883 30.6012 44.1621 30.1878 44.1621C29.7744 44.1621 29.3979 44.0883 29.0583 43.9407C28.7187 43.793 28.4271 43.5863 28.1834 43.3205C27.9398 43.0548 27.7479 42.7336 27.6076 42.3571C27.4747 41.9806 27.4083 41.5635 27.4083 41.1058C27.4083 40.6481 27.4747 40.2347 27.6076 39.8656C27.7479 39.489 27.9398 39.1679 28.1834 38.9021C28.4344 38.6364 28.7297 38.4334 29.0693 38.2931C29.4089 38.1454 29.7817 38.0716 30.1878 38.0716C30.5938 38.0716 30.9666 38.1454 31.3062 38.2931C31.6532 38.4334 31.9485 38.6364 32.1921 38.9021C32.4357 39.1679 32.624 39.489 32.7569 39.8656C32.8971 40.2347 32.9673 40.6481 32.9673 41.1058ZM31.5941 41.1058C31.5941 40.53 31.4686 40.0759 31.2176 39.7437C30.974 39.4041 30.6307 39.2344 30.1878 39.2344C29.7448 39.2344 29.3979 39.4041 29.1469 39.7437C28.9032 40.0759 28.7814 40.53 28.7814 41.1058C28.7814 41.689 28.9032 42.1504 29.1469 42.49C29.3979 42.8296 29.7448 42.9994 30.1878 42.9994C30.6307 42.9994 30.974 42.8296 31.2176 42.49C31.4686 42.1504 31.5941 41.689 31.5941 41.1058Z" fill="#3C4C54"/>
<path d="M39.177 38.2156C38.5791 40.4155 37.8851 42.4088 37.0952 44.1953C36.9476 44.5276 36.7962 44.8118 36.6412 45.048C36.4862 45.2843 36.3127 45.4799 36.1207 45.6349C35.9288 45.79 35.7147 45.9007 35.4784 45.9671C35.2422 46.041 34.9691 46.0779 34.659 46.0779C34.4523 46.0779 34.2456 46.0557 34.0389 46.0114C33.8395 45.9671 33.6882 45.9191 33.5849 45.8675L33.8285 44.7933C34.0942 44.8967 34.3563 44.9484 34.6147 44.9484C34.9617 44.9484 35.2311 44.8635 35.4231 44.6937C35.6224 44.5313 35.7959 44.2766 35.9435 43.9296C35.5227 43.1175 35.1167 42.2316 34.7254 41.2719C34.3415 40.3122 33.9983 39.2934 33.6956 38.2156H35.1241C35.1979 38.5256 35.2865 38.8615 35.3899 39.2233C35.5006 39.585 35.6187 39.9541 35.7442 40.3306C35.8697 40.6998 36.0026 41.0689 36.1429 41.438C36.2831 41.8071 36.4234 42.1504 36.5637 42.4679C36.7999 41.8108 37.0214 41.1132 37.2281 40.3749C37.4348 39.6293 37.623 38.9095 37.7928 38.2156H39.177Z" fill="#3C4C54"/>
<path d="M43.7215 40.9618C43.7215 40.3565 43.644 39.9209 43.489 39.6552C43.3413 39.382 43.0608 39.2454 42.6474 39.2454C42.4997 39.2454 42.3373 39.2565 42.1602 39.2786C41.983 39.3008 41.8501 39.3192 41.7615 39.334V44.0071H40.4216V38.4038C40.68 38.33 41.0159 38.2599 41.4293 38.1934C41.8501 38.127 42.293 38.0938 42.7581 38.0938C43.1568 38.0938 43.4816 38.1454 43.7326 38.2488C43.991 38.3522 44.2051 38.4887 44.3749 38.6585C44.4561 38.5995 44.5595 38.5367 44.685 38.4703C44.8105 38.4038 44.9507 38.3448 45.1057 38.2931C45.2608 38.234 45.4232 38.186 45.593 38.1491C45.7702 38.1122 45.9473 38.0938 46.1245 38.0938C46.5749 38.0938 46.944 38.1602 47.2319 38.2931C47.5272 38.4186 47.756 38.5995 47.9185 38.8357C48.0883 39.0646 48.2027 39.3451 48.2617 39.6773C48.3282 40.0021 48.3614 40.3602 48.3614 40.7514V44.0071H47.0215V40.9618C47.0215 40.3565 46.9477 39.9209 46.8 39.6552C46.6524 39.382 46.3681 39.2454 45.9473 39.2454C45.7333 39.2454 45.5302 39.2823 45.3383 39.3562C45.1464 39.4226 45.0024 39.489 44.9064 39.5555C44.9655 39.74 45.0061 39.9357 45.0282 40.1424C45.0504 40.3491 45.0615 40.5706 45.0615 40.8068V44.0071H43.7215V40.9618Z" fill="#3C4C54"/>
<path d="M49.9125 41.139C49.9125 40.6296 49.9863 40.183 50.1339 39.7991C50.289 39.4152 50.492 39.0978 50.743 38.8468C50.994 38.5884 51.2819 38.3964 51.6067 38.2709C51.9316 38.1381 52.2638 38.0716 52.6034 38.0716C53.4007 38.0716 54.0208 38.3189 54.4637 38.8136C54.9141 39.3082 55.1392 40.0464 55.1392 41.0283C55.1392 41.1021 55.1355 41.187 55.1282 41.283C55.1282 41.3716 55.1245 41.4528 55.1171 41.5266H51.2967C51.3336 41.9917 51.496 42.3534 51.7839 42.6118C52.0792 42.8628 52.5037 42.9883 53.0574 42.9883C53.3822 42.9883 53.6775 42.9588 53.9433 42.8997C54.2164 42.8407 54.4305 42.7779 54.5856 42.7115L54.7627 43.8078C54.6889 43.8447 54.5856 43.8853 54.4527 43.9296C54.3272 43.9665 54.1795 43.9997 54.0097 44.0292C53.8473 44.0662 53.6701 44.0957 53.4782 44.1178C53.2862 44.14 53.0906 44.1511 52.8913 44.1511C52.3819 44.1511 51.9389 44.0772 51.5624 43.9296C51.1859 43.7746 50.8759 43.5642 50.6323 43.2984C50.3886 43.0252 50.2078 42.7078 50.0896 42.346C49.9715 41.9769 49.9125 41.5746 49.9125 41.139ZM53.7993 40.541C53.7993 40.3565 53.7735 40.183 53.7218 40.0206C53.6701 39.8508 53.5926 39.7068 53.4893 39.5887C53.3933 39.4632 53.2715 39.3672 53.1238 39.3008C52.9836 39.227 52.8138 39.1901 52.6144 39.1901C52.4077 39.1901 52.2269 39.2307 52.0718 39.3119C51.9168 39.3857 51.7839 39.4854 51.6732 39.6109C51.5698 39.7364 51.4886 39.8803 51.4296 40.0427C51.3705 40.2051 51.3299 40.3712 51.3078 40.541H53.7993Z" fill="#3C4C54"/>
<path d="M56.7906 38.4038C57.0489 38.33 57.3848 38.2599 57.7983 38.1934C58.2117 38.127 58.6694 38.0938 59.1714 38.0938C59.6439 38.0938 60.0388 38.1602 60.3563 38.2931C60.6737 38.4186 60.9247 38.5995 61.1093 38.8357C61.3012 39.0646 61.4341 39.3451 61.5079 39.6773C61.5891 40.0021 61.6297 40.3602 61.6297 40.7514V44.0071H60.2898V40.9618C60.2898 40.6518 60.2677 40.3897 60.2234 40.1756C60.1865 39.9541 60.12 39.777 60.0241 39.6441C59.9355 39.5038 59.81 39.4041 59.6476 39.3451C59.4925 39.2786 59.3006 39.2454 59.0717 39.2454C58.9019 39.2454 58.7248 39.2565 58.5402 39.2786C58.3556 39.3008 58.2191 39.3192 58.1305 39.334V44.0071H56.7906V38.4038Z" fill="#3C4C54"/>
<path d="M63.4325 36.6874L64.7724 36.4659V38.2156H66.8321V39.334H64.7724V41.6927C64.7724 42.1578 64.8462 42.49 64.9939 42.6893C65.1415 42.8887 65.3925 42.9883 65.7469 42.9883C65.9905 42.9883 66.2046 42.9625 66.3891 42.9108C66.5811 42.8591 66.7324 42.8111 66.8432 42.7668L67.0646 43.8299C66.9096 43.8964 66.7066 43.9628 66.4556 44.0292C66.2046 44.1031 65.9093 44.14 65.5697 44.14C65.1563 44.14 64.8093 44.0846 64.5288 43.9739C64.2556 43.8631 64.0378 43.7044 63.8754 43.4977C63.713 43.2836 63.5986 43.0289 63.5321 42.7336C63.4657 42.4309 63.4325 42.0877 63.4325 41.7038V36.6874Z" fill="#3C4C54"/>
<path d="M2.77955 54.9662C3.28156 54.9662 3.64699 54.8813 3.87585 54.7115C4.1047 54.5417 4.21913 54.3018 4.21913 53.9917C4.21913 53.8071 4.17853 53.6484 4.09732 53.5155C4.02349 53.3826 3.91276 53.2645 3.76511 53.1612C3.62484 53.0504 3.45136 52.9508 3.24465 52.8622C3.03794 52.7662 2.8017 52.6739 2.53593 52.5853C2.27017 52.4894 2.01178 52.386 1.76078 52.2753C1.51716 52.1572 1.29937 52.0132 1.10743 51.8434C0.92287 51.6736 0.77153 51.4706 0.653411 51.2344C0.542675 50.9981 0.487307 50.7139 0.487307 50.3817C0.487307 49.6877 0.727236 49.1451 1.20709 48.7539C1.68695 48.3552 2.3403 48.1559 3.16713 48.1559C3.64699 48.1559 4.07148 48.2112 4.4406 48.322C4.81711 48.4253 5.1124 48.5398 5.32649 48.6653L4.89462 49.7948C4.64362 49.6545 4.36678 49.5475 4.0641 49.4736C3.7688 49.3998 3.46243 49.3629 3.14498 49.3629C2.76848 49.3629 2.47318 49.4404 2.25909 49.5955C2.05238 49.7505 1.94903 49.9683 1.94903 50.2488C1.94903 50.4186 1.98225 50.5662 2.04869 50.6917C2.12252 50.8099 2.22218 50.9169 2.34768 51.0129C2.48056 51.1089 2.6319 51.1974 2.8017 51.2786C2.97888 51.3599 3.17082 51.4374 3.37753 51.5112C3.73927 51.6441 4.06041 51.7807 4.34094 51.9209C4.62885 52.0538 4.86878 52.2162 5.06073 52.4082C5.26005 52.5927 5.41139 52.8142 5.51475 53.0726C5.6181 53.3236 5.66978 53.63 5.66978 53.9917C5.66978 54.6856 5.42247 55.2246 4.92784 55.6084C4.4406 55.985 3.72451 56.1732 2.77955 56.1732C2.46211 56.1732 2.1705 56.1511 1.90473 56.1068C1.64635 56.0698 1.4138 56.0219 1.20709 55.9628C1.00777 55.9037 0.834281 55.8447 0.686632 55.7856C0.538984 55.7192 0.420865 55.6601 0.332275 55.6084L0.742001 54.4679C0.941326 54.5786 1.21079 54.6893 1.55038 54.8001C1.88997 54.9108 2.2997 54.9662 2.77955 54.9662Z" fill="#3C4C54"/>
<path d="M6.74251 53.139C6.74251 52.6296 6.81633 52.183 6.96398 51.7991C7.11901 51.4152 7.32203 51.0978 7.57303 50.8468C7.82404 50.5884 8.11195 50.3964 8.43678 50.2709C8.76161 50.1381 9.09382 50.0716 9.43341 50.0716C10.2307 50.0716 10.8508 50.3189 11.2938 50.8136C11.7441 51.3082 11.9693 52.0464 11.9693 53.0283C11.9693 53.1021 11.9656 53.187 11.9582 53.283C11.9582 53.3716 11.9545 53.4528 11.9471 53.5266H8.12672C8.16363 53.9917 8.32604 54.3534 8.61396 54.6118C8.90926 54.8628 9.33374 54.9883 9.88743 54.9883C10.2123 54.9883 10.5076 54.9588 10.7733 54.8997C11.0465 54.8407 11.2606 54.7779 11.4156 54.7115L11.5928 55.8078C11.5189 55.8447 11.4156 55.8853 11.2827 55.9296C11.1572 55.9665 11.0096 55.9997 10.8398 56.0292C10.6773 56.0662 10.5002 56.0957 10.3082 56.1178C10.1163 56.14 9.92065 56.1511 9.72132 56.1511C9.21194 56.1511 8.76899 56.0772 8.39248 55.9296C8.01598 55.7746 7.70592 55.5642 7.4623 55.2984C7.21868 55.0252 7.03781 54.7078 6.91969 54.3461C6.80157 53.9769 6.74251 53.5746 6.74251 53.139ZM10.6294 52.541C10.6294 52.3565 10.6035 52.183 10.5518 52.0206C10.5002 51.8508 10.4227 51.7068 10.3193 51.5887C10.2233 51.4632 10.1015 51.3672 9.95387 51.3008C9.8136 51.227 9.64381 51.1901 9.44448 51.1901C9.23777 51.1901 9.0569 51.2307 8.90187 51.3119C8.74684 51.3857 8.61396 51.4854 8.50322 51.6109C8.39987 51.7364 8.31866 51.8803 8.2596 52.0427C8.20054 52.2051 8.15994 52.3712 8.13779 52.541H10.6294Z" fill="#3C4C54"/>
<path d="M16.9206 51.4226C16.8098 51.3857 16.6548 51.3488 16.4555 51.3119C16.2635 51.2676 16.0384 51.2454 15.78 51.2454C15.6323 51.2454 15.4736 51.2602 15.3038 51.2897C15.1414 51.3192 15.027 51.3451 14.9605 51.3672V56.0071H13.6206V50.4924C13.879 50.3964 14.2001 50.3079 14.584 50.2266C14.9753 50.1381 15.4072 50.0938 15.8796 50.0938C15.9682 50.0938 16.0716 50.1011 16.1897 50.1159C16.3078 50.1233 16.4259 50.1381 16.5441 50.1602C16.6622 50.175 16.7766 50.1971 16.8873 50.2266C16.9981 50.2488 17.0867 50.2709 17.1531 50.2931L16.9206 51.4226Z" fill="#3C4C54"/>
<path d="M19.9961 56.0071C19.6269 55.2467 19.2467 54.3756 18.8555 53.3937C18.4716 52.4045 18.1209 51.3451 17.8035 50.2156H19.232C19.3132 50.5404 19.4055 50.8911 19.5088 51.2676C19.6196 51.6367 19.734 52.0095 19.8521 52.386C19.9776 52.7551 20.1031 53.1169 20.2286 53.4712C20.3615 53.8182 20.4833 54.132 20.594 54.4125C20.7048 54.132 20.8229 53.8182 20.9484 53.4712C21.0739 53.1169 21.1957 52.7551 21.3138 52.386C21.4393 52.0095 21.5574 51.6367 21.6682 51.2676C21.7789 50.8911 21.8749 50.5404 21.9561 50.2156H23.3403C23.0229 51.3451 22.6685 52.4045 22.2772 53.3937C21.8933 54.3756 21.5168 55.2467 21.1477 56.0071H19.9961Z" fill="#3C4C54"/>
<path d="M25.9227 56.0071H24.5828V50.2156H25.9227V56.0071ZM26.0666 48.5213C26.0666 48.7723 25.9854 48.9716 25.823 49.1193C25.6606 49.2669 25.4687 49.3408 25.2472 49.3408C25.0183 49.3408 24.8227 49.2669 24.6603 49.1193C24.4979 48.9716 24.4167 48.7723 24.4167 48.5213C24.4167 48.2629 24.4979 48.0599 24.6603 47.9123C24.8227 47.7646 25.0183 47.6908 25.2472 47.6908C25.4687 47.6908 25.6606 47.7646 25.823 47.9123C25.9854 48.0599 26.0666 48.2629 26.0666 48.5213Z" fill="#3C4C54"/>
<path d="M27.5417 53.1169C27.5417 52.6887 27.6081 52.29 27.741 51.9209C27.8739 51.5444 28.0621 51.2196 28.3057 50.9464C28.5567 50.6733 28.8594 50.4592 29.2138 50.3042C29.5681 50.1491 29.9668 50.0716 30.4097 50.0716C30.956 50.0716 31.4728 50.1713 31.9601 50.3706L31.6721 51.4669C31.5171 51.4005 31.3399 51.3451 31.1406 51.3008C30.9487 51.2565 30.7419 51.2344 30.5205 51.2344C29.9963 51.2344 29.5977 51.4005 29.3245 51.7327C29.0514 52.0575 28.9148 52.5189 28.9148 53.1169C28.9148 53.6927 29.044 54.1504 29.3024 54.49C29.5608 54.8222 29.9963 54.9883 30.6091 54.9883C30.8379 54.9883 31.0631 54.9662 31.2846 54.9219C31.506 54.8776 31.698 54.8222 31.8604 54.7558L32.0486 55.8631C31.901 55.937 31.6758 56.0034 31.3731 56.0625C31.0779 56.1215 30.7715 56.1511 30.454 56.1511C29.9594 56.1511 29.5275 56.0772 29.1584 55.9296C28.7967 55.7746 28.494 55.5642 28.2504 55.2984C28.0141 55.0252 27.837 54.7041 27.7188 54.335C27.6007 53.9585 27.5417 53.5524 27.5417 53.1169Z" fill="#3C4C54"/>
<path d="M32.9956 53.139C32.9956 52.6296 33.0694 52.183 33.2171 51.7991C33.3721 51.4152 33.5751 51.0978 33.8261 50.8468C34.0771 50.5884 34.365 50.3964 34.6899 50.2709C35.0147 50.1381 35.3469 50.0716 35.6865 50.0716C36.4838 50.0716 37.1039 50.3189 37.5469 50.8136C37.9972 51.3082 38.2223 52.0464 38.2223 53.0283C38.2223 53.1021 38.2187 53.187 38.2113 53.283C38.2113 53.3716 38.2076 53.4528 38.2002 53.5266H34.3798C34.4167 53.9917 34.5791 54.3534 34.867 54.6118C35.1623 54.8628 35.5868 54.9883 36.1405 54.9883C36.4653 54.9883 36.7606 54.9588 37.0264 54.8997C37.2995 54.8407 37.5136 54.7779 37.6687 54.7115L37.8458 55.8078C37.772 55.8447 37.6687 55.8853 37.5358 55.9296C37.4103 55.9665 37.2626 55.9997 37.0928 56.0292C36.9304 56.0662 36.7532 56.0957 36.5613 56.1178C36.3694 56.14 36.1737 56.1511 35.9744 56.1511C35.465 56.1511 35.0221 56.0772 34.6456 55.9296C34.2691 55.7746 33.959 55.5642 33.7154 55.2984C33.4717 55.0252 33.2909 54.7078 33.1728 54.3461C33.0546 53.9769 32.9956 53.5746 32.9956 53.139ZM36.8824 52.541C36.8824 52.3565 36.8566 52.183 36.8049 52.0206C36.7532 51.8508 36.6757 51.7068 36.5724 51.5887C36.4764 51.4632 36.3546 51.3672 36.2069 51.3008C36.0667 51.227 35.8969 51.1901 35.6976 51.1901C35.4908 51.1901 35.31 51.2307 35.1549 51.3119C34.9999 51.3857 34.867 51.4854 34.7563 51.6109C34.6529 51.7364 34.5717 51.8803 34.5127 52.0427C34.4536 52.2051 34.413 52.3712 34.3909 52.541H36.8824Z" fill="#3C4C54"/>
<path d="M41.3243 55.0437C41.6787 55.0437 41.9371 55.0031 42.0995 54.9219C42.2619 54.8333 42.3431 54.6856 42.3431 54.4789C42.3431 54.287 42.2545 54.1283 42.0773 54.0028C41.9075 53.8773 41.6233 53.7407 41.2247 53.593C40.981 53.5045 40.7559 53.4122 40.5492 53.3162C40.3498 53.2128 40.1764 53.0947 40.0287 52.9618C39.8811 52.829 39.7629 52.6702 39.6744 52.4857C39.5931 52.2937 39.5525 52.0612 39.5525 51.788C39.5525 51.2565 39.7482 50.8394 40.1394 50.5367C40.5307 50.2266 41.0622 50.0716 41.7341 50.0716C42.0736 50.0716 42.3985 50.1048 42.7085 50.1713C43.0186 50.2303 43.2511 50.2894 43.4062 50.3485L43.1626 51.4337C43.0149 51.3672 42.8267 51.3082 42.5978 51.2565C42.3689 51.1974 42.1032 51.1679 41.8005 51.1679C41.5273 51.1679 41.3059 51.2159 41.1361 51.3119C40.9663 51.4005 40.8814 51.5407 40.8814 51.7327C40.8814 51.8286 40.8961 51.9135 40.9257 51.9874C40.9626 52.0612 41.0216 52.1313 41.1029 52.1978C41.1841 52.2568 41.2911 52.3196 41.424 52.386C41.5569 52.4451 41.7193 52.5078 41.9112 52.5743C42.2287 52.6924 42.4981 52.8105 42.7196 52.9286C42.9411 53.0394 43.1219 53.1686 43.2622 53.3162C43.4099 53.4565 43.5169 53.6189 43.5834 53.8034C43.6498 53.988 43.683 54.2095 43.683 54.4679C43.683 55.0215 43.4763 55.4423 43.0629 55.7303C42.6569 56.0108 42.0736 56.1511 41.3133 56.1511C40.8039 56.1511 40.3941 56.1068 40.0841 56.0182C39.774 55.937 39.5562 55.8705 39.4307 55.8188L39.6633 54.7004C39.8626 54.7816 40.0988 54.8591 40.372 54.933C40.6525 55.0068 40.97 55.0437 41.3243 55.0437Z" fill="#3C4C54"/>
<path fill-rule="evenodd" clip-rule="evenodd" d="M19.6737 23.0317H21.7394V23.3288H19.3242V19.6694H19.6737V23.0317Z" fill="#39464A"/>
<path fill-rule="evenodd" clip-rule="evenodd" d="M22.2923 20.8576V23.3287H21.9429V20.8576H22.2923ZM22.2923 19.9174V20.4116H21.9429V19.9174H22.2923Z" fill="#39464A"/>
<path fill-rule="evenodd" clip-rule="evenodd" d="M39.933 20.8576V23.3287H39.5835V20.8576H39.933ZM39.933 19.9174V20.4116H39.5835V19.9174H39.933Z" fill="#39464A"/>
<path fill-rule="evenodd" clip-rule="evenodd" d="M23.2654 20.9569V23.3288H22.9443V20.9569H22.4946V20.6846H22.9443V20.4436C22.9443 20.3308 22.9528 20.2265 22.9698 20.1308C22.9868 20.0353 23.019 19.9533 23.0665 19.8848C23.1141 19.8163 23.1797 19.7635 23.263 19.7258C23.3463 19.6883 23.4528 19.6694 23.5823 19.6694C23.63 19.6694 23.6742 19.6712 23.7151 19.6745C23.7561 19.678 23.8021 19.683 23.8532 19.6899V19.9665C23.8088 19.96 23.7679 19.9542 23.7305 19.9492C23.693 19.9443 23.6555 19.9418 23.618 19.9418C23.5294 19.9418 23.4613 19.9553 23.4136 19.9827C23.366 20.0101 23.331 20.0466 23.3088 20.0928C23.2867 20.1389 23.2739 20.1928 23.2705 20.2544C23.2671 20.3156 23.2654 20.3822 23.2654 20.454V20.6846H23.7867V20.9569H23.2654Z" fill="#39464A"/>
<path fill-rule="evenodd" clip-rule="evenodd" d="M25.7453 21.4296C25.7077 21.3191 25.6542 21.2211 25.5853 21.1356C25.5164 21.0504 25.4327 20.9816 25.3342 20.9296C25.2356 20.8778 25.124 20.8518 24.9993 20.8518C24.8712 20.8518 24.758 20.8778 24.6594 20.9296C24.5609 20.9816 24.4772 21.0504 24.4082 21.1356C24.3394 21.2211 24.2844 21.3199 24.2433 21.4321C24.2023 21.5443 24.175 21.6591 24.162 21.7763H25.8069C25.8036 21.6558 25.7831 21.5403 25.7453 21.4296ZM24.2089 22.3989C24.24 22.5215 24.2901 22.6312 24.359 22.7286C24.428 22.8259 24.515 22.9066 24.6201 22.9703C24.7252 23.034 24.8515 23.0659 24.9994 23.0659C25.226 23.0659 25.4033 23.0056 25.5315 22.8846C25.6595 22.7639 25.7481 22.6028 25.7974 22.4014H26.1064C26.0407 22.6968 25.9202 22.9251 25.7448 23.0866C25.5693 23.2481 25.3208 23.3287 24.9994 23.3287C24.7993 23.3287 24.6263 23.2925 24.4803 23.2205C24.3343 23.1483 24.2155 23.0492 24.1237 22.9233C24.0317 22.7974 23.9637 22.6514 23.9194 22.4853C23.8752 22.3189 23.853 22.1436 23.853 21.9589C23.853 21.7876 23.8752 21.62 23.9194 21.4554C23.9637 21.2909 24.0317 21.144 24.1235 21.0148C24.2154 20.8855 24.3343 20.7815 24.4803 20.7024C24.6261 20.6237 24.7992 20.5841 24.9993 20.5841C25.2025 20.5841 25.3765 20.626 25.5207 20.7101C25.665 20.794 25.7822 20.9038 25.8724 21.0397C25.9627 21.1756 26.0274 21.3317 26.0668 21.5077C26.1062 21.6842 26.1224 21.8628 26.1159 22.0441H24.162C24.162 22.1581 24.1777 22.2764 24.2089 22.3989Z" fill="#39464A"/>
<path fill-rule="evenodd" clip-rule="evenodd" d="M29.4177 21.4075C29.5228 21.4075 29.623 21.3914 29.7182 21.3589C29.8134 21.3264 29.8963 21.2793 29.9678 21.2177C30.039 21.1562 30.0961 21.0819 30.1386 20.9947C30.181 20.9076 30.2024 20.8076 30.2024 20.6948C30.2024 20.4692 30.1377 20.2914 30.0085 20.1615C29.8796 20.0316 29.6825 19.9665 29.4177 19.9665H28.1231V21.4075H29.4177ZM29.4455 19.6694C29.5952 19.6694 29.737 19.6883 29.8714 19.7258C30.0056 19.7635 30.123 19.8208 30.2232 19.8974C30.3234 19.9746 30.4034 20.0736 30.4628 20.1949C30.5223 20.3162 30.5522 20.4589 30.5522 20.623C30.5522 20.8554 30.4924 21.0572 30.3735 21.228C30.2546 21.3988 30.0776 21.5082 29.8433 21.556V21.5663C29.9619 21.5835 30.0601 21.6151 30.1377 21.6611C30.2156 21.7072 30.2792 21.7662 30.3284 21.8378C30.3773 21.9097 30.413 21.9925 30.435 22.0864C30.457 22.1803 30.4713 22.2819 30.4781 22.3912C30.4816 22.4526 30.4851 22.5278 30.4883 22.6166C30.4918 22.7055 30.4986 22.7951 30.5088 22.8856C30.5188 22.9761 30.5352 23.0615 30.5572 23.1418C30.5791 23.2221 30.609 23.2845 30.6465 23.3288H30.2645C30.244 23.2947 30.2279 23.2528 30.2162 23.2034C30.2042 23.1538 30.1957 23.1025 30.1907 23.0497C30.1854 22.9968 30.1813 22.9445 30.1781 22.8934C30.1746 22.8421 30.1711 22.7977 30.1679 22.76C30.1608 22.6302 30.15 22.5013 30.1345 22.3732C30.1192 22.2453 30.087 22.1308 30.0378 22.03C29.9886 21.9294 29.9171 21.8483 29.8237 21.7865C29.7302 21.7252 29.6019 21.6978 29.4388 21.7046H28.1231V23.3288H27.7783V19.6694H29.4455Z" fill="#39464A"/>
<path fill-rule="evenodd" clip-rule="evenodd" d="M32.8411 21.4296C32.8033 21.3191 32.75 21.2211 32.6811 21.1356C32.612 21.0504 32.5282 20.9816 32.4298 20.9296C32.3314 20.8778 32.2198 20.8518 32.095 20.8518C31.967 20.8518 31.8536 20.8778 31.7552 20.9296C31.6564 20.9816 31.573 21.0504 31.5038 21.1356C31.435 21.2211 31.3799 21.3199 31.3389 21.4321C31.2979 21.5443 31.2707 21.6591 31.2578 21.7763H32.9026C32.8993 21.6558 32.8788 21.5403 32.8411 21.4296ZM31.3043 22.3989C31.3357 22.5215 31.3858 22.6312 31.4546 22.7286C31.5237 22.8259 31.6105 22.9066 31.7159 22.9703C31.8208 23.034 31.9473 23.0659 32.095 23.0659C32.3217 23.0659 32.4989 23.0056 32.6272 22.8846C32.7552 22.7639 32.8437 22.6028 32.8932 22.4014H33.2022C33.1363 22.6968 33.0159 22.9251 32.8405 23.0866C32.665 23.2481 32.4166 23.3287 32.095 23.3287C31.8949 23.3287 31.7221 23.2925 31.5759 23.2205C31.43 23.1483 31.3111 23.0492 31.2194 22.9233C31.1274 22.7974 31.0595 22.6514 31.0149 22.4853C30.9707 22.3189 30.9487 22.1436 30.9487 21.9589C30.9487 21.7876 30.9707 21.62 31.0149 21.4554C31.0595 21.2909 31.1274 21.144 31.2191 21.0148C31.3111 20.8855 31.43 20.7815 31.5759 20.7024C31.7218 20.6237 31.8949 20.5841 32.095 20.5841C32.2983 20.5841 32.472 20.626 32.6164 20.7101C32.7605 20.794 32.878 20.9038 32.9682 21.0397C33.0581 21.1756 33.1231 21.3317 33.1624 21.5077C33.2019 21.6842 33.2181 21.8628 33.2116 22.0441H31.2578C31.2578 22.1581 31.2733 22.2764 31.3043 22.3989Z" fill="#39464A"/>
<path fill-rule="evenodd" clip-rule="evenodd" d="M35.2094 21.0178C35.0937 20.9071 34.932 20.8518 34.7238 20.8518C34.575 20.8518 34.4446 20.8838 34.3321 20.9474C34.2199 21.0111 34.1265 21.0951 34.0521 21.1991C33.9777 21.3031 33.9217 21.4213 33.8836 21.5538C33.8456 21.6863 33.8265 21.8214 33.8265 21.9589C33.8265 22.0964 33.8456 22.2314 33.8836 22.364C33.9217 22.4966 33.9777 22.6147 34.0521 22.7188C34.1265 22.8227 34.2199 22.9066 34.3321 22.9704C34.4446 23.034 34.575 23.0659 34.7238 23.0659C34.8195 23.0659 34.9104 23.0475 34.9962 23.0105C35.0823 22.9738 35.1582 22.9225 35.2244 22.8569C35.2903 22.7916 35.3448 22.7138 35.3878 22.6231C35.4309 22.5325 35.4573 22.4333 35.4672 22.326H35.7795C35.7367 22.6413 35.6225 22.8874 35.4373 23.064C35.2525 23.2405 35.0146 23.3287 34.7238 23.3287C34.5287 23.3287 34.3561 23.2925 34.2059 23.2205C34.0553 23.1483 33.929 23.0501 33.8268 22.9259C33.7246 22.8016 33.647 22.6565 33.5942 22.4901C33.5415 22.3241 33.5151 22.147 33.5151 21.9589C33.5151 21.7708 33.5415 21.5939 33.5942 21.4276C33.647 21.2614 33.7246 21.1163 33.8268 20.992C33.929 20.8679 34.0553 20.7687 34.2059 20.6947C34.3561 20.6211 34.5287 20.5841 34.7238 20.5841C34.9979 20.5841 35.2299 20.658 35.4201 20.8061C35.6102 20.954 35.7232 21.1772 35.7596 21.4758H35.4473C35.4045 21.2813 35.3251 21.1287 35.2094 21.0178Z" fill="#39464A"/>
<path fill-rule="evenodd" clip-rule="evenodd" d="M36.0815 23.3288H36.3833V19.6694H36.0815V23.3288Z" fill="#39464A"/>
<path fill-rule="evenodd" clip-rule="evenodd" d="M38.6368 21.8376C38.6163 21.8746 38.5776 21.9014 38.5202 21.9182C38.4628 21.9351 38.4124 21.9467 38.3684 21.9534C38.2334 21.977 38.0943 21.998 37.9507 22.0164C37.8075 22.0349 37.6768 22.0625 37.5588 22.0993C37.4404 22.1365 37.3435 22.1893 37.2676 22.2581C37.1917 22.3268 37.1537 22.425 37.1537 22.5525C37.1537 22.6332 37.1698 22.7043 37.202 22.7664C37.2339 22.8285 37.277 22.8822 37.3309 22.9275C37.3848 22.9728 37.4475 23.0072 37.5181 23.0307C37.589 23.0542 37.6616 23.0659 37.7357 23.0659C37.8573 23.0659 37.9739 23.0475 38.0849 23.0105C38.1962 22.9738 38.2935 22.9199 38.3758 22.8495C38.4587 22.7791 38.5246 22.6933 38.5735 22.5927C38.6224 22.4921 38.6467 22.3779 38.6467 22.2505V21.8376H38.6368ZM37.0447 21.0632C37.0986 20.9525 37.1718 20.8619 37.2644 20.7912C37.3573 20.7204 37.4656 20.6683 37.5904 20.6346C37.7149 20.601 37.8529 20.5841 38.0043 20.5841C38.1189 20.5841 38.2331 20.595 38.3479 20.6169C38.4622 20.6387 38.565 20.6799 38.6558 20.7401C38.7466 20.8006 38.821 20.8855 38.8781 20.9945C38.9353 21.1036 38.964 21.2456 38.964 21.42V22.8C38.964 22.9275 39.0261 22.9914 39.1506 22.9914C39.1878 22.9914 39.2215 22.9847 39.2519 22.9711V23.2381C39.2144 23.2447 39.1819 23.2499 39.1532 23.2532C39.1248 23.2565 39.0885 23.2581 39.0448 23.2581C38.964 23.2581 38.8992 23.2474 38.8506 23.2257C38.8017 23.2038 38.7636 23.1728 38.7367 23.1322C38.71 23.0921 38.6921 23.0441 38.6836 22.9888C38.6754 22.9334 38.671 22.8723 38.671 22.8049H38.6611C38.6037 22.8889 38.5457 22.9637 38.4865 23.0291C38.4279 23.0944 38.362 23.1491 38.2896 23.1928C38.2173 23.2364 38.1347 23.27 38.0421 23.2934C37.9493 23.3168 37.8388 23.3287 37.7111 23.3287C37.5895 23.3287 37.4762 23.3144 37.3698 23.2858C37.2638 23.2572 37.171 23.2121 37.0919 23.15C37.0128 23.088 36.9504 23.0091 36.9047 22.9133C36.8593 22.8177 36.8364 22.7045 36.8364 22.5734C36.8364 22.3923 36.8771 22.2505 36.958 22.1481C37.0388 22.0458 37.1461 21.9677 37.279 21.9141C37.412 21.8602 37.5623 21.8226 37.729 21.8008C37.896 21.779 38.0653 21.7579 38.2372 21.7378C38.3046 21.731 38.3635 21.7227 38.4141 21.7128C38.4648 21.7027 38.507 21.6852 38.5407 21.6599C38.5744 21.6346 38.6004 21.6003 38.6189 21.5566C38.6376 21.513 38.6467 21.456 38.6467 21.3854C38.6467 21.2779 38.6292 21.19 38.5937 21.1213C38.5583 21.0523 38.5093 20.9978 38.4469 20.9577C38.3846 20.9171 38.3122 20.8895 38.2296 20.8744C38.147 20.8593 38.0585 20.8518 37.9639 20.8518C37.7618 20.8518 37.5966 20.8996 37.4683 20.9952C37.3403 21.0908 37.2726 21.2444 37.2659 21.4558H36.9489C36.9589 21.305 36.9908 21.1739 37.0447 21.0632Z" fill="#39464A"/>
<path fill-rule="evenodd" clip-rule="evenodd" d="M40.603 20.6615V21.1112H40.6185C40.7029 20.946 40.8142 20.8167 40.9513 20.7238C41.0884 20.6307 41.2638 20.5841 41.4774 20.5841C41.6499 20.5841 41.8066 20.6272 41.9472 20.7135C42.0878 20.7997 42.1819 20.9306 42.229 21.1065C42.307 20.9306 42.4224 20.7997 42.5747 20.7135C42.727 20.6272 42.8896 20.5841 43.0624 20.5841C43.6418 20.5841 43.9315 20.896 43.9315 21.5196V23.3287H43.612V21.5358C43.612 21.3155 43.5663 21.1476 43.4746 21.0322C43.3832 20.9168 43.2221 20.8591 42.9918 20.8591C42.8527 20.8591 42.7376 20.8857 42.6459 20.939C42.5545 20.9924 42.4815 21.0641 42.4274 21.1536C42.3732 21.2431 42.3351 21.3455 42.3128 21.461C42.2908 21.5765 42.2797 21.6961 42.2797 21.82V23.3287H41.9604V21.5204C41.9604 21.4309 41.951 21.3455 41.9323 21.2646C41.9138 21.1837 41.8834 21.1131 41.8409 21.0528C41.7984 20.9924 41.7416 20.9454 41.6704 20.9108C41.5995 20.8762 41.5128 20.8591 41.4112 20.8591C41.2758 20.8591 41.1578 20.884 41.0579 20.934C40.9577 20.9841 40.8766 21.0528 40.8139 21.1407C40.7512 21.2283 40.7046 21.3318 40.6739 21.4504C40.6434 21.5696 40.6282 21.6996 40.6282 21.8407V23.3287H40.3086V20.6615H40.603Z" fill="#39464A"/>
<path fill-rule="evenodd" clip-rule="evenodd" d="M46.277 21.4296C46.2395 21.3191 46.1859 21.2211 46.1171 21.1356C46.0483 21.0504 45.9645 20.9816 45.8658 20.9296C45.7676 20.8778 45.6557 20.8518 45.5309 20.8518C45.4029 20.8518 45.2899 20.8778 45.1911 20.9296C45.0927 20.9816 45.0089 21.0504 44.9401 21.1356C44.871 21.2211 44.8162 21.3199 44.7752 21.4321C44.7342 21.5443 44.7069 21.6591 44.6938 21.7763H46.3388C46.3353 21.6558 46.3148 21.5403 46.277 21.4296ZM44.7406 22.3989C44.7717 22.5215 44.8221 22.6312 44.8909 22.7286C44.9597 22.8259 45.0467 22.9066 45.1519 22.9703C45.2571 23.034 45.3833 23.0659 45.5312 23.0659C45.7577 23.0659 45.9352 23.0056 46.0632 22.8846C46.1912 22.7639 46.28 22.6028 46.3292 22.4014H46.6382C46.5726 22.6968 46.4519 22.9251 46.2765 23.0866C46.1013 23.2481 45.8526 23.3287 45.5312 23.3287C45.3309 23.3287 45.1581 23.2925 45.0122 23.2205C44.8663 23.1483 44.7471 23.0492 44.6554 22.9233C44.5637 22.7974 44.4954 22.6514 44.4512 22.4853C44.407 22.3189 44.385 22.1436 44.385 21.9589C44.385 21.7876 44.407 21.62 44.4512 21.4554C44.4954 21.2909 44.5637 21.144 44.6554 21.0148C44.7471 20.8855 44.866 20.7815 45.0119 20.7024C45.158 20.6237 45.3309 20.5841 45.5309 20.5841C45.7345 20.5841 45.9082 20.626 46.0524 20.7101C46.1971 20.794 46.3139 20.9038 46.4042 21.0397C46.4944 21.1756 46.5591 21.3317 46.5987 21.5077C46.6379 21.6842 46.6543 21.8628 46.6479 22.0441H44.6938C44.6938 22.1581 44.7096 22.2764 44.7406 22.3989Z" fill="#39464A"/>
<path fill-rule="evenodd" clip-rule="evenodd" d="M47.3179 22.3616C47.3501 22.4938 47.4008 22.6117 47.4705 22.7156C47.54 22.8193 47.6287 22.9037 47.7371 22.969C47.8455 23.0341 47.9761 23.0668 48.1285 23.0668C48.2978 23.0668 48.441 23.0341 48.5579 22.969C48.6748 22.9037 48.7694 22.8193 48.8423 22.7156C48.915 22.6117 48.9677 22.4938 48.9999 22.3616C49.0321 22.2296 49.048 22.0963 49.048 21.9627C49.048 21.8288 49.0321 21.6958 48.9999 21.5638C48.9677 21.4316 48.915 21.3134 48.8423 21.2098C48.7694 21.1061 48.6748 21.0217 48.5579 20.9565C48.441 20.8912 48.2978 20.8585 48.1285 20.8585C47.9761 20.8585 47.8455 20.8912 47.7371 20.9565C47.6287 21.0217 47.54 21.1061 47.4705 21.2098C47.4008 21.3134 47.3501 21.4316 47.3179 21.5638C47.286 21.6958 47.2699 21.8288 47.2699 21.9627C47.2699 22.0963 47.286 22.2296 47.3179 22.3616ZM49.0726 23.2584L49.0735 22.7658H49.0629C49.0289 22.8496 48.9791 22.9266 48.9132 22.997C48.847 23.0675 48.7717 23.127 48.6874 23.1756C48.6024 23.2242 48.5122 23.2618 48.4158 23.2886C48.3192 23.3155 48.2237 23.3288 48.1287 23.3288C47.929 23.3288 47.7558 23.2927 47.6085 23.2209C47.4615 23.149 47.3387 23.0501 47.2406 22.9245C47.1425 22.799 47.0695 22.6533 47.0224 22.4877C46.9749 22.3217 46.9512 22.1469 46.9512 21.9627C46.9512 21.7786 46.9749 21.6035 47.0224 21.4378C47.0695 21.2723 47.1425 21.1265 47.2409 21.0009C47.3387 20.8753 47.4615 20.7757 47.6088 20.7019C47.7561 20.6284 47.9296 20.5916 48.1293 20.5916C48.2275 20.5916 48.3233 20.6034 48.4164 20.6268C48.5093 20.6501 48.5966 20.6862 48.6777 20.7347C48.7588 20.7833 48.8309 20.8427 48.8936 20.9129C48.956 20.9832 49.0046 21.0653 49.0383 21.1589H49.048V19.6694H49.3664V23.2584H49.0726Z" fill="#39464A"/>
</svg>
