<svg width="210" height="210" viewBox="0 0 210 210" fill="none" xmlns="http://www.w3.org/2000/svg">
<circle cx="104.5" cy="104.5" r="97.5" fill="#D4E5EE"/>
<g clip-path="url(#forms-clip0)">
<path d="M169.609 168.281L166.972 147.908C166.69 145.737 165.552 143.769 163.81 142.441L150.944 132.633L143.971 154.759L159.969 172.583L169.609 168.281Z" fill="#FFBA94"/>
<path d="M155.927 143.395L160.279 146.965C160.59 147.221 160.725 147.633 160.625 148.023L157.415 160.51C157.201 161.342 156.125 161.567 155.594 160.892L149.154 152.689C148.876 152.335 148.858 151.843 149.11 151.471L154.409 143.616C154.751 143.11 155.455 143.007 155.927 143.395Z" fill="#F57D5B"/>
<path d="M105.346 26.3515H101.785C98.0485 26.3515 95.0195 29.377 95.0195 33.1094C95.0195 36.8418 98.0485 39.8673 101.785 39.8673H105.346C109.083 39.8673 112.111 36.8418 112.111 33.1094C112.111 29.377 109.083 26.3515 105.346 26.3515ZM104.397 36.2632H102.735C100.991 36.2632 99.5774 34.8508 99.5774 33.1094C99.5774 31.3676 100.991 29.9556 102.735 29.9556H104.397C106.14 29.9556 107.554 31.3676 107.554 33.1094C107.554 34.8508 106.14 36.2632 104.397 36.2632Z" fill="#E4772D"/>
<path d="M152.927 178.38H54.2029C51.8995 178.38 50.0322 176.516 50.0322 174.215V41.5941C50.0322 39.2934 51.8995 37.4282 54.2029 37.4282H152.927C155.231 37.4282 157.098 39.2934 157.098 41.5941V174.215C157.098 176.516 155.231 178.38 152.927 178.38Z" fill="#343761"/>
<path d="M152.202 175.976H53.4006C51.1186 175.976 49.2686 174.129 49.2686 171.849V41.7461C49.2686 39.4667 51.1186 37.6187 53.4006 37.6187H152.202C154.484 37.6187 156.334 39.4667 156.334 41.7461V171.849C156.334 174.129 154.484 175.976 152.202 175.976Z" fill="#902F80"/>
<path d="M59.8779 167.352H147.253V46.2927H59.8779V167.352Z" fill="#F5F1DA"/>
<path d="M147.253 167.352H59.8779V169.571H145.988C146.687 169.571 147.253 169.006 147.253 168.308V167.352Z" fill="#343761"/>
<path d="M59.7734 166.225H147.149V46.2925H59.7734V166.225Z" fill="white"/>
<path d="M99.4699 55.298V56.137H97.2924V62.2201H96.3235V56.137H94.146V55.298H99.4699ZM105.362 55.298V56.137H103.184V62.2201H102.215V56.137H100.038V55.298H105.362ZM110.336 57.5254C110.057 58.4178 109.774 59.2435 109.487 60.0026C109.201 60.7618 108.915 61.5009 108.628 62.2201H107.659C107.306 61.2013 106.993 60.1258 106.72 58.9938C106.454 57.8617 106.204 56.6298 105.971 55.298H106.99C107.083 55.8174 107.18 56.3368 107.28 56.8562C107.38 57.3756 107.483 57.8817 107.589 58.3745C107.696 58.8606 107.802 59.3267 107.909 59.7729C108.016 60.219 108.125 60.6319 108.239 61.0115C108.505 60.3123 108.788 59.5465 109.088 58.7141C109.387 57.875 109.667 57.0094 109.927 56.117H110.766C111.025 57.0094 111.308 57.875 111.615 58.7141C111.921 59.5465 112.207 60.3123 112.474 61.0115C112.58 60.6386 112.687 60.229 112.793 59.7829C112.9 59.3367 113.003 58.8706 113.103 58.3845C113.21 57.8917 113.313 57.3856 113.413 56.8662C113.513 56.3401 113.609 55.8174 113.702 55.298H114.691C114.452 56.6298 114.195 57.8617 113.922 58.9938C113.656 60.1258 113.349 61.2013 113.003 62.2201H112.034C111.741 61.5009 111.455 60.7618 111.175 60.0026C110.896 59.2435 110.616 58.4178 110.336 57.5254Z" fill="black"/>
<path d="M104.562 36.8938H102.568C100.476 36.8938 98.7789 35.1995 98.7789 33.1094C98.7789 31.0192 100.476 29.3245 102.568 29.3245H104.562C106.655 29.3245 108.35 31.0192 108.35 33.1094C108.35 35.1995 106.655 36.8938 104.562 36.8938ZM105.701 24.9997H101.428C96.9445 24.9997 93.3096 28.6304 93.3096 33.1094C93.3096 37.5883 96.9445 41.2186 101.428 41.2186H105.701C110.185 41.2186 113.82 37.5883 113.82 33.1094C113.82 28.6304 110.185 24.9997 105.701 24.9997Z" fill="#F59E24"/>
<path d="M135.664 51.1547H71.4658V46.2889H135.664V51.1547Z" fill="#DEDACE"/>
<path d="M135.664 46.1869H71.4658V41.4236C71.4658 40.4619 72.2465 39.6822 73.2092 39.6822H133.921C134.883 39.6822 135.664 40.4619 135.664 41.4236V46.1869Z" fill="#343761"/>
<path d="M133.203 48.9015H73.9277V37.5311C73.9277 35.3246 75.7183 33.536 77.9273 33.536H129.204C131.413 33.536 133.203 35.3246 133.203 37.5311V48.9015Z" fill="#FBC63F"/>
<path d="M73.9277 44.1894V48.9015H133.203V44.1894H73.9277Z" fill="#F59E24"/>
<path d="M94.4375 46.5454C94.4375 47.8468 95.4938 48.9015 96.7962 48.9015H110.333C111.636 48.9015 112.692 47.8468 112.692 46.5454C112.692 45.2441 111.636 44.1894 110.333 44.1894H96.7962C95.4938 44.1894 94.4375 45.2441 94.4375 46.5454Z" fill="#FDE08E"/>
<path d="M118.641 46.5454C118.641 47.8468 119.697 48.9015 120.999 48.9015H125.666C126.968 48.9015 128.024 47.8468 128.024 46.5454C128.024 45.2441 126.968 44.1894 125.666 44.1894H120.999C119.697 44.1894 118.641 45.2441 118.641 46.5454Z" fill="#E4772D"/>
<path d="M96.8482 36.5066H83.2087C82.3875 36.5066 81.7217 35.842 81.7217 35.0213C81.7217 34.2014 82.3875 33.5359 83.2087 33.5359H96.8482C97.6695 33.5359 98.3353 34.2014 98.3353 35.0213C98.3353 35.842 97.6695 36.5066 96.8482 36.5066Z" fill="#FDE08E"/>
<path d="M119.385 178.38H100.865C100.147 178.38 99.5654 177.8 99.5654 177.083C99.5654 176.366 100.147 175.786 100.865 175.786H119.385C120.102 175.786 120.684 176.366 120.684 177.083C120.684 177.8 120.102 178.38 119.385 178.38Z" fill="#4E719C"/>
<path d="M71.3973 178.38H61.2659C60.5485 178.38 59.9668 177.8 59.9668 177.083C59.9668 176.366 60.5485 175.786 61.2659 175.786H71.3973C72.1148 175.786 72.6965 176.366 72.6965 177.083C72.6965 177.8 72.1148 178.38 71.3973 178.38Z" fill="#2B2A4A"/>
<path d="M104.856 27.5433H102.702C101.999 27.5433 101.429 26.9742 101.429 26.2715C101.429 25.5692 101.999 24.9996 102.702 24.9996H104.856C105.559 24.9996 106.129 25.5692 106.129 26.2715C106.129 26.9742 105.559 27.5433 104.856 27.5433Z" fill="#FBC63F"/>
<path d="M155.168 180.918L153.599 175.955C153.523 175.712 153.34 175.516 153.103 175.421L147.216 173.069C141.809 170.908 142.004 162.453 142.158 160.183C142.181 159.838 141.993 159.516 141.681 159.365L134.281 155.763C131.851 154.581 130.72 151.746 131.668 149.219C132.303 147.529 134.178 146.663 135.877 147.276L151.625 152.949C151.811 153.016 151.968 153.145 152.069 153.314L160.329 167.164C160.533 167.507 160.949 167.662 161.329 167.537L168.304 165.231C168.783 165.072 169.294 165.362 169.403 165.854L172.66 180.477C172.778 181.009 172.373 181.513 171.828 181.513H155.981C155.609 181.513 155.28 181.272 155.168 180.918Z" fill="#FFBA94"/>
<path d="M157.508 172.105L154.841 171.695C143.355 169.647 146.227 157.764 146.227 157.764L131.129 151.148C130.994 152.901 131.93 154.619 133.584 155.424L142.206 159.62C142.206 159.62 140.953 170.566 147.216 173.069C153.478 175.57 153.478 175.57 153.478 175.57L155.356 181.513H159.744L157.508 172.105Z" fill="#F57D5B"/>
<path d="M173.47 183.624L154.226 186.68C153.164 186.849 152.165 186.126 151.996 185.064L151.545 182.231C151.376 181.17 152.101 180.172 153.164 180.004L172.407 176.947C173.47 176.778 174.468 177.503 174.637 178.564L175.088 181.397C175.257 182.458 174.532 183.455 173.47 183.624Z" fill="#F3E9E0"/>
<path d="M163.847 185.152L154.597 186.622C153.329 186.823 152.138 185.96 151.936 184.693L151.603 182.602C151.402 181.336 152.266 180.146 153.534 179.944L162.784 178.476C164.052 178.274 165.244 179.137 165.445 180.404L165.778 182.494C165.98 183.761 165.115 184.951 163.847 185.152Z" fill="#DFD2D1"/>
<path d="M181.111 209.87L176.625 181.048L150.021 185.274L153.85 209.87H181.111Z" fill="#343761"/>
<path d="M170.115 209.87L166.64 187.475C166.225 184.867 163.773 183.09 161.163 183.504L150.021 185.274L153.85 209.87H170.115Z" fill="#2B2A4A"/>
<path d="M65.457 66.4591H142.987V66.0494H65.457V66.4591Z" fill="#494F81"/>
<path d="M65.457 161.494H91.6072V161.084H65.457V161.494Z" fill="#494F81"/>
<path d="M80.1286 85.9137H67.1938C66.4612 85.9137 65.8672 85.3204 65.8672 84.5886V73.3247C65.8672 72.5929 66.4612 71.9996 67.1938 71.9996H80.1286C80.8613 71.9996 81.4553 72.5929 81.4553 73.3247V84.5886C81.4553 85.3204 80.8613 85.9137 80.1286 85.9137Z" fill="#D6D7D9"/>
<path d="M119.233 73.5616H84.151C83.719 73.5616 83.3691 73.2121 83.3691 72.7807C83.3691 72.3496 83.719 71.9997 84.151 71.9997H119.233C119.664 71.9997 120.015 72.3496 120.015 72.7807C120.015 73.2121 119.664 73.5616 119.233 73.5616Z" fill="#D6D7D9"/>
<path d="M142.205 77.9323H84.151C83.719 77.9323 83.3691 77.5823 83.3691 77.1513C83.3691 76.7202 83.719 76.3703 84.151 76.3703H142.205C142.636 76.3703 142.986 76.7202 142.986 77.1513C142.986 77.5823 142.636 77.9323 142.205 77.9323Z" fill="#AAA7AF"/>
<path d="M142.205 81.3123H84.151C83.719 81.3123 83.3691 80.9623 83.3691 80.5313C83.3691 80.1002 83.719 79.7503 84.151 79.7503H142.205C142.636 79.7503 142.986 80.1002 142.986 80.5313C142.986 80.9623 142.636 81.3123 142.205 81.3123Z" fill="#AAA7AF"/>
<path d="M101.594 84.6929H84.151C83.719 84.6929 83.3691 84.3429 83.3691 83.9119C83.3691 83.4808 83.719 83.1309 84.151 83.1309H101.594C102.025 83.1309 102.375 83.4808 102.375 83.9119C102.375 84.3429 102.025 84.6929 101.594 84.6929Z" fill="#AAA7AF"/>
<path d="M80.1286 108.215H67.1938C66.4612 108.215 65.8672 107.622 65.8672 106.89V95.6264C65.8672 94.8942 66.4612 94.3012 67.1938 94.3012H80.1286C80.8613 94.3012 81.4553 94.8942 81.4553 95.6264V106.89C81.4553 107.622 80.8613 108.215 80.1286 108.215Z" fill="#D6D7D9"/>
<path d="M119.233 95.8629H84.151C83.719 95.8629 83.3691 95.513 83.3691 95.0815C83.3691 94.6505 83.719 94.301 84.151 94.301H119.233C119.664 94.301 120.015 94.6505 120.015 95.0815C120.015 95.513 119.664 95.8629 119.233 95.8629Z" fill="#D6D7D9"/>
<path d="M142.205 100.234H84.151C83.719 100.234 83.3691 99.884 83.3691 99.4525C83.3691 99.0215 83.719 98.6716 84.151 98.6716H142.205C142.636 98.6716 142.986 99.0215 142.986 99.4525C142.986 99.884 142.636 100.234 142.205 100.234Z" fill="#AAA7AF"/>
<path d="M142.205 103.614H84.151C83.719 103.614 83.3691 103.264 83.3691 102.833C83.3691 102.402 83.719 102.052 84.151 102.052H142.205C142.636 102.052 142.986 102.402 142.986 102.833C142.986 103.264 142.636 103.614 142.205 103.614Z" fill="#AAA7AF"/>
<path d="M101.594 106.994H84.151C83.719 106.994 83.3691 106.645 83.3691 106.213C83.3691 105.782 83.719 105.432 84.151 105.432H101.594C102.025 105.432 102.375 105.782 102.375 106.213C102.375 106.645 102.025 106.994 101.594 106.994Z" fill="#AAA7AF"/>
<path d="M142.205 116.243H66.6491C66.2175 116.243 65.8672 115.893 65.8672 115.462C65.8672 115.031 66.2175 114.681 66.6491 114.681H142.205C142.637 114.681 142.987 115.031 142.987 115.462C142.987 115.893 142.637 116.243 142.205 116.243Z" fill="#AAA7AF"/>
<path d="M110.875 120.546H66.6491C66.2175 120.546 65.8672 120.196 65.8672 119.765C65.8672 119.333 66.2175 118.984 66.6491 118.984H110.875C111.307 118.984 111.657 119.333 111.657 119.765C111.657 120.196 111.307 120.546 110.875 120.546Z" fill="#D6D7D9"/>
<path d="M80.1327 138.466C79.4706 138.466 78.7781 138.885 78.3376 139.561C77.8958 140.239 77.7227 141.079 77.6012 141.884C77.1426 144.923 77.2591 148.06 77.5692 151.087C79.0021 148.717 80.2684 146.247 81.3584 143.691C81.7809 142.7 82.185 141.645 82.0824 140.595C81.9868 139.619 81.2808 138.559 80.2643 138.472C80.2204 138.468 80.1766 138.466 80.1327 138.466ZM79.738 158.965C79.6183 158.965 79.4972 158.95 79.3746 158.92C78.1653 158.616 77.9274 156.966 77.849 156.423C77.6579 155.098 77.4593 153.722 77.2928 152.314C75.935 154.46 74.4393 156.521 72.8132 158.483C72.7411 158.571 72.6118 158.582 72.5245 158.51C72.4371 158.438 72.4252 158.309 72.4974 158.222C74.2215 156.141 75.798 153.949 77.2177 151.66C76.8633 148.445 76.7033 145.085 77.1955 141.823C77.3239 140.972 77.5094 140.082 77.9938 139.338C78.5451 138.491 79.4505 137.987 80.2992 138.064C81.575 138.173 82.3802 139.428 82.4906 140.555C82.6025 141.701 82.1792 142.812 81.7358 143.852C80.5679 146.59 79.199 149.231 77.6414 151.756C77.8182 153.337 78.0414 154.884 78.2551 156.365C78.4414 157.658 78.8405 158.363 79.4743 158.522C80.131 158.689 80.8013 158.182 81.3116 157.723C83.1149 156.104 84.7164 154.265 86.0713 152.258C86.1254 152.178 86.228 152.147 86.3174 152.182C86.4073 152.218 86.4598 152.311 86.4438 152.406L85.8026 156.236C85.7784 156.379 85.6775 157.096 86.0393 157.205C86.2239 157.26 86.4503 157.12 86.6271 156.991C86.9647 156.746 87.2818 156.478 87.5772 156.188C87.6276 155.65 88.1589 155.149 88.7352 154.816C88.8173 154.768 88.9223 154.783 88.9875 154.853C89.0531 154.923 89.0613 155.028 89.008 155.107C88.7065 155.554 88.3672 155.97 87.9931 156.352C88.0009 156.399 88.0157 156.446 88.0387 156.492C88.2044 156.823 88.663 156.871 89.1491 156.922C89.7021 156.98 90.3289 157.046 90.5808 157.596C90.6275 157.699 90.5824 157.82 90.4794 157.867C90.3757 157.914 90.2546 157.869 90.2075 157.766C90.0532 157.429 89.593 157.381 89.106 157.329C88.5584 157.272 87.9378 157.207 87.6715 156.675L87.6678 156.667C87.4156 156.9 87.1485 157.119 86.8687 157.323C86.6148 157.507 86.2776 157.705 85.9208 157.597C85.4597 157.458 85.2689 156.937 85.3977 156.169L85.8892 153.236C84.6319 154.981 83.1871 156.59 81.5856 158.028C81.0848 158.478 80.4416 158.965 79.738 158.965Z" fill="#494F81"/>
<path d="M63.2687 137.345L76.6686 148.272L71.4729 155.374L58.3457 154.828L63.2687 137.345Z" fill="#FFBA94"/>
<path d="M40.2021 168.281L42.8398 147.908C43.1208 145.737 44.2591 143.769 46.0013 142.441L63.2696 137.345L65.8404 154.759L49.8421 172.583L40.2021 168.281Z" fill="#FFBA94"/>
<path d="M53.3758 156.906L51.9761 148.12C51.8678 147.441 52.3142 146.797 52.9885 146.659L61.8569 144.842C62.2314 144.765 62.6211 144.859 62.9198 145.097L66.5682 148.013C67.2414 148.55 67.2053 149.584 66.4968 150.073L55.3797 157.761C54.6003 158.301 53.5247 157.841 53.3758 156.906Z" fill="#F57D5B"/>
<path d="M35.1338 131.244L36.9294 129.894C36.9294 129.894 47.4399 133.538 53.0303 136.769C53.0886 136.802 53.1464 136.836 53.2038 136.87L52.6111 137.151C52.6111 137.151 40.5686 131.203 37.062 131.382C36.6549 131.868 36.2969 132.605 36.2969 132.605L35.1338 131.244Z" fill="#DEDACE"/>
<path d="M34.5903 134.163L35.391 132.514C35.5245 132.239 35.4098 131.908 35.1346 131.775L30.9944 129.769C30.7192 129.636 30.3882 129.751 30.2549 130.025L29.454 131.674C29.3207 131.949 29.4354 132.279 29.7102 132.413L33.8508 134.419C34.1258 134.552 34.4568 134.438 34.5903 134.163Z" fill="#DEDACE"/>
<path d="M82.275 155.691L83.1824 156.64C83.2604 156.721 83.1927 156.854 83.0811 156.841L81.7606 156.678C81.6773 156.667 81.6302 156.577 81.6691 156.503L82.0822 155.718C82.1204 155.645 82.2184 155.632 82.275 155.691Z" fill="#343761"/>
<path d="M79.872 153.777L82.5544 155.646L81.9276 156.936L78.8662 155.965L79.872 153.777Z" fill="#FBC63F"/>
<path d="M46.0805 141.915C41.249 139.37 37.1099 136.992 34.1035 135.049L35.757 131.644C39.1458 132.8 43.5774 134.576 48.5692 136.79L46.0805 141.915Z" fill="#343761"/>
<path d="M55.6169 140.038C56.1629 140.298 56.7122 140.562 57.2648 140.83C67.799 145.934 76.6288 150.956 80.6747 154.001L79.4855 156.45C74.5868 155.16 65.1732 151.341 54.639 146.237C54.0864 145.969 53.5388 145.701 52.9961 145.435L55.6169 140.038Z" fill="#343761"/>
<path d="M55.9258 140.185L53.3033 145.585C50.6468 144.282 48.1129 142.99 45.748 141.74L48.2257 136.638C50.673 137.72 53.257 138.908 55.9258 140.185Z" fill="#DEDACE"/>
<path d="M54.1182 145.984C53.8454 145.851 53.5731 145.718 53.3027 145.585C53.5735 145.718 53.8454 145.851 54.1182 145.984Z" fill="#C88A5E"/>
<path d="M46.6916 142.237C42.9652 140.287 39.6337 138.428 36.8867 136.778C39.4 138.288 42.4033 139.971 45.7481 141.74V141.74C46.0599 141.905 46.3745 142.071 46.6924 142.237H46.6916Z" fill="#7898C0"/>
<path d="M52.2034 145.043C50.2918 144.096 48.4475 143.156 46.6914 142.237H46.6922C48.4488 143.156 50.2918 144.096 52.2034 145.043Z" fill="#C88A5E"/>
<path d="M45.7479 141.74C42.4031 139.971 39.3999 138.288 36.8865 136.778C35.9458 136.213 35.0732 135.672 34.2773 135.161L35.0403 133.59L46.9121 139.343L45.7479 141.74Z" fill="#2B2E50"/>
<path d="M79.4853 156.45C79.0907 156.346 78.6666 156.226 78.2149 156.089C78.073 156.047 77.9286 156.002 77.7813 155.956C77.0446 155.727 76.2414 155.459 75.3783 155.155C75.2458 155.109 75.1113 155.061 74.9759 155.013C72.193 154.019 68.8252 152.671 65.089 151.048C61.8725 149.65 58.384 148.05 54.7606 146.296C54.7204 146.277 54.6794 146.256 54.6388 146.237C54.4645 146.152 54.2913 146.068 54.1182 145.984C53.8454 145.851 53.5735 145.718 53.3027 145.585L54.5391 143.039L80.0055 155.379L79.4853 156.45Z" fill="#2B2E50"/>
<path d="M53.3033 145.585C52.9346 145.405 52.5674 145.224 52.2036 145.043C50.292 144.096 48.4489 143.156 46.6924 142.237C46.3744 142.071 46.0598 141.905 45.748 141.74V141.74L46.9122 139.343L54.5397 143.039L53.3033 145.585Z" fill="#B3AFAD"/>
<path d="M34.16 135.403L36.0401 131.532L34.9942 131.025L33.1143 134.896L34.16 135.403Z" fill="#DEDACE"/>
<path d="M34.16 135.403L33.1143 134.896L34.16 135.403L34.2772 135.161L34.16 135.403Z" fill="#7898C0"/>
<path d="M34.2773 135.161H34.2775H34.2773ZM35.0404 133.59H35.0403L35.1151 133.436L35.0404 133.59Z" fill="#2B2E50"/>
<path d="M34.2773 135.161L35.0401 133.59H35.0403L34.2773 135.161Z" fill="#252642"/>
<path d="M34.16 135.403L33.1143 134.896L34.0693 132.93L35.115 133.436L35.0402 133.59L34.2774 135.161H34.2772L34.16 135.403Z" fill="#B3AFAD"/>
<path d="M54.642 180.918L56.211 175.955C56.2877 175.712 56.4703 175.516 56.7074 175.421L62.5948 173.069C68.0018 170.908 67.8065 162.453 67.6523 160.183C67.6289 159.838 67.8176 159.516 68.1297 159.365L75.5296 155.763C77.9597 154.581 79.091 151.746 78.1418 149.219C77.5076 147.529 75.6321 146.663 73.9334 147.276L58.185 152.949C57.9996 153.016 57.8429 153.145 57.7419 153.314L49.4815 167.164C49.2768 167.507 48.8609 167.662 48.4814 167.537L41.5066 165.231C41.0279 165.072 40.5163 165.362 40.4069 165.854L37.1507 180.477C37.0319 181.009 37.4372 181.513 37.9826 181.513H53.8294C54.201 181.513 54.53 181.272 54.642 180.918Z" fill="#F5A86F"/>
<path d="M54.4544 181.513L56.3328 175.57L62.5951 173.069C68.8574 170.566 67.605 159.62 67.605 159.62L76.3253 155.377C78.3046 154.413 79.2259 152.105 78.4527 150.046L77.8049 148.32C77.3578 147.129 76.0353 146.519 74.8375 146.95L57.8986 153.052L49.1315 167.752L40.6118 164.935L36.9199 181.513H54.4544Z" fill="#FFBA94"/>
<path d="M52.3025 172.105L54.9688 171.695C66.4548 169.647 63.5833 157.764 63.5833 157.764L78.6811 151.148C78.8161 152.901 77.8808 154.619 76.2264 155.424L67.6046 159.62C67.6046 159.62 68.857 170.566 62.5947 173.069C56.3324 175.57 56.3324 175.57 56.3324 175.57L54.454 181.513H50.0664L52.3025 172.105Z" fill="#F57D5B"/>
<path d="M36.3419 183.624L55.5853 186.68C56.6481 186.849 57.6466 186.126 57.8156 185.064L58.2664 182.231C58.4354 181.17 57.711 180.172 56.6481 180.004L37.4048 176.947C36.3419 176.778 35.3434 177.503 35.1744 178.564L34.7237 181.397C34.5548 182.458 35.2792 183.455 36.3419 183.624Z" fill="#F3E9E0"/>
<path d="M45.9639 185.152L55.2142 186.622C56.4822 186.823 57.673 185.96 57.8748 184.693L58.2075 182.602C58.4093 181.336 57.5446 180.146 56.277 179.944L47.0268 178.476C45.7588 178.274 44.5675 179.137 44.3657 180.404L44.033 182.494C43.8316 183.761 44.6959 184.951 45.9639 185.152Z" fill="#DFD2D1"/>
<path d="M28.7002 209.87L33.1864 181.048L59.7897 185.273L55.9612 209.87H28.7002Z" fill="#343761"/>
<path d="M39.6973 209.87L43.1711 187.475C43.5863 184.867 46.0389 183.09 48.6491 183.504L59.7901 185.274L55.9616 209.87H39.6973Z" fill="#2B2A4A"/>
<path d="M140.849 134.166H124.937C123.756 134.166 122.799 133.21 122.799 132.03C122.799 130.851 123.756 129.895 124.937 129.895H140.849C142.03 129.895 142.987 130.851 142.987 132.03C142.987 133.21 142.03 134.166 140.849 134.166Z" fill="#D6D7D9"/>
</g>
<defs>
<clipPath id="forms-clip0">
<rect width="152.599" height="185" fill="white" transform="translate(28.7002 25)"/>
</clipPath>
</defs>
</svg>
