<svg width="210" height="210" viewBox="0 0 210 210" fill="none" xmlns="http://www.w3.org/2000/svg">
<circle cx="105.5" cy="105.5" r="97.5" fill="#D4E5EE"/>
<path d="M75.881 97.7462C75.881 96.451 74.4442 95.6219 72.5024 95.4098C70.5611 95.1971 59.3246 100.432 55.518 108.124C51.7113 115.816 51.392 125.153 52.6525 127.744C53.9128 130.335 65.4247 112.539 66.9836 110.399C68.5431 108.26 75.881 99.1574 75.881 97.7462Z" fill="#ACB1C8"/>
<path d="M153.926 103.033C149.875 96.4771 138.471 86.1378 137.205 87.0599C135.685 88.167 131.684 92.0859 129.283 93.1082C129.283 93.1082 138.354 101.081 143.537 107.514C139.126 108.304 125.885 114.808 126.308 117.548C126.765 120.51 146.175 131.913 147.768 131.819C149.36 131.726 155.261 126.387 155.448 121.704C155.471 121.141 160.436 118.523 161.016 117.556C161.671 116.464 157.977 109.59 153.926 103.033Z" fill="#AA724B"/>
<path d="M148.689 131.472C143.744 127.415 136.845 122.733 135.713 122.733C135.703 122.733 135.694 122.733 135.685 122.734C135.685 122.274 132.722 120.252 128.066 117.495C128.506 117.453 128.954 117.389 129.41 117.301C129.418 117.3 129.426 117.298 129.434 117.297C129.437 117.296 129.44 117.296 129.443 117.295C129.449 117.294 129.454 117.293 129.459 117.292C129.462 117.291 129.465 117.291 129.468 117.29C129.474 117.289 129.48 117.288 129.486 117.287C129.487 117.287 129.489 117.286 129.491 117.286C136.261 115.953 143.075 110.176 144.436 107.435C144.681 107.503 143.677 113.845 138.993 117.556C135.568 120.271 145.65 127.385 151.688 128.967C150.612 130.111 149.51 131.007 148.689 131.472Z" fill="#824A28"/>
<path d="M155.468 121.66C155.467 121.655 155.466 121.649 155.465 121.643C155.707 121.137 158.448 119.588 160.006 118.46L160.006 118.46C158.429 119.603 155.638 121.178 155.468 121.66Z" fill="#5E68BA"/>
<path d="M155.465 121.643C155.081 119.686 153.801 115.225 149.622 109.411L153.2 110.875C153.2 110.875 147.047 101.332 142.126 95.2603C146.43 99.9541 151.535 105.967 156.136 112.555C156.843 113.568 157.539 114.595 158.217 115.633C158.218 115.634 158.219 115.635 158.22 115.636C158.224 115.642 158.228 115.649 158.232 115.655C158.234 115.658 158.237 115.662 158.239 115.665C158.242 115.671 158.245 115.675 158.248 115.68C158.252 115.685 158.255 115.69 158.259 115.696C158.261 115.7 158.264 115.704 158.266 115.708C158.271 115.714 158.273 115.718 158.277 115.724C158.28 115.728 158.283 115.732 158.285 115.737C158.29 115.743 158.293 115.747 158.297 115.753C158.299 115.757 158.301 115.761 158.304 115.765C158.308 115.771 158.312 115.777 158.316 115.783C158.318 115.787 158.32 115.79 158.322 115.793C158.327 115.8 158.331 115.806 158.336 115.814C158.337 115.816 158.339 115.819 158.341 115.821C158.345 115.828 158.35 115.836 158.355 115.844C158.356 115.846 158.358 115.847 158.359 115.849C158.365 115.858 158.371 115.868 158.376 115.877C158.377 115.877 158.377 115.877 158.377 115.878C158.933 116.732 159.477 117.592 160.006 118.46C158.449 119.587 155.707 121.137 155.465 121.643ZM138.059 90.9509C137.807 90.7607 137.672 90.6196 137.641 90.522C137.778 90.6626 137.918 90.8052 138.059 90.9509Z" fill="#824A28"/>
<path d="M153.761 136.624C152.732 133.72 137.28 122.614 135.685 122.734C130.72 123.108 123.463 134.189 125.236 136.985C125.511 137.418 125.966 137.871 126.548 138.332C125.997 138.133 125.593 138.013 125.404 137.998C123.063 137.82 115.325 146.233 118.122 149.461C118.213 149.566 118.344 149.674 118.5 149.785C118.124 149.707 117.831 149.662 117.654 149.662C114.657 149.661 109.646 155.095 110.77 156.874C110.9 157.08 111.098 157.285 111.353 157.489C110.546 157.399 109.939 157.416 109.693 157.577C108.616 158.279 105.057 162.869 106.228 164.274C107.398 165.679 113.549 166.1 115.141 166.1C116.734 166.1 121.588 163.384 120.698 161.277C120.627 161.107 120.498 160.935 120.329 160.764C121.827 161.08 123.127 161.27 123.883 161.277C126.646 161.302 130.673 156.827 129.618 154.234C129.483 153.904 128.836 153.477 127.91 153.019C130.8 153.732 133.375 154.229 134.084 154.234C137.393 154.255 141.702 149.176 140.39 146.179C140.081 145.472 138.878 144.528 137.277 143.534C141.522 145.051 145.61 146.115 147.205 146.115C150.765 146.115 154.792 139.527 153.761 136.624Z" fill="#FFBA94"/>
<path d="M129.62 154.239C129.62 154.237 129.619 154.236 129.618 154.234C129.619 154.236 129.62 154.237 129.62 154.239ZM134.095 154.234C134.094 154.234 134.094 154.234 134.093 154.234C134.094 154.234 134.094 154.234 134.095 154.234Z" fill="#5B62B7"/>
<path d="M129.531 156.499C126.375 154.361 121.327 151.041 118.93 149.355C118.995 149.264 119.06 149.172 119.125 149.08C124.636 151.668 131.461 153.289 135.232 154.054C134.851 154.169 134.472 154.234 134.105 154.234C134.102 154.234 134.098 154.234 134.095 154.234C134.095 154.234 134.094 154.234 134.094 154.234C134.091 154.234 134.087 154.234 134.084 154.234C133.375 154.229 130.801 153.732 127.911 153.019C128.837 153.477 129.484 153.903 129.619 154.234C129.619 154.236 129.62 154.237 129.621 154.239C129.714 154.47 129.767 154.746 129.787 155.053C129.805 155.512 129.711 156.003 129.531 156.499Z" fill="#F57D5B"/>
<path d="M120.717 161.323V161.322V161.323ZM120.715 161.317C120.714 161.316 120.714 161.316 120.714 161.315C120.714 161.316 120.714 161.316 120.715 161.317ZM120.712 161.31C120.712 161.31 120.712 161.309 120.711 161.308C120.712 161.309 120.712 161.31 120.712 161.31ZM120.71 161.305C120.71 161.304 120.709 161.303 120.709 161.302C120.709 161.303 120.71 161.304 120.71 161.305ZM120.707 161.298C120.707 161.297 120.707 161.297 120.706 161.296C120.707 161.297 120.707 161.298 120.707 161.298ZM120.705 161.292C120.705 161.291 120.704 161.29 120.704 161.29C120.704 161.29 120.705 161.291 120.705 161.292ZM120.702 161.286C120.702 161.285 120.702 161.284 120.701 161.283C120.702 161.284 120.702 161.285 120.702 161.286Z" fill="#5B62B7"/>
<path d="M120.366 163.012C117.636 161.242 114.303 159.199 112.44 158.058C112.5 157.983 112.558 157.909 112.618 157.833C115.429 158.964 118.945 160.234 122.372 160.951C122.835 161.048 123.346 161.091 123.884 161.091C124.291 161.091 124.714 161.066 125.144 161.022C124.718 161.184 124.3 161.276 123.907 161.276C123.899 161.276 123.891 161.276 123.884 161.276C123.128 161.269 121.827 161.08 120.33 160.764C120.499 160.935 120.628 161.106 120.699 161.276C120.7 161.278 120.701 161.28 120.702 161.283C120.702 161.284 120.702 161.285 120.703 161.285C120.703 161.287 120.704 161.288 120.705 161.289C120.705 161.29 120.706 161.291 120.706 161.292C120.706 161.293 120.707 161.294 120.707 161.295C120.708 161.296 120.708 161.297 120.708 161.298C120.709 161.299 120.709 161.3 120.71 161.302C120.71 161.302 120.711 161.303 120.711 161.305C120.711 161.306 120.712 161.307 120.712 161.308C120.713 161.309 120.713 161.31 120.713 161.31C120.714 161.312 120.714 161.313 120.715 161.315C120.715 161.315 120.715 161.316 120.716 161.316C120.716 161.318 120.717 161.32 120.718 161.322V161.322C120.719 161.324 120.719 161.326 120.72 161.329C120.924 161.87 120.754 162.45 120.366 163.012Z" fill="#F57D5B"/>
<path d="M140.408 146.218C140.407 146.218 140.407 146.218 140.407 146.217C140.407 146.218 140.407 146.218 140.408 146.218ZM140.404 146.211C140.404 146.211 140.404 146.21 140.404 146.21C140.404 146.21 140.404 146.211 140.404 146.211ZM140.4 146.202C140.4 146.2 140.399 146.199 140.398 146.198C140.399 146.199 140.4 146.2 140.4 146.202ZM140.397 146.194C140.396 146.193 140.396 146.191 140.395 146.19C140.396 146.191 140.396 146.193 140.397 146.194ZM140.394 146.186C140.393 146.184 140.392 146.181 140.39 146.179C140.392 146.181 140.393 146.184 140.394 146.186ZM140.39 146.179C140.39 146.177 140.389 146.176 140.389 146.175C140.389 146.176 140.39 146.177 140.39 146.179ZM140.388 146.173C140.388 146.173 140.387 146.172 140.387 146.171C140.388 146.172 140.388 146.173 140.388 146.173ZM140.386 146.169C140.386 146.169 140.386 146.168 140.386 146.168C140.386 146.168 140.386 146.169 140.386 146.169ZM140.385 146.165C140.384 146.164 140.384 146.164 140.384 146.164C140.384 146.164 140.384 146.164 140.385 146.165ZM147.205 146.115C145.61 146.115 141.522 145.051 137.277 143.534C141.522 145.051 145.61 146.115 147.205 146.115C147.208 146.115 147.212 146.115 147.215 146.115C147.212 146.115 147.209 146.115 147.205 146.115ZM147.218 146.115C147.221 146.115 147.223 146.115 147.225 146.115C147.223 146.115 147.221 146.115 147.218 146.115ZM147.229 146.115C147.231 146.115 147.233 146.115 147.235 146.115C147.233 146.115 147.231 146.115 147.229 146.115ZM147.239 146.115C147.24 146.115 147.243 146.115 147.245 146.114C147.242 146.115 147.241 146.115 147.239 146.115ZM147.249 146.114C147.251 146.114 147.253 146.114 147.254 146.114C147.253 146.114 147.251 146.114 147.249 146.114ZM147.259 146.114C147.261 146.114 147.263 146.114 147.264 146.114C147.263 146.114 147.261 146.114 147.259 146.114ZM147.269 146.114C147.271 146.114 147.274 146.114 147.276 146.114C147.274 146.114 147.271 146.114 147.269 146.114ZM147.279 146.114C147.282 146.114 147.284 146.114 147.288 146.114C147.285 146.114 147.282 146.114 147.279 146.114ZM147.293 146.113C147.295 146.113 147.296 146.113 147.298 146.113C147.296 146.113 147.295 146.113 147.293 146.113ZM147.303 146.113C147.304 146.113 147.306 146.113 147.307 146.113C147.306 146.113 147.304 146.113 147.303 146.113ZM147.313 146.113C147.315 146.113 147.316 146.113 147.317 146.113C147.316 146.113 147.314 146.113 147.313 146.113ZM147.323 146.112C147.324 146.112 147.325 146.112 147.327 146.112C147.325 146.112 147.324 146.112 147.323 146.112ZM147.332 146.112C147.334 146.112 147.335 146.112 147.336 146.112C147.335 146.112 147.334 146.112 147.332 146.112ZM147.342 146.112C147.343 146.112 147.344 146.112 147.345 146.111C147.344 146.112 147.343 146.112 147.342 146.112ZM147.37 146.11C147.37 146.11 147.37 146.11 147.37 146.11C147.37 146.11 147.37 146.11 147.37 146.11ZM147.378 146.11C147.379 146.11 147.379 146.11 147.379 146.11C147.379 146.11 147.379 146.11 147.378 146.11ZM147.388 146.109C147.388 146.109 147.389 146.109 147.389 146.109C147.389 146.109 147.388 146.109 147.388 146.109ZM147.397 146.109H147.398H147.397Z" fill="#5B62B7"/>
<path d="M140.583 148.012C138.126 145.415 129.222 140.314 126.319 138.587C126.38 138.496 126.439 138.405 126.5 138.314C126.516 138.32 126.532 138.326 126.549 138.332C126.524 138.312 126.517 138.302 126.527 138.302C126.749 138.302 135.321 142.986 141.827 144.417C144.458 144.995 147.166 145.27 149.555 145.274C148.851 145.755 148.118 146.061 147.399 146.109H147.398C147.396 146.109 147.393 146.109 147.39 146.109C147.389 146.109 147.389 146.109 147.388 146.109C147.386 146.109 147.383 146.11 147.38 146.11C147.38 146.11 147.38 146.11 147.379 146.11C147.376 146.11 147.374 146.11 147.371 146.11C147.371 146.11 147.371 146.11 147.371 146.11C147.362 146.111 147.354 146.111 147.346 146.111C147.344 146.112 147.344 146.112 147.343 146.112C147.341 146.112 147.339 146.112 147.337 146.112C147.336 146.112 147.335 146.112 147.333 146.112C147.331 146.112 147.33 146.112 147.328 146.112C147.326 146.112 147.325 146.112 147.324 146.112C147.321 146.113 147.32 146.113 147.318 146.113C147.316 146.113 147.315 146.113 147.313 146.113C147.312 146.113 147.31 146.113 147.308 146.113C147.307 146.113 147.305 146.113 147.304 146.113C147.302 146.113 147.3 146.113 147.298 146.113C147.297 146.113 147.295 146.113 147.293 146.113C147.292 146.114 147.29 146.114 147.289 146.114C147.285 146.114 147.283 146.114 147.28 146.114C147.279 146.114 147.278 146.114 147.277 146.114C147.274 146.114 147.272 146.114 147.269 146.114C147.268 146.114 147.267 146.114 147.265 146.114C147.264 146.114 147.262 146.114 147.26 146.114C147.258 146.114 147.257 146.114 147.255 146.114C147.254 146.114 147.251 146.114 147.25 146.114C147.248 146.114 147.247 146.114 147.245 146.114C147.244 146.115 147.241 146.115 147.24 146.115C147.238 146.115 147.237 146.115 147.236 146.115C147.234 146.115 147.232 146.115 147.229 146.115C147.228 146.115 147.227 146.115 147.226 146.115C147.223 146.115 147.221 146.115 147.219 146.115C147.218 146.115 147.217 146.115 147.216 146.115C147.213 146.115 147.209 146.115 147.206 146.115C145.611 146.115 141.523 145.051 137.278 143.534C137.429 143.628 137.574 143.721 137.718 143.814C137.792 143.862 137.871 143.914 137.953 143.968C139.2 144.793 140.112 145.563 140.385 146.164C140.385 146.165 140.385 146.165 140.385 146.165C140.385 146.166 140.386 146.167 140.386 146.168C140.386 146.168 140.387 146.169 140.387 146.169C140.387 146.17 140.387 146.171 140.388 146.171C140.388 146.172 140.388 146.173 140.389 146.173C140.389 146.174 140.389 146.174 140.389 146.175C140.39 146.176 140.39 146.177 140.391 146.179C140.392 146.181 140.394 146.184 140.395 146.187C140.395 146.188 140.396 146.189 140.396 146.19C140.397 146.191 140.397 146.193 140.398 146.194C140.398 146.195 140.399 146.196 140.399 146.198C140.4 146.199 140.401 146.2 140.401 146.202C140.402 146.204 140.404 146.207 140.405 146.21C140.405 146.211 140.405 146.211 140.405 146.212C140.406 146.214 140.407 146.216 140.408 146.217C140.408 146.218 140.408 146.218 140.408 146.218C140.636 146.764 140.681 147.375 140.583 148.012Z" fill="#F57D5B"/>
<path d="M78.8926 95.4034C78.2936 95.2987 73.6141 92.2553 71.6728 92.0432C69.7315 91.8306 59.3241 100.432 55.5175 108.124C51.711 115.816 48.3696 126.063 49.6301 128.653C49.8612 129.129 52.5394 131.571 52.9488 132.381C62.4073 151.113 99.9991 164.276 106.228 164.273C109.841 164.272 135.685 125.45 135.685 122.733C135.685 121.792 124.125 112.599 110.225 105.661C99.195 100.157 86.3838 96.7117 78.8926 95.4034Z" fill="#FFBA94"/>
<path d="M89.1358 119.194C85.5006 119.194 82.168 118.414 80.6821 117.557C77.9378 115.974 75.7051 113.218 76.685 112.407C77.9843 114.705 82.4189 117.302 88.2914 117.302C97.2833 117.302 100.561 109.34 103.652 107.561C104.873 106.858 106.021 106.432 107.032 106.221C108.842 107.105 110.637 108.005 112.394 108.905C113.54 110.364 115.15 112.255 117.205 113.896C117.204 113.896 117.204 113.895 117.203 113.895C115.373 112.762 112.626 111.976 109.683 111.976C106.322 111.976 102.707 113.001 99.9137 115.701C97.2133 118.312 93.0031 119.194 89.1358 119.194Z" fill="#F57D5B"/>
<path d="M72.5003 150.812C71.9559 150.482 71.4146 150.147 70.8779 149.808C73.3713 147.126 79.1686 141.362 84.1844 139.907C80.3856 142.48 75.1306 147.425 72.5003 150.812Z" fill="#824A28"/>
<path d="M52.9602 132.403C52.9564 132.396 52.9526 132.389 52.949 132.381C52.6429 131.775 51.0702 130.259 50.1982 129.332C51.0702 130.259 52.6429 131.775 52.949 132.381C52.9524 132.388 52.9568 132.397 52.9602 132.403Z" fill="#5B62B7"/>
<path d="M53.6991 133.748C53.4386 133.302 53.189 132.855 52.9602 132.403C52.9568 132.397 52.9524 132.388 52.949 132.381C52.6429 131.775 51.0702 130.259 50.1982 129.332C51.7261 126.296 53.3136 123.3 54.9161 120.388C60.9821 109.361 67.2659 99.5464 71.352 93.4178C67.3799 101.328 57.3088 121.866 53.6991 133.748Z" fill="#F57D5B"/>
<path d="M132.875 94.2598C130.496 92.8117 120.511 89.4832 118.825 89.5767C117.14 89.6703 102.809 91.9167 99.1562 91.9172C95.5031 91.9183 81.3599 107.654 77.5198 109.433C73.6796 111.213 79.2995 117.301 88.291 117.301C97.2829 117.301 100.561 109.339 103.652 107.56C106.743 105.78 109.363 105.78 110.487 106.53C111.611 107.279 118.17 119.455 129.41 117.301C137.094 115.828 144.864 108.591 144.677 106.53C144.489 104.469 137.183 96.8824 132.875 94.2598Z" fill="#AA724B"/>
<path d="M107.032 106.221C107.572 106.108 108.074 106.056 108.527 106.056C108.074 106.056 107.572 106.108 107.032 106.221Z" fill="#5E68BA"/>
<path d="M88.291 117.301C82.4185 117.301 77.9839 114.705 76.6846 112.407C77.9839 114.705 82.4185 117.301 88.291 117.301C97.2829 117.301 100.561 109.34 103.652 107.561C104.873 106.857 106.02 106.432 107.031 106.221C106.02 106.432 104.873 106.857 103.652 107.561C100.561 109.34 97.2829 117.301 88.291 117.301Z" fill="#D36E3F"/>
<path d="M129.434 117.297C129.437 117.296 129.439 117.295 129.443 117.295C129.44 117.295 129.437 117.296 129.434 117.297ZM129.458 117.292C129.461 117.291 129.464 117.29 129.467 117.29C129.464 117.29 129.462 117.291 129.458 117.292ZM129.485 117.286C129.487 117.286 129.488 117.286 129.49 117.285C129.488 117.286 129.486 117.286 129.485 117.286Z" fill="#E68744"/>
<path d="M77.5254 109.431C77.5259 109.431 77.5269 109.43 77.5279 109.43C77.5269 109.43 77.5259 109.431 77.5254 109.431ZM77.5305 109.429C77.5315 109.428 77.5325 109.428 77.5336 109.427C77.5325 109.428 77.5315 109.428 77.5305 109.429ZM77.5361 109.426C77.5371 109.426 77.5377 109.425 77.5387 109.425C77.5377 109.425 77.5371 109.426 77.5361 109.426ZM77.5417 109.423C77.5428 109.423 77.5433 109.422 77.5443 109.422C77.5433 109.422 77.5428 109.423 77.5417 109.423ZM77.5474 109.42C77.5484 109.42 77.5489 109.42 77.5499 109.419C77.5489 109.42 77.5479 109.42 77.5474 109.42ZM77.553 109.418C77.5535 109.418 77.5545 109.417 77.5555 109.417C77.5545 109.417 77.5535 109.418 77.553 109.418ZM77.5586 109.415C77.5591 109.415 77.5601 109.414 77.5612 109.414C77.5601 109.415 77.5591 109.415 77.5586 109.415ZM77.5637 109.413C77.5647 109.412 77.5663 109.412 77.5673 109.411C77.5663 109.412 77.5647 109.412 77.5637 109.413ZM77.5683 109.411C77.5699 109.41 77.5714 109.409 77.5724 109.409C77.5714 109.409 77.5699 109.41 77.5683 109.411ZM77.5745 109.408C77.5755 109.407 77.577 109.407 77.578 109.406C77.577 109.406 77.5755 109.407 77.5745 109.408ZM77.5796 109.405C77.5811 109.405 77.5821 109.404 77.5837 109.403C77.5821 109.404 77.5811 109.405 77.5796 109.405ZM77.5852 109.403C77.5888 109.4 77.5918 109.399 77.5949 109.397C77.5918 109.399 77.5883 109.401 77.5852 109.403ZM77.5959 109.397C77.6062 109.392 77.6164 109.387 77.6271 109.382C77.6164 109.387 77.6062 109.392 77.5959 109.397ZM77.6281 109.381C77.6302 109.38 77.6317 109.379 77.6332 109.379C77.6317 109.379 77.6302 109.38 77.6281 109.381ZM77.6338 109.378C77.6353 109.377 77.6368 109.376 77.6384 109.376C77.6368 109.376 77.6353 109.377 77.6338 109.378ZM77.6399 109.375C77.6414 109.374 77.6424 109.374 77.644 109.373C77.6424 109.374 77.6409 109.374 77.6399 109.375ZM77.645 109.372C77.6465 109.372 77.6481 109.371 77.6496 109.37C77.6481 109.371 77.6465 109.372 77.645 109.372ZM77.6511 109.369C77.6527 109.369 77.6542 109.368 77.6557 109.367C77.6542 109.368 77.6527 109.368 77.6511 109.369ZM77.6562 109.367C77.6578 109.366 77.6598 109.365 77.6614 109.364C77.6598 109.365 77.6578 109.366 77.6562 109.367ZM77.6619 109.364C77.6634 109.363 77.6649 109.362 77.667 109.361C77.6654 109.362 77.6634 109.363 77.6619 109.364ZM77.6675 109.361C77.669 109.36 77.6706 109.359 77.6726 109.359C77.6706 109.359 77.6695 109.36 77.6675 109.361ZM77.6741 109.358C77.6961 109.346 77.7186 109.334 77.7411 109.322C77.7186 109.334 77.6961 109.346 77.6741 109.358ZM77.7416 109.322C78.2824 109.029 78.9862 108.515 79.8097 107.843C78.9857 108.515 78.2824 109.028 77.7416 109.322ZM79.8117 107.841C79.8143 107.839 79.8168 107.837 79.8194 107.835C79.8168 107.837 79.8143 107.839 79.8117 107.841ZM79.8199 107.835C79.8224 107.832 79.825 107.83 79.8276 107.828C79.825 107.83 79.8224 107.832 79.8199 107.835ZM79.8291 107.827C79.8638 107.799 79.8991 107.769 79.9349 107.74C79.8996 107.769 79.8638 107.799 79.8291 107.827ZM79.9354 107.74C79.9405 107.736 79.9456 107.731 79.9513 107.727C79.9461 107.731 79.9405 107.736 79.9354 107.74ZM79.9543 107.724C79.9599 107.72 79.9656 107.715 79.9712 107.71C79.9656 107.715 79.9599 107.72 79.9543 107.724ZM79.9712 107.71C79.9891 107.696 80.0065 107.681 80.0243 107.666C80.007 107.681 79.9886 107.696 79.9712 107.71ZM80.0274 107.664C80.0381 107.655 80.0489 107.646 80.0591 107.638C80.0489 107.646 80.0376 107.655 80.0274 107.664ZM80.0622 107.635C80.0668 107.631 80.0714 107.627 80.0765 107.623C80.0719 107.627 80.0668 107.631 80.0622 107.635ZM80.0913 107.611C80.0918 107.61 80.0918 107.61 80.0923 107.61L80.0913 107.611ZM80.1097 107.596C80.1107 107.595 80.1117 107.594 80.1123 107.593C80.1117 107.594 80.1107 107.595 80.1097 107.596ZM80.1296 107.579C80.1301 107.578 80.1307 107.578 80.1312 107.578C80.1307 107.578 80.1301 107.578 80.1296 107.579ZM80.1475 107.564C80.1486 107.563 80.1501 107.562 80.1516 107.561C80.1501 107.562 80.1486 107.563 80.1475 107.564ZM80.1578 107.555C80.1588 107.555 80.1598 107.554 80.1603 107.553C80.1598 107.554 80.1588 107.555 80.1578 107.555ZM80.307 107.431C80.307 107.43 80.3075 107.43 80.3075 107.43L80.307 107.431Z" fill="#DE8A55"/>
<path d="M126.769 117.556C117.144 117.555 111.521 107.218 110.488 106.53C110.045 106.235 109.372 106.056 108.528 106.056C108.075 106.056 107.574 106.108 107.033 106.221C107.033 106.221 107.032 106.221 107.032 106.221C106.021 106.432 104.874 106.857 103.653 107.56C100.562 109.339 97.2838 117.301 88.2919 117.301C82.4194 117.301 77.9848 114.704 76.6854 112.407C76.4304 111.956 76.2959 111.516 76.2949 111.111C76.2934 110.418 76.6808 109.823 77.5206 109.434C77.5227 109.433 77.5242 109.431 77.5263 109.431C77.5268 109.43 77.5278 109.43 77.5288 109.429C77.5298 109.429 77.5303 109.429 77.5314 109.428C77.5324 109.428 77.5334 109.427 77.5344 109.427C77.5355 109.426 77.536 109.426 77.537 109.426C77.538 109.425 77.5385 109.425 77.5395 109.424C77.5406 109.424 77.5416 109.424 77.5426 109.423C77.5436 109.423 77.5441 109.422 77.5452 109.422C77.5462 109.421 77.5472 109.421 77.5482 109.42C77.5487 109.42 77.5498 109.42 77.5508 109.419C77.5518 109.419 77.5528 109.418 77.5539 109.418C77.5544 109.418 77.5554 109.417 77.5564 109.417C77.5574 109.416 77.5585 109.416 77.5595 109.415C77.56 109.415 77.561 109.415 77.562 109.414C77.5625 109.414 77.5636 109.413 77.5646 109.413C77.5656 109.412 77.5671 109.412 77.5682 109.411C77.5687 109.411 77.5692 109.411 77.5692 109.411C77.5707 109.41 77.5723 109.409 77.5733 109.408C77.5743 109.408 77.5748 109.408 77.5753 109.407C77.5763 109.407 77.5779 109.406 77.5789 109.405C77.5794 109.405 77.5804 109.405 77.5804 109.405C77.582 109.404 77.583 109.404 77.5845 109.403C77.585 109.403 77.5856 109.402 77.5861 109.402C77.5891 109.401 77.5927 109.399 77.5958 109.397C77.5958 109.397 77.5963 109.397 77.5968 109.397C77.607 109.392 77.6172 109.387 77.628 109.381C77.6285 109.381 77.629 109.381 77.629 109.381C77.631 109.38 77.6326 109.379 77.6341 109.378C77.6346 109.378 77.6346 109.378 77.6346 109.378C77.6362 109.377 77.6377 109.376 77.6392 109.376C77.6397 109.375 77.6402 109.375 77.6408 109.375C77.6418 109.374 77.6433 109.374 77.6448 109.373C77.6453 109.373 77.6459 109.372 77.6459 109.372C77.6474 109.372 77.6489 109.371 77.6505 109.37C77.651 109.37 77.6515 109.37 77.652 109.369C77.6535 109.368 77.6551 109.368 77.6566 109.367H77.6571C77.6586 109.366 77.6607 109.365 77.6622 109.364L77.6627 109.364C77.6643 109.363 77.6663 109.362 77.6678 109.361H77.6684C77.6704 109.36 77.6714 109.359 77.6735 109.358C77.6735 109.358 77.6745 109.358 77.675 109.357C77.697 109.346 77.7195 109.334 77.742 109.322C77.7425 109.322 77.7425 109.322 77.7425 109.322C78.2833 109.028 78.9866 108.515 79.8105 107.843C79.811 107.842 79.8121 107.841 79.8126 107.841C79.8151 107.839 79.8177 107.837 79.8202 107.835H79.8208C79.8233 107.832 79.8259 107.83 79.8284 107.828C79.8289 107.828 79.8294 107.827 79.83 107.827C79.8647 107.798 79.9005 107.769 79.9358 107.74C79.9358 107.74 79.9358 107.74 79.9363 107.74C79.9414 107.736 79.947 107.731 79.9521 107.727C79.9531 107.726 79.9542 107.725 79.9552 107.724C79.9608 107.72 79.9664 107.715 79.9721 107.71C79.9894 107.696 80.0078 107.681 80.0252 107.666C80.0262 107.665 80.0273 107.664 80.0283 107.663C80.0385 107.655 80.0497 107.646 80.06 107.637C80.061 107.636 80.062 107.635 80.063 107.635C80.0676 107.631 80.0728 107.627 80.0774 107.623C80.082 107.619 80.0871 107.615 80.0922 107.611L80.0932 107.61C80.0988 107.605 80.1049 107.6 80.1106 107.595C80.1116 107.594 80.1126 107.594 80.1131 107.593C80.1193 107.588 80.1249 107.583 80.1305 107.579C80.131 107.578 80.1315 107.578 80.132 107.578C80.1377 107.573 80.1428 107.568 80.1484 107.564C80.1494 107.563 80.151 107.562 80.1525 107.561C80.1545 107.559 80.1566 107.557 80.1586 107.555C80.1596 107.555 80.1607 107.554 80.1612 107.553C80.2097 107.513 80.2583 107.472 80.3079 107.43L80.3084 107.429C82.3238 105.732 84.9352 103.25 87.5952 100.767C84.2406 104.481 79.8478 109.419 79.6751 109.995C79.4415 110.773 83.1738 113.356 87.1827 113.356C88.0041 113.355 88.8372 113.247 89.6499 112.993C94.4301 111.495 98.1844 103.679 104.502 103.278C104.814 103.258 105.12 103.249 105.418 103.249C111.148 103.249 114.244 106.738 114.377 107.139C114.499 107.506 119.212 117.002 128.392 117.002C129.746 117.002 131.198 116.796 132.746 116.323C131.675 116.737 130.583 117.07 129.491 117.285C129.489 117.286 129.488 117.286 129.486 117.286C129.48 117.288 129.474 117.289 129.468 117.29C129.465 117.29 129.462 117.291 129.459 117.292C129.454 117.293 129.449 117.294 129.444 117.295C129.44 117.295 129.437 117.296 129.434 117.296C129.426 117.298 129.418 117.299 129.41 117.301C128.499 117.476 127.619 117.556 126.769 117.556Z" fill="#824A28"/>
<path d="M132.936 94.2977C132.935 94.2967 132.934 94.2962 132.933 94.2957C132.934 94.2962 132.935 94.2972 132.936 94.2977ZM132.922 94.289C132.921 94.2885 132.919 94.287 132.918 94.2865C132.919 94.287 132.921 94.288 132.922 94.289ZM132.908 94.2803C132.906 94.2793 132.905 94.2783 132.903 94.2773C132.905 94.2783 132.906 94.2793 132.908 94.2803ZM132.893 94.2711C132.892 94.2706 132.891 94.2696 132.889 94.2691C132.891 94.2696 132.892 94.2706 132.893 94.2711ZM132.875 94.2604C132.873 94.2594 132.871 94.2579 132.869 94.2568C132.871 94.2579 132.873 94.2594 132.875 94.2604ZM132.867 94.2558C132.866 94.2548 132.864 94.2538 132.862 94.2527C132.864 94.2538 132.866 94.2548 132.867 94.2558ZM132.861 94.2517C132.859 94.2507 132.857 94.2492 132.855 94.2481C132.857 94.2492 132.859 94.2507 132.861 94.2517ZM132.853 94.2471C132.852 94.2461 132.85 94.2451 132.848 94.2441C132.85 94.2451 132.852 94.2461 132.853 94.2471ZM132.847 94.243C132.845 94.242 132.843 94.241 132.841 94.24C132.843 94.241 132.845 94.242 132.847 94.243ZM132.84 94.2395C132.838 94.2379 132.836 94.2369 132.833 94.2354C132.836 94.2369 132.838 94.2379 132.84 94.2395ZM132.832 94.2348C132.831 94.2338 132.829 94.2323 132.827 94.2313C132.829 94.2323 132.831 94.2338 132.832 94.2348ZM132.825 94.2303C132.821 94.2277 132.817 94.2251 132.812 94.2226C132.817 94.2251 132.821 94.2277 132.825 94.2303ZM132.811 94.2221C132.809 94.221 132.807 94.2195 132.805 94.2185C132.807 94.2195 132.809 94.221 132.811 94.2221ZM132.804 94.218C132.799 94.2149 132.795 94.2124 132.79 94.2098C132.795 94.2124 132.799 94.2149 132.804 94.218ZM132.789 94.2088C132.787 94.2078 132.785 94.2067 132.783 94.2057C132.785 94.2067 132.787 94.2078 132.789 94.2088ZM132.782 94.2052C132.777 94.2021 132.773 94.1996 132.768 94.1965C132.773 94.1996 132.777 94.2021 132.782 94.2052ZM132.767 94.1965C132.762 94.1934 132.757 94.1909 132.753 94.1878C132.757 94.1909 132.762 94.1934 132.767 94.1965ZM132.752 94.1878C132.75 94.1863 132.748 94.1853 132.745 94.1837C132.748 94.1853 132.75 94.1863 132.752 94.1878ZM132.744 94.1832C132.739 94.1807 132.735 94.1776 132.73 94.175C132.735 94.1776 132.739 94.1807 132.744 94.1832ZM132.729 94.1745C132.727 94.173 132.725 94.172 132.722 94.1704C132.725 94.172 132.727 94.173 132.729 94.1745ZM132.721 94.1704C132.716 94.1674 132.711 94.1643 132.707 94.1618C132.712 94.1648 132.716 94.1674 132.721 94.1704ZM132.706 94.1612C132.698 94.1572 132.69 94.1526 132.683 94.1485C132.69 94.1526 132.698 94.1572 132.706 94.1612ZM132.682 94.148C132.51 94.0519 132.31 93.9486 132.086 93.8403C132.31 93.9486 132.51 94.0519 132.682 94.148ZM132.085 93.8397C132.075 93.8351 132.065 93.83 132.054 93.8249C132.065 93.83 132.075 93.8351 132.085 93.8397ZM132.054 93.8249C132.044 93.8198 132.033 93.8152 132.023 93.8101C132.033 93.8147 132.044 93.8198 132.054 93.8249ZM132.022 93.8096C132.016 93.8065 132.008 93.8029 132.002 93.7999C132.008 93.8029 132.016 93.8065 132.022 93.8096ZM132 93.7994C131.997 93.7978 131.994 93.7963 131.991 93.7948C131.994 93.7963 131.997 93.7978 132 93.7994ZM131.991 93.7943C131.984 93.7912 131.977 93.7881 131.97 93.7851C131.977 93.7881 131.984 93.7912 131.991 93.7943ZM131.968 93.7835C131.964 93.782 131.962 93.781 131.959 93.7794C131.962 93.781 131.964 93.782 131.968 93.7835ZM131.958 93.7789C131.955 93.7774 131.951 93.7758 131.948 93.7743C131.951 93.7758 131.955 93.7774 131.958 93.7789ZM131.947 93.7738C131.944 93.7723 131.941 93.7713 131.938 93.7697C131.941 93.7713 131.945 93.7728 131.947 93.7738ZM131.935 93.7682C131.929 93.7651 131.922 93.7621 131.916 93.759C131.922 93.7621 131.929 93.7651 131.935 93.7682ZM131.914 93.758C131.911 93.7569 131.908 93.7554 131.906 93.7544C131.908 93.7554 131.911 93.7569 131.914 93.758ZM131.903 93.7528C131.9 93.7518 131.897 93.7503 131.894 93.7493C131.898 93.7503 131.9 93.7518 131.903 93.7528ZM131.891 93.7472C131.888 93.7462 131.886 93.7452 131.884 93.7442C131.886 93.7452 131.888 93.7462 131.891 93.7472ZM131.88 93.7426C131.878 93.7411 131.876 93.7401 131.873 93.739C131.876 93.7401 131.878 93.7411 131.88 93.7426ZM131.87 93.7375C131.867 93.736 131.864 93.735 131.861 93.7334C131.864 93.735 131.867 93.736 131.87 93.7375ZM131.856 93.7309C131.855 93.7304 131.853 93.7298 131.852 93.7293C131.853 93.7298 131.855 93.7304 131.856 93.7309ZM131.846 93.7263C131.845 93.7258 131.844 93.7252 131.843 93.7252C131.844 93.7258 131.845 93.7258 131.846 93.7263ZM131.821 93.715C131.821 93.715 131.82 93.7145 131.82 93.714C131.82 93.7145 131.821 93.7145 131.821 93.715ZM131.788 93.6992C131.788 93.6992 131.787 93.6992 131.787 93.6992C131.788 93.6992 131.788 93.6992 131.788 93.6992Z" fill="#EC9F5B"/>
<path d="M141.541 101.924C135.913 97.4614 125.887 92.2294 121.826 90.1823C124.908 91.0334 129.415 92.601 131.787 93.6989C131.787 93.6989 131.787 93.6989 131.788 93.6989C131.798 93.7041 131.809 93.7092 131.819 93.7138C131.819 93.7143 131.821 93.7148 131.821 93.7148C131.829 93.7184 131.836 93.7214 131.843 93.725C131.843 93.725 131.844 93.7255 131.846 93.726C131.848 93.7271 131.85 93.7281 131.852 93.7291C131.853 93.7296 131.854 93.7301 131.856 93.7306C131.857 93.7317 131.859 93.7322 131.86 93.7332C131.863 93.7347 131.866 93.7357 131.87 93.7373C131.871 93.7378 131.872 93.7383 131.873 93.7388C131.875 93.7398 131.878 93.7409 131.88 93.7424C131.881 93.7429 131.882 93.7434 131.883 93.7439C131.886 93.745 131.888 93.746 131.89 93.747C131.892 93.7475 131.893 93.748 131.894 93.749C131.897 93.7501 131.9 93.7516 131.902 93.7526C131.903 93.7531 131.904 93.7536 131.905 93.7542C131.908 93.7552 131.91 93.7567 131.913 93.7577C131.914 93.7582 131.915 93.7582 131.916 93.7588C131.922 93.7618 131.928 93.7649 131.935 93.768C131.936 93.7685 131.937 93.769 131.938 93.7695C131.941 93.771 131.944 93.7721 131.947 93.7736C131.947 93.7736 131.947 93.7736 131.947 93.7741C131.951 93.7756 131.954 93.7772 131.958 93.7787C131.958 93.7792 131.958 93.7792 131.959 93.7792C131.962 93.7807 131.964 93.7818 131.967 93.7833C131.968 93.7838 131.969 93.7843 131.97 93.7848C131.977 93.7879 131.984 93.791 131.99 93.794C131.99 93.7945 131.99 93.7945 131.99 93.7945C131.994 93.7961 131.997 93.7976 132 93.7991C132 93.7991 132.001 93.7996 132.001 93.7996C132.008 93.8027 132.015 93.8063 132.022 93.8094C132.022 93.8094 132.022 93.8094 132.022 93.8099C132.033 93.815 132.043 93.8196 132.054 93.8247C132.064 93.8298 132.074 93.8349 132.085 93.8395L132.085 93.84C132.31 93.9484 132.51 94.0516 132.682 94.1477C132.682 94.1482 132.682 94.1482 132.682 94.1482C132.69 94.1523 132.698 94.1569 132.705 94.161C132.706 94.161 132.706 94.1615 132.706 94.1615C132.711 94.1641 132.716 94.1671 132.721 94.1702H132.722C132.724 94.1717 132.726 94.1728 132.729 94.1743C132.729 94.1743 132.729 94.1743 132.729 94.1748C132.734 94.1774 132.739 94.1804 132.744 94.183C132.744 94.183 132.745 94.1835 132.745 94.1835C132.747 94.185 132.749 94.1861 132.752 94.1876C132.752 94.1876 132.752 94.1876 132.752 94.1876C132.757 94.1907 132.762 94.1932 132.767 94.1963C132.767 94.1963 132.767 94.1963 132.768 94.1963C132.772 94.1994 132.777 94.2019 132.782 94.205C132.782 94.205 132.782 94.205 132.782 94.2055C132.784 94.2065 132.787 94.2075 132.789 94.2086C132.789 94.2091 132.79 94.2096 132.79 94.2096C132.795 94.2121 132.799 94.2147 132.803 94.2178C132.804 94.2178 132.804 94.2183 132.805 94.2183C132.806 94.2193 132.808 94.2208 132.811 94.2218C132.811 94.2218 132.812 94.2224 132.812 94.2224C132.816 94.2249 132.82 94.2275 132.825 94.23C132.825 94.2305 132.826 94.2311 132.827 94.2311C132.828 94.2321 132.83 94.2336 132.832 94.2346C132.833 94.2346 132.833 94.2346 132.833 94.2351C132.836 94.2367 132.838 94.2377 132.84 94.2392C132.84 94.2392 132.84 94.2392 132.841 94.2397C132.842 94.2408 132.844 94.2418 132.846 94.2428C132.847 94.2433 132.847 94.2433 132.848 94.2438C132.849 94.2449 132.851 94.2459 132.853 94.2469C132.853 94.2474 132.854 94.2474 132.854 94.2479C132.857 94.2489 132.859 94.2505 132.861 94.2515C132.861 94.252 132.862 94.252 132.862 94.2525C132.864 94.2535 132.865 94.2546 132.867 94.2556C132.868 94.2556 132.868 94.2561 132.869 94.2566C132.871 94.2576 132.873 94.2592 132.875 94.2602C132.88 94.2632 132.884 94.2658 132.889 94.2689C132.89 94.2694 132.891 94.2704 132.893 94.2709C132.896 94.2735 132.899 94.275 132.903 94.277C132.905 94.2781 132.906 94.2791 132.908 94.2801C132.911 94.2822 132.914 94.2842 132.917 94.2862C132.918 94.2868 132.92 94.2883 132.921 94.2888C132.925 94.2908 132.929 94.2929 132.932 94.2955C132.933 94.296 132.934 94.2965 132.936 94.2975C132.951 94.3067 132.965 94.3154 132.98 94.3246C135.513 95.8963 139.025 99.1155 141.541 101.924Z" fill="#824A28"/>
<path d="M57.7968 146.928C58.0605 144.411 64.5406 139.904 67.3037 139.107C70.0667 138.312 75.9678 141.355 74.4691 146.554C72.9705 151.752 69.4109 155.967 67.2568 155.967C65.1027 155.967 57.2816 151.845 57.7968 146.928Z" fill="#AA724B"/>
<path d="M63.4242 156.733C63.4222 156.733 63.42 156.733 63.418 156.733C63.42 156.733 63.4222 156.733 63.4242 156.733C65.3068 156.733 68.2622 153.515 69.9781 149.234C68.2622 153.515 65.3068 156.733 63.4242 156.733Z" fill="#57589D"/>
<path d="M69.9775 149.234C70.2249 148.616 70.4468 147.976 70.6359 147.32C70.6839 147.153 70.7243 146.988 70.7575 146.826C70.7243 146.988 70.6839 147.153 70.6359 147.32C70.4468 147.976 70.2249 148.616 69.9775 149.234Z" fill="#D87343"/>
<path d="M63.416 156.733C63.4142 156.733 63.4127 156.733 63.4111 156.733C63.4127 156.733 63.4144 156.733 63.416 156.733ZM63.4083 156.733C63.4074 156.733 63.4059 156.733 63.405 156.733C63.4059 156.733 63.4074 156.733 63.4083 156.733ZM63.4022 156.733C63.401 156.733 63.3998 156.733 63.3986 156.733C63.3998 156.733 63.401 156.733 63.4022 156.733ZM63.3952 156.733C63.3944 156.733 63.3932 156.733 63.3924 156.733C63.3932 156.733 63.3944 156.733 63.3952 156.733ZM63.3888 156.733C63.3878 156.733 63.387 156.733 63.386 156.733C63.387 156.733 63.388 156.733 63.3888 156.733ZM63.3826 156.733C63.3816 156.733 63.3806 156.733 63.3796 156.733C63.3806 156.733 63.3816 156.733 63.3826 156.733ZM63.3762 156.733C63.3752 156.733 63.3742 156.733 63.3732 156.733C63.374 156.733 63.3754 156.733 63.3762 156.733ZM63.3696 156.733C63.3688 156.733 63.3676 156.733 63.3668 156.733C63.3678 156.733 63.3686 156.733 63.3696 156.733ZM63.3633 156.732C63.362 156.732 63.3612 156.732 63.3602 156.732C63.3614 156.732 63.362 156.732 63.3633 156.732ZM63.3569 156.732C63.3558 156.732 63.3547 156.732 63.3536 156.732C63.3547 156.732 63.3558 156.732 63.3569 156.732ZM63.3503 156.732C63.3493 156.732 63.3483 156.732 63.3471 156.732C63.3481 156.732 63.3493 156.732 63.3503 156.732ZM63.3437 156.732C63.3427 156.732 63.3417 156.732 63.3405 156.732C63.3417 156.732 63.3427 156.732 63.3437 156.732ZM63.3373 156.731C63.3361 156.731 63.3351 156.731 63.3341 156.731C63.3351 156.731 63.3363 156.731 63.3373 156.731ZM63.3305 156.731C63.3295 156.731 63.3285 156.731 63.3275 156.731C63.3285 156.731 63.3295 156.731 63.3305 156.731ZM63.3239 156.731C63.3229 156.731 63.3219 156.731 63.3209 156.731C63.3219 156.731 63.3229 156.731 63.3239 156.731ZM63.3169 156.73C63.3161 156.73 63.3151 156.73 63.3143 156.73C63.3153 156.73 63.3161 156.73 63.3169 156.73ZM63.3105 156.73C63.3095 156.73 63.3085 156.73 63.3075 156.73C63.3085 156.73 63.3095 156.73 63.3105 156.73ZM63.3036 156.73C63.3027 156.73 63.3019 156.73 63.3012 156.729C63.3019 156.73 63.3029 156.73 63.3036 156.73ZM63.2968 156.729C63.2961 156.729 63.2953 156.729 63.2946 156.729C63.2953 156.729 63.2961 156.729 63.2968 156.729ZM63.29 156.729C63.2893 156.729 63.2887 156.729 63.2884 156.729C63.2889 156.729 63.2893 156.729 63.29 156.729ZM63.283 156.728C63.2828 156.728 63.2822 156.728 63.282 156.728C63.2823 156.728 63.2825 156.728 63.283 156.728ZM63.2762 156.728C63.276 156.728 63.2758 156.728 63.2754 156.728C63.2758 156.728 63.276 156.728 63.2762 156.728Z" fill="#57589D"/>
<path d="M67.2575 155.967C67.2555 155.967 67.2533 155.967 67.2513 155.967C67.2507 155.967 67.2504 155.967 67.25 155.967C67.2484 155.967 67.2467 155.967 67.2452 155.967C67.2441 155.967 67.2434 155.967 67.2424 155.967C67.2414 155.967 67.24 155.967 67.239 155.967C67.238 155.967 67.237 155.967 67.2362 155.967C67.235 155.967 67.2338 155.967 67.2326 155.967C67.2314 155.967 67.2304 155.967 67.2292 155.967C67.2284 155.967 67.2272 155.967 67.2264 155.967C67.2252 155.967 67.224 155.967 67.2228 155.967C67.222 155.967 67.221 155.967 67.22 155.967C67.219 155.966 67.2176 155.966 67.2166 155.966C67.2156 155.966 67.2146 155.966 67.2136 155.966C67.2124 155.966 67.2114 155.966 67.2102 155.966C67.2094 155.966 67.208 155.966 67.2072 155.966C67.206 155.966 67.2048 155.966 67.2037 155.966C67.2026 155.966 67.2018 155.966 67.2008 155.966C67.1996 155.966 67.1984 155.966 67.1973 155.966C67.196 155.966 67.1954 155.966 67.1943 155.966C67.193 155.966 67.1921 155.966 67.1909 155.966C67.1899 155.966 67.1887 155.966 67.1877 155.966C67.1865 155.966 67.1855 155.965 67.1843 155.965C67.1833 155.965 67.1821 155.965 67.1811 155.965C67.1801 155.965 67.1789 155.965 67.1777 155.965C67.1767 155.965 67.1757 155.965 67.1745 155.965C67.1735 155.965 67.1723 155.965 67.1713 155.965C67.1703 155.965 67.1691 155.965 67.1681 155.965C67.1669 155.965 67.1657 155.965 67.1645 155.965C67.1635 155.965 67.1625 155.964 67.1615 155.964C67.1603 155.964 67.1591 155.964 67.1579 155.964C67.1569 155.964 67.1559 155.964 67.1549 155.964C67.1535 155.964 67.1523 155.964 67.1509 155.964C67.1501 155.964 67.1493 155.964 67.1483 155.964C67.1469 155.964 67.146 155.964 67.1445 155.964C67.1436 155.963 67.1425 155.963 67.1416 155.963C67.1403 155.963 67.1387 155.963 67.1376 155.963C67.137 155.963 67.1359 155.963 67.1352 155.963C67.1337 155.963 67.1324 155.963 67.1308 155.963C67.1302 155.963 67.1293 155.963 67.1286 155.963C67.1271 155.962 67.1254 155.962 67.124 155.962C67.1234 155.962 67.123 155.962 67.1224 155.962C67.1206 155.962 67.119 155.962 67.117 155.962C67.1166 155.962 67.1164 155.962 67.116 155.962C67.114 155.962 67.1122 155.961 67.1102 155.961C67.11 155.961 67.1098 155.961 67.1094 155.961C64.8596 155.795 57.8755 152.05 57.7783 147.49C59.2139 148.912 61.4863 150.581 64.7755 151.408C65.1678 151.508 65.5478 151.554 65.9156 151.554C70.2964 151.554 72.9308 144.977 73.8718 142.109C74.5659 143.19 74.9053 144.522 74.5915 146.059C74.5583 146.221 74.5179 146.387 74.4698 146.554C74.2807 147.209 74.0589 147.849 73.8115 148.467C72.0956 152.748 69.1402 155.967 67.2575 155.967Z" fill="#824A28"/>
<path d="M70.8679 153.905C70.572 151.474 82.0271 140.379 86.6938 138.485C91.3605 136.592 97.9266 140.401 94.2689 146.398C91.1504 151.511 85.0924 157.843 82.0271 160.128C79.2133 162.225 71.4767 158.91 70.8679 153.905Z" fill="#AA724B"/>
<path d="M79.9629 160.763C80.7741 160.731 81.4907 160.527 82.0274 160.127C82.8467 159.517 83.8792 158.618 85.0124 157.529C83.8792 158.618 82.8467 159.517 82.0274 160.127C81.4902 160.528 80.7746 160.731 79.9629 160.763Z" fill="#57589D"/>
<path d="M94.2773 146.383C94.2789 146.38 94.2804 146.378 94.2819 146.375C94.2804 146.378 94.2789 146.38 94.2773 146.383ZM94.2865 146.368C94.2881 146.365 94.2901 146.362 94.2922 146.359C94.2901 146.362 94.2881 146.365 94.2865 146.368ZM94.2952 146.354C94.2968 146.351 94.2988 146.348 94.3009 146.344C94.2988 146.348 94.2973 146.351 94.2952 146.354ZM94.3039 146.339C94.306 146.336 94.308 146.333 94.3095 146.33C94.308 146.333 94.306 146.336 94.3039 146.339ZM94.3126 146.325C94.3147 146.321 94.3167 146.318 94.3182 146.315C94.3167 146.318 94.3147 146.321 94.3126 146.325ZM94.3218 146.31C94.3233 146.307 94.3254 146.304 94.3269 146.3C94.3254 146.304 94.3233 146.307 94.3218 146.31ZM94.33 146.295C94.332 146.292 94.3341 146.289 94.3356 146.286C94.3341 146.289 94.332 146.292 94.33 146.295ZM94.3392 146.281C94.3407 146.277 94.3428 146.274 94.3443 146.271C94.3428 146.274 94.3407 146.277 94.3392 146.281ZM94.3474 146.266C94.3494 146.263 94.3509 146.26 94.353 146.257C94.3509 146.26 94.3494 146.263 94.3474 146.266ZM94.3561 146.251C94.3581 146.248 94.3596 146.245 94.3617 146.242C94.3596 146.245 94.3581 146.248 94.3561 146.251ZM94.3647 146.236C94.3663 146.234 94.3683 146.23 94.3699 146.227C94.3683 146.23 94.3663 146.234 94.3647 146.236ZM94.3734 146.221C94.375 146.219 94.3765 146.216 94.3785 146.213C94.377 146.216 94.375 146.219 94.3734 146.221ZM94.3821 146.207C94.3837 146.204 94.3852 146.201 94.3867 146.199C94.3852 146.201 94.3837 146.204 94.3821 146.207ZM94.3908 146.192C94.3923 146.189 94.3934 146.187 94.3949 146.184C94.3934 146.187 94.3923 146.189 94.3908 146.192ZM94.3995 146.176C94.4005 146.174 94.4021 146.172 94.4031 146.17C94.4021 146.172 94.4005 146.174 94.3995 146.176ZM94.4082 146.161C94.4092 146.159 94.4102 146.157 94.4113 146.155C94.4102 146.157 94.4092 146.159 94.4082 146.161ZM94.4169 146.146C94.4179 146.144 94.4184 146.143 94.4194 146.141C94.4184 146.143 94.4179 146.144 94.4169 146.146ZM94.4261 146.13C94.4266 146.129 94.4271 146.128 94.4276 146.127C94.4271 146.128 94.4266 146.129 94.4261 146.13ZM94.4353 146.113L94.4358 146.112L94.4353 146.113Z" fill="#D87343"/>
<path d="M79.7309 160.767C76.2935 160.767 71.3493 157.865 70.8678 153.905C70.833 153.621 70.9644 153.216 71.2205 152.724C72.4278 154.67 74.6196 157.394 77.4324 157.394C77.99 157.394 78.5712 157.287 79.1743 157.046C84.0255 155.107 92.1751 144.475 94.2795 140.159C95.4755 141.594 95.816 143.66 94.4359 146.113L94.4354 146.113C94.4328 146.118 94.4303 146.123 94.4277 146.127C94.4272 146.128 94.4267 146.129 94.4262 146.13C94.4241 146.134 94.4216 146.138 94.4195 146.141C94.4185 146.144 94.418 146.145 94.417 146.146C94.4149 146.15 94.4134 146.153 94.4114 146.156C94.4103 146.158 94.4093 146.159 94.4083 146.161C94.4068 146.165 94.4047 146.168 94.4032 146.171C94.4021 146.173 94.4006 146.175 94.3996 146.177C94.3981 146.179 94.3965 146.182 94.395 146.184C94.3935 146.187 94.3924 146.19 94.3909 146.192C94.3894 146.195 94.3878 146.197 94.3868 146.199C94.3853 146.202 94.3838 146.205 94.3822 146.207C94.3807 146.209 94.3797 146.212 94.3786 146.214C94.3766 146.216 94.3751 146.219 94.3735 146.222C94.3725 146.224 94.371 146.226 94.37 146.228C94.3684 146.231 94.3664 146.234 94.3648 146.237C94.3638 146.239 94.3628 146.241 94.3618 146.242C94.3597 146.245 94.3582 146.248 94.3562 146.251C94.3551 146.253 94.3541 146.255 94.3531 146.257C94.351 146.26 94.3495 146.263 94.3475 146.266C94.3464 146.268 94.3454 146.27 94.3444 146.271C94.3429 146.275 94.3408 146.277 94.3393 146.281C94.3383 146.283 94.3367 146.285 94.3357 146.286C94.3342 146.289 94.3321 146.293 94.3301 146.295C94.3291 146.297 94.328 146.299 94.327 146.3C94.3255 146.304 94.3234 146.307 94.3219 146.31C94.3204 146.312 94.3193 146.314 94.3183 146.316C94.3168 146.318 94.3147 146.322 94.3127 146.325C94.3117 146.327 94.3107 146.329 94.3096 146.33C94.3081 146.333 94.3061 146.337 94.304 146.339C94.303 146.341 94.302 146.343 94.3009 146.345C94.2989 146.348 94.2969 146.351 94.2953 146.354C94.2943 146.356 94.2933 146.358 94.2923 146.36C94.2902 146.362 94.2882 146.366 94.2866 146.369C94.2851 146.371 94.2836 146.374 94.282 146.376C94.2805 146.378 94.279 146.381 94.2774 146.383C94.2744 146.388 94.2718 146.393 94.2687 146.398C93.6211 147.46 92.8468 148.574 91.9988 149.694C91.3946 150.216 90.7674 150.781 90.1469 151.366C89.9926 151.511 89.8387 151.658 89.6854 151.805C87.4665 153.941 85.4337 156.243 85.012 157.53C83.8788 158.618 82.8463 159.517 82.027 160.128C81.4903 160.527 80.7737 160.731 79.9625 160.763C79.8858 160.766 79.8086 160.767 79.7309 160.767Z" fill="#824A28"/>
<path d="M84.9452 158.098C84.5583 156.107 93.2098 148.187 95.5927 147.011C100.936 144.373 105.776 148.68 101.786 154.778C98.9182 159.16 93.9596 163.426 92.7569 163.884C89.9165 164.966 85.419 160.533 84.9452 158.098Z" fill="#AA724B"/>
<path d="M92.0691 164.04C92.0711 164.04 92.0732 164.04 92.0752 164.04C92.0732 164.04 92.0711 164.04 92.0691 164.04ZM92.0757 164.04C92.2955 164.019 92.5092 163.974 92.7141 163.9C92.5092 163.974 92.2955 164.019 92.0757 164.04ZM92.7147 163.9C92.7167 163.899 92.7187 163.899 92.7208 163.898C92.7187 163.899 92.7167 163.899 92.7147 163.9ZM92.7218 163.897C92.7239 163.897 92.7259 163.896 92.7274 163.895C92.7259 163.896 92.7239 163.897 92.7218 163.897ZM92.7295 163.895C92.731 163.894 92.7331 163.894 92.7346 163.893C92.7325 163.894 92.731 163.894 92.7295 163.895ZM92.7361 163.892C92.7376 163.892 92.7397 163.891 92.7412 163.891C92.7397 163.891 92.7376 163.892 92.7361 163.892ZM92.7433 163.889C92.7448 163.889 92.7463 163.888 92.7484 163.888C92.7463 163.888 92.7448 163.889 92.7433 163.889ZM92.7499 163.887C92.752 163.886 92.7545 163.885 92.7566 163.884C92.7545 163.885 92.752 163.886 92.7499 163.887ZM85.3067 159.104C85.3047 159.099 85.3021 159.095 85.3001 159.09C85.2965 159.083 85.2929 159.076 85.2899 159.069C85.2955 159.081 85.3011 159.092 85.3067 159.104ZM84.9464 158.104C84.9459 158.102 84.9453 158.1 84.9448 158.098C84.9448 158.096 84.9443 158.095 84.9438 158.093C84.9443 158.095 84.9448 158.096 84.9448 158.098C84.9453 158.1 84.9459 158.102 84.9464 158.104ZM84.9438 158.092C84.9438 158.091 84.9433 158.089 84.9428 158.087C84.9433 158.089 84.9438 158.091 84.9438 158.092ZM84.9428 158.087C84.9428 158.084 84.9423 158.083 84.9418 158.081C84.9423 158.083 84.9428 158.084 84.9428 158.087ZM84.9418 158.08C84.9418 158.078 84.9413 158.077 84.9407 158.075C84.9413 158.077 84.9418 158.078 84.9418 158.08ZM84.9407 158.074C84.9407 158.073 84.9402 158.071 84.9402 158.069C84.9402 158.071 84.9407 158.073 84.9407 158.074ZM84.9402 158.069C84.9183 157.919 84.9443 157.737 85.0123 157.529C84.9443 157.737 84.9183 157.919 84.9402 158.069Z" fill="#57589D"/>
<path d="M91.999 149.694C93.445 148.445 94.7561 147.448 95.5136 147.051C94.7561 147.448 93.4455 148.445 91.999 149.694Z" fill="#D87343"/>
<path d="M85.0127 157.529C85.4344 156.242 87.4672 153.941 89.686 151.804C89.8394 151.657 89.9932 151.51 90.1476 151.365C90.7681 150.78 91.3953 150.215 91.9994 149.693C89.0681 152.225 85.5806 155.796 85.0127 157.529Z" fill="#DA5E2D"/>
<path d="M95.5137 147.051C95.5162 147.05 95.5183 147.049 95.5208 147.047C95.5183 147.049 95.5162 147.05 95.5137 147.051ZM95.5208 147.047C95.533 147.041 95.5448 147.035 95.5565 147.029C95.5448 147.035 95.533 147.041 95.5208 147.047ZM95.558 147.028C95.5601 147.027 95.5616 147.026 95.5636 147.025C95.5616 147.026 95.5601 147.027 95.558 147.028ZM95.5652 147.025C95.5667 147.024 95.5682 147.023 95.5703 147.022C95.5682 147.023 95.5667 147.024 95.5652 147.025ZM95.5723 147.021C95.5738 147.02 95.5754 147.019 95.5769 147.019C95.5754 147.019 95.5738 147.02 95.5723 147.021ZM95.5789 147.018C95.5805 147.016 95.5825 147.016 95.584 147.015C95.5825 147.016 95.581 147.016 95.5789 147.018ZM95.5856 147.014C95.5881 147.013 95.5902 147.012 95.5922 147.011C95.5902 147.012 95.5876 147.013 95.5856 147.014Z" fill="#D87343"/>
<path d="M91.8069 164.051C90.7693 164.051 89.6151 163.532 88.5524 162.767C88.3526 162.623 88.1553 162.47 87.9631 162.31C87.6748 162.071 87.3968 161.816 87.1335 161.551C86.8008 161.217 86.4931 160.868 86.2176 160.516C85.94 160.161 85.6977 159.804 85.4984 159.457C85.4299 159.338 85.3645 159.22 85.3067 159.104C85.3011 159.092 85.2955 159.081 85.2899 159.069C85.2244 158.935 85.1687 158.805 85.1191 158.676C85.0956 158.616 85.0742 158.557 85.0542 158.498C85.0087 158.362 84.9709 158.23 84.9464 158.104C84.9459 158.102 84.9453 158.1 84.9448 158.098C84.9448 158.096 84.9443 158.095 84.9438 158.093C84.9438 158.093 84.9438 158.093 84.9438 158.092C84.9438 158.09 84.9433 158.088 84.9428 158.087C84.9428 158.086 84.9428 158.086 84.9428 158.086C84.9428 158.084 84.9423 158.083 84.9418 158.081V158.08C84.9418 158.078 84.9413 158.077 84.9407 158.075C84.9407 158.075 84.9407 158.075 84.9407 158.074C84.9407 158.073 84.9402 158.071 84.9402 158.069C84.9183 157.919 84.9443 157.737 85.0123 157.529C85.5802 155.797 89.0677 152.226 91.9991 149.694C93.4456 148.444 94.7561 147.448 95.5136 147.051C95.5136 147.051 95.5136 147.051 95.5136 147.05C95.5162 147.049 95.5182 147.048 95.5208 147.047C95.5331 147.041 95.5448 147.035 95.5566 147.028C95.5571 147.028 95.5576 147.028 95.5581 147.028C95.5602 147.027 95.5617 147.026 95.5637 147.025C95.5642 147.025 95.5648 147.024 95.5653 147.024C95.5668 147.023 95.5683 147.022 95.5704 147.022C95.5709 147.021 95.5714 147.021 95.5724 147.021C95.574 147.02 95.5755 147.019 95.577 147.018C95.578 147.018 95.5786 147.018 95.5791 147.017C95.5811 147.016 95.5826 147.016 95.5842 147.015C95.5847 147.014 95.5852 147.014 95.5857 147.014C95.5878 147.013 95.5903 147.012 95.5924 147.011C96.1653 146.728 96.7317 146.529 97.2827 146.4C94.8757 148.728 91.515 152.444 90.436 155.595C88.7707 160.459 91.4772 162.476 93.3055 163.582C93.0822 163.726 92.8925 163.833 92.7566 163.884C92.7545 163.885 92.752 163.886 92.7499 163.887C92.7494 163.887 92.7489 163.887 92.7484 163.888C92.7463 163.888 92.7448 163.889 92.7433 163.889C92.7422 163.89 92.7417 163.89 92.7412 163.89C92.7397 163.891 92.7376 163.891 92.7361 163.892C92.7356 163.892 92.7351 163.892 92.7346 163.893C92.7331 163.893 92.731 163.894 92.7295 163.894C92.729 163.895 92.7279 163.895 92.7274 163.895C92.7259 163.896 92.7239 163.897 92.7218 163.897C92.7218 163.898 92.7213 163.898 92.7208 163.898C92.7187 163.899 92.7167 163.899 92.7147 163.9H92.7141C92.5092 163.974 92.2955 164.019 92.0757 164.04C92.0752 164.04 92.0752 164.04 92.0752 164.04C92.0732 164.04 92.0711 164.04 92.0691 164.04C92.019 164.045 91.9689 164.048 91.9188 164.049C91.8815 164.051 91.8442 164.051 91.8069 164.051Z" fill="#824A28"/>
<path d="M95.3736 163.373C95.6302 161.792 100.304 156.437 102.067 155.044C105.712 152.164 109.4 154.426 108.615 158.906C107.831 163.387 104.091 167.663 102.737 168.274C99.6979 169.643 94.8829 166.401 95.3736 163.373Z" fill="#AA724B"/>
<path d="M100.69 156.321C100.733 156.278 100.775 156.236 100.817 156.194C100.913 156.097 101.008 156.003 101.101 155.913C100.969 156.041 100.832 156.178 100.69 156.321Z" fill="#D87343"/>
<path d="M99.1748 157.95C99.1973 157.925 99.2198 157.9 99.2423 157.875C99.7422 157.312 100.237 156.782 100.691 156.321C100.217 156.803 99.6977 157.36 99.1748 157.95Z" fill="#E58448"/>
<path d="M101.358 155.666C101.48 155.552 101.595 155.446 101.704 155.35C101.835 155.233 101.957 155.131 102.067 155.043C102.13 154.994 102.194 154.945 102.257 154.898C102.194 154.945 102.13 154.994 102.067 155.044C101.865 155.203 101.625 155.415 101.358 155.666Z" fill="#D87343"/>
<path d="M101.147 168.597C101.061 168.597 100.974 168.594 100.887 168.59C100.779 168.583 100.671 168.574 100.562 168.561C99.5838 168.444 98.5881 168.045 97.7315 167.473C97.6364 167.409 97.5429 167.343 97.4514 167.275C96.8109 166.801 96.266 166.229 95.8898 165.609C95.782 165.432 95.6884 165.251 95.6102 165.067C95.5326 164.884 95.4697 164.697 95.4242 164.509C95.4017 164.416 95.3833 164.321 95.3695 164.226C95.3419 164.038 95.3327 163.848 95.3429 163.659C95.348 163.564 95.3583 163.468 95.3736 163.373C95.4319 163.014 95.7268 162.452 96.1561 161.792C96.3841 161.443 96.6499 161.066 96.9453 160.67C97.0772 160.494 97.2137 160.315 97.3558 160.133C97.5383 159.899 97.7264 159.663 97.9206 159.425C98.3264 158.929 98.7507 158.429 99.1744 157.95C99.6973 157.36 100.217 156.803 100.69 156.321C100.832 156.178 100.969 156.041 101.101 155.913C101.189 155.827 101.275 155.744 101.359 155.666C101.625 155.414 101.865 155.203 102.067 155.044C102.13 154.994 102.194 154.945 102.257 154.898C103.312 154.117 104.362 153.764 105.301 153.764C105.369 153.764 105.436 153.765 105.503 153.77C103.207 155.57 98.5314 159.817 97.8051 164.273C97.4043 166.733 100.24 167.79 102.366 168.413C102.195 168.467 102.02 168.511 101.842 168.541C101.615 168.579 101.382 168.597 101.147 168.597Z" fill="#824A28"/>
<path d="M75.8805 86.8045C75.8805 86.8045 59.1618 110.183 47.7133 134.424L0.177473 118.326C0.177473 118.326 -0.972589 82.332 29.6957 59.4586L75.8805 86.8045Z" fill="#902F80"/>
<path d="M47.7135 134.424C59.1619 110.183 75.8807 86.8045 75.8807 86.8045L61.0973 78.0513C56.3161 82.3949 39.7077 99.2062 32.1729 129.161L47.7135 134.424Z" fill="white"/>
<path d="M47.7137 134.424L12.667 122.556L47.7137 134.424C47.7213 134.408 47.7299 134.389 47.7377 134.373C47.7297 134.39 47.7217 134.407 47.7137 134.424ZM47.742 134.364C47.758 134.33 47.7758 134.293 47.7918 134.259C47.7752 134.294 47.7585 134.329 47.742 134.364ZM47.7934 134.256C48.5735 132.608 49.3769 130.965 50.1983 129.333C50.1985 129.333 50.1985 129.333 50.1985 129.333C49.3773 130.965 48.5733 132.608 47.7934 134.256Z" fill="#5160B6"/>
<path d="M50.1984 129.332C50.1984 129.332 50.1984 129.332 50.1982 129.332C51.7261 126.296 53.3132 123.299 54.9157 120.387L54.9163 120.387C53.3138 123.3 51.7263 126.296 50.1984 129.332Z" fill="#A66A47"/>
<path d="M47.7136 134.424L0.0162265 118.339C-0.114353 116.321 0.586075 114.23 0.586075 112.179C0.586075 106.393 2.6422 101.763 3.6529 96.2698L38.034 111.772C35.8021 116.974 33.7811 122.768 32.173 129.161L47.7136 134.424Z" fill="#721162" style="mix-blend-mode:multiply"/>
<path d="M47.7135 134.424L32.1729 129.161C33.7809 122.768 35.8019 116.974 38.0338 111.772L54.9161 120.388C53.313 123.3 51.7259 126.297 50.198 129.333C49.3766 130.965 48.5732 132.608 47.7931 134.256C47.7925 134.257 47.7921 134.258 47.7915 134.259C47.7756 134.293 47.7578 134.33 47.7418 134.364C47.7402 134.367 47.739 134.37 47.7374 134.373C47.7296 134.389 47.721 134.408 47.7135 134.424Z" fill="#CAD3D6"/>
<path d="M132.307 85.2977C132.307 85.2977 154.925 105.972 164.636 127.056L210 103.988C210 103.988 206.689 66.2731 172.303 50.939L132.307 85.2977Z" fill="#F8901F"/>
<path d="M178.864 119.821C168.167 95.6677 149.721 80.2573 143.591 75.6039L132.307 85.2977C132.307 85.2977 154.925 105.972 164.636 127.056L178.864 119.821Z" fill="white"/>
<path d="M164.622 127.026C164.622 127.025 164.622 127.024 164.621 127.023C164.622 127.025 164.622 127.024 164.622 127.026ZM164.609 126.995C164.607 126.993 164.606 126.99 164.605 126.988C164.606 126.991 164.607 126.993 164.609 126.995ZM164.595 126.965C164.594 126.963 164.593 126.961 164.592 126.959C164.592 126.96 164.594 126.964 164.595 126.965ZM164.58 126.934C164.579 126.933 164.579 126.931 164.578 126.929C164.578 126.93 164.58 126.933 164.58 126.934ZM164.566 126.903C164.565 126.901 164.565 126.901 164.565 126.9L164.566 126.903ZM164.552 126.872C164.551 126.871 164.551 126.87 164.55 126.869L164.552 126.872ZM164.537 126.841C164.537 126.841 164.536 126.839 164.536 126.839L164.537 126.841ZM164.523 126.811C164.523 126.81 164.522 126.808 164.522 126.807L164.523 126.811ZM164.508 126.779C164.508 126.778 164.508 126.778 164.508 126.778L164.508 126.779Z" fill="#5160B6"/>
<path d="M158.376 115.878C158.376 115.878 158.376 115.878 158.376 115.877L158.376 115.878ZM158.358 115.85C158.357 115.848 158.356 115.846 158.354 115.844C158.356 115.847 158.357 115.848 158.358 115.85ZM158.34 115.822C158.338 115.819 158.336 115.817 158.335 115.814C158.337 115.817 158.338 115.819 158.34 115.822ZM158.321 115.793C158.319 115.79 158.317 115.787 158.315 115.784C158.317 115.787 158.319 115.791 158.321 115.793ZM158.303 115.765C158.3 115.762 158.298 115.757 158.296 115.754C158.298 115.758 158.3 115.762 158.303 115.765ZM158.285 115.737C158.282 115.733 158.279 115.729 158.276 115.724C158.278 115.728 158.283 115.734 158.285 115.737ZM158.266 115.708C158.263 115.704 158.261 115.7 158.258 115.696C158.26 115.7 158.264 115.705 158.266 115.708ZM158.247 115.68C158.244 115.675 158.242 115.671 158.238 115.666C158.242 115.671 158.244 115.675 158.247 115.68ZM158.231 115.655C158.227 115.649 158.223 115.643 158.219 115.637C158.223 115.643 158.227 115.649 158.231 115.655ZM158.217 115.633C157.538 114.596 156.842 113.569 156.135 112.555C156.842 113.568 157.538 114.596 158.217 115.633Z" fill="#B5844E"/>
<path d="M178.845 119.654C175.079 113.876 174.697 108.6 170.028 103.852L205.755 88.986C208.762 95.6351 209.166 96.7448 209.897 103.937L178.845 119.654Z" fill="#DA7201" style="mix-blend-mode:multiply"/>
<path d="M164.636 127.056C164.631 127.046 164.627 127.036 164.622 127.025C164.621 127.024 164.622 127.024 164.621 127.023C164.617 127.014 164.613 127.005 164.608 126.995C164.607 126.993 164.606 126.991 164.605 126.988C164.601 126.98 164.598 126.973 164.594 126.965C164.594 126.964 164.592 126.96 164.591 126.959C164.587 126.95 164.583 126.942 164.58 126.934C164.579 126.933 164.578 126.93 164.577 126.928C164.573 126.92 164.569 126.911 164.565 126.903L164.564 126.9C164.56 126.891 164.555 126.881 164.551 126.872L164.55 126.869C164.545 126.859 164.541 126.85 164.536 126.841L164.535 126.838C164.531 126.829 164.527 126.82 164.523 126.811L164.521 126.807C164.516 126.798 164.512 126.788 164.508 126.779L164.507 126.778C162.79 123.093 160.683 119.423 158.376 115.878L158.376 115.877C158.37 115.867 158.364 115.859 158.358 115.849C158.357 115.847 158.356 115.846 158.354 115.844C158.35 115.836 158.344 115.828 158.34 115.821C158.338 115.819 158.337 115.816 158.335 115.814C158.33 115.807 158.326 115.8 158.321 115.793C158.319 115.79 158.317 115.786 158.315 115.784C158.311 115.777 158.307 115.771 158.303 115.765C158.3 115.761 158.298 115.757 158.296 115.753C158.292 115.748 158.289 115.743 158.285 115.737C158.283 115.733 158.278 115.727 158.276 115.724C158.273 115.719 158.269 115.713 158.266 115.708C158.264 115.704 158.26 115.699 158.258 115.696C158.254 115.69 158.251 115.685 158.247 115.68C158.244 115.675 158.242 115.671 158.238 115.665C158.236 115.662 158.234 115.658 158.231 115.655C158.227 115.649 158.223 115.642 158.219 115.636C158.218 115.635 158.218 115.634 158.217 115.633C157.538 114.596 156.842 113.567 156.135 112.555L170.115 103.992C173.293 108.747 176.301 114.033 178.864 119.821L164.636 127.056Z" fill="#CAD3D6"/>
</svg>
