<svg width="462" height="506" viewBox="0 0 462 506" fill="none" xmlns="http://www.w3.org/2000/svg">
<path d="M461.462 275.421C461.462 402.765 358.228 506 230.884 506C103.539 506 0.304688 402.765 0.304688 275.421C0.304688 148.074 103.539 44.8422 230.884 44.8422C358.228 44.8422 461.462 148.074 461.462 275.421Z" fill="#D4E5EE"/>
<path d="M288.285 16.0073C270.319 -3.11099 246.027 1.39572 225.885 6.05873C221.235 1.47649 201.478 -2.1524 187.768 1.48683C158.532 9.24721 117.698 51.8863 159.54 190.698H320.629C329.036 140.319 328.124 58.3989 288.285 16.0073Z" fill="url(#lady-1-paint0_linear)"/>
<path d="M207.089 144.737L209.074 227.861L269.555 215.315L258.067 101.184L207.089 144.737Z" fill="#FDC3AB"/>
<path d="M207.902 177.436C207.902 177.436 239.457 178.027 242.4 140.884L207.339 156.309L207.902 177.436Z" fill="#FE9575"/>
<path d="M171.067 31.7887C166.222 35.876 163.135 41.6148 161.895 47.8017C158.216 66.1463 150.998 104.302 157.505 123.775C165.966 149.098 186.575 165.109 219.877 158.792C219.877 158.792 258.468 157.036 267.992 100.444C281.497 20.1519 212.576 -3.2151 171.067 31.7887Z" fill="#FDC3AB"/>
<path d="M215.863 20.8134C215.863 20.8134 179.064 15.8092 161.895 47.8015C161.895 47.8015 163.642 1.33821 219.651 7.79868L215.863 20.8134Z" fill="url(#lady-1-paint1_linear)"/>
<path d="M215.863 20.8134C215.863 20.8134 236.049 21.9102 240.129 42.2112C243.195 57.4844 228.513 73.9795 252.174 98.7664L276.32 77.947C276.32 77.947 292.576 7.3819 219.651 7.79871L215.863 20.8134Z" fill="url(#lady-1-paint2_linear)"/>
<path d="M162.915 95.693C162.298 98.0349 159.893 99.4364 157.544 98.819C155.196 98.2042 153.795 95.805 154.41 93.4631C155.027 91.1185 157.434 89.717 159.781 90.3343C162.129 90.9491 163.533 93.3484 162.915 95.693Z" fill="#171717"/>
<path d="M200.073 96.4353C199.456 98.7799 197.051 100.179 194.704 99.5639C192.355 98.9491 190.953 96.5473 191.57 94.2054C192.188 91.8609 194.592 90.4619 196.939 91.0767C199.287 91.6941 200.691 94.0934 200.073 96.4353Z" fill="#171717"/>
<path d="M194.606 61.7787C193.837 63.7725 195.749 65.7754 198.735 66.1008C203.244 66.5918 209.746 67.5949 215.524 69.5976C217.673 70.3429 220.291 69.8538 221.469 68.4184C222.597 67.0435 221.831 65.457 220.067 64.4413C216.454 62.3585 210.705 59.2618 199.852 59.1818C197.417 59.164 195.226 60.1725 194.606 61.7787Z" fill="#CD883A"/>
<path d="M173.052 61.1919C173.247 63.1033 171.682 64.8877 169.67 65.0452C166.636 65.2805 162.207 65.8984 158.104 67.4898C156.578 68.0841 154.934 67.4932 154.384 66.0863C153.858 64.7387 154.606 63.2861 155.924 62.4193C158.617 60.6451 162.874 58.0261 170.009 58.4934C171.611 58.5983 172.893 59.6547 173.052 61.1919Z" fill="#CD883A"/>
<path d="M174.599 119.393L199.292 116.548C199.292 116.548 200.842 126.635 188.614 128.034C176.384 129.435 174.599 119.393 174.599 119.393Z" fill="white"/>
<path d="M173.966 87.51C173.966 96.3019 167.508 103.429 159.539 103.429C151.573 103.429 145.115 96.3019 145.115 87.51C145.115 78.7154 151.573 71.588 159.539 71.588C167.508 71.588 173.966 78.7154 173.966 87.51ZM173.966 87.51C173.966 87.51 182.029 81.8883 190.091 88.9453M190.091 88.9453C190.091 97.7373 197.234 104.865 206.044 104.865C214.857 104.865 222 97.7373 222 88.9453C222 80.1508 214.857 73.0235 206.044 73.0235C197.234 73.0235 190.091 80.1508 190.091 88.9453Z" stroke="white" stroke-width="1.79687" stroke-miterlimit="10"/>
<path d="M222 88.9453L258.432 87.1662" stroke="white" stroke-width="1.79687" stroke-miterlimit="10"/>
<path d="M291.873 106.964C288.137 119.263 275.117 126.21 262.795 122.483C250.468 118.755 243.505 105.763 247.241 93.4651C250.976 81.1668 263.996 74.2192 276.321 77.947C288.645 81.6722 295.608 94.6635 291.873 106.964Z" fill="#FDC3AB"/>
<path fill-rule="evenodd" clip-rule="evenodd" d="M236.377 81.4343C236.785 81.3661 237.172 81.642 237.24 82.0505L236.521 82.1706C237.24 82.0506 237.24 82.0517 237.24 82.0528L237.241 82.055L237.241 82.0599L237.243 82.0706C237.244 82.0782 237.245 82.0867 237.246 82.0961C237.249 82.1148 237.251 82.1371 237.252 82.1626C237.256 82.2136 237.257 82.278 237.253 82.3537C237.244 82.5056 237.214 82.7025 237.135 82.9269C236.973 83.3858 236.623 83.9072 235.944 84.3801C234.623 85.3009 232.046 86.0458 226.982 85.9239C226.568 85.9139 226.24 85.5701 226.25 85.156C226.26 84.7419 226.604 84.4143 227.018 84.4243C231.996 84.5442 234.169 83.7891 235.087 83.1494C235.528 82.8421 235.671 82.5682 235.721 82.4268C235.748 82.351 235.754 82.2966 235.755 82.272C235.755 82.2676 235.755 82.2642 235.755 82.2617C235.709 81.8666 235.98 81.5005 236.377 81.4343ZM280.28 92.6942C280.281 92.6943 280.281 92.6945 280.074 93.4155L280.281 92.6945C280.679 92.8085 280.91 93.2238 280.795 93.622C280.681 94.02 280.267 94.2503 279.869 94.1367L279.868 94.1366C279.868 94.1366 279.868 94.1365 279.868 94.1365L279.862 94.1347L279.831 94.1265C279.803 94.119 279.76 94.1075 279.701 94.093C279.584 94.0641 279.408 94.0229 279.181 93.9765C278.726 93.8836 278.066 93.7699 277.258 93.6899C275.639 93.5295 273.447 93.5065 271.128 94.0439C268.815 94.58 266.382 95.6719 264.255 97.7403C262.13 99.8077 260.27 102.889 259.161 107.467C259.063 107.869 258.658 108.116 258.255 108.019C257.853 107.921 257.605 107.516 257.703 107.113C258.868 102.305 260.851 98.9589 263.209 96.665C265.567 94.3721 268.261 93.1686 270.789 92.5826C273.313 91.9978 275.678 92.026 277.406 92.1972C278.272 92.283 278.983 92.4052 279.481 92.5069C279.73 92.5577 279.926 92.6034 280.062 92.637C280.13 92.6539 280.182 92.6676 280.219 92.6775L280.262 92.6892L280.275 92.6927L280.279 92.6938L280.28 92.6942ZM237.24 96.3121C237.24 96.3132 237.24 96.3143 236.521 96.1943L237.24 96.3143C237.172 96.7229 236.785 96.9988 236.377 96.9305C235.98 96.8643 235.709 96.4982 235.755 96.1032C235.755 96.1007 235.755 96.0972 235.755 96.0928C235.754 96.0683 235.748 96.0139 235.721 95.9381C235.671 95.7967 235.528 95.5227 235.087 95.2155C234.169 94.5758 231.996 93.8207 227.018 93.9406C226.604 93.9505 226.26 93.6229 226.25 93.2089C226.24 92.7948 226.568 92.451 226.982 92.441C232.046 92.319 234.623 93.0639 235.944 93.9847C236.623 94.4577 236.973 94.9791 237.135 95.438C237.214 95.6623 237.244 95.8593 237.253 96.0111C237.257 96.0868 237.256 96.1512 237.252 96.2023C237.251 96.2278 237.249 96.25 237.246 96.2688C237.246 96.2736 237.245 96.2782 237.245 96.2826C237.244 96.2867 237.244 96.2906 237.243 96.2942L237.241 96.305L237.241 96.3098L237.24 96.3121ZM176.656 95.8858C177.039 96.0449 177.22 96.484 177.061 96.8664L173.042 106.522L179.259 108.191C179.659 108.299 179.896 108.71 179.789 109.11C179.681 109.51 179.27 109.747 178.87 109.64L171.826 107.749C171.617 107.693 171.443 107.549 171.347 107.355C171.252 107.161 171.245 106.936 171.328 106.736L175.676 96.29C175.835 95.9076 176.274 95.7266 176.656 95.8858ZM208.921 116.992C208.921 116.992 208.921 116.993 208.171 116.98L208.921 116.993C208.914 117.407 208.572 117.737 208.158 117.73C207.744 117.722 207.415 117.382 207.421 116.969C207.421 116.968 207.421 116.967 207.421 116.967V116.961C207.421 116.952 207.421 116.938 207.42 116.918C207.42 116.879 207.418 116.817 207.413 116.736C207.403 116.574 207.382 116.337 207.335 116.051C207.24 115.476 207.046 114.724 206.652 113.985C206.261 113.251 205.677 112.537 204.797 112.013C203.919 111.489 202.698 111.126 200.987 111.167C200.572 111.177 200.229 110.85 200.219 110.436C200.209 110.021 200.536 109.678 200.95 109.668C202.899 109.621 204.407 110.034 205.565 110.724C206.722 111.414 207.481 112.351 207.976 113.28C208.468 114.204 208.702 115.125 208.815 115.808C208.871 116.151 208.898 116.44 208.91 116.645C208.916 116.748 208.919 116.831 208.92 116.89C208.921 116.919 208.921 116.943 208.921 116.96L208.921 116.981L208.921 116.988L208.921 116.991L208.921 116.992Z" fill="#FE9575"/>
<mask id="lady-1-mask0" mask-type="alpha" maskUnits="userSpaceOnUse" x="0" y="44" width="462" height="462">
<path d="M461.462 275.421C461.462 402.765 358.228 506 230.884 506C103.539 506 0.304688 402.765 0.304688 275.421C0.304688 148.074 103.539 44.8422 230.884 44.8422C358.228 44.8422 461.462 148.074 461.462 275.421Z" fill="#D4E5EE"/>
</mask>
<g mask="url(#lady-1-mask0)">
<path d="M138.426 258.072C138.426 258.072 103.508 278.727 103.508 332.388V486.215C103.508 505.323 117.398 521.607 136.3 524.66C159.93 528.479 181.403 510.366 181.565 486.481L182.946 283.809L138.426 258.072Z" fill="#007EAF"/>
<path d="M347.625 249.053C347.625 249.053 400.791 282.162 424.5 399.5C424.5 399.5 401.844 466.943 347.625 467.068C293.409 467.19 347.625 249.053 347.625 249.053Z" fill="#007EAF"/>
<path d="M139.113 258.434C139.113 258.434 122.016 273.431 118.599 317.774C115.181 362.116 182.028 541.723 182.028 541.723L347.625 528.291L373.391 306.111C374.6 296.754 374.001 287.18 371.023 278.224C367.694 268.221 361.002 256.871 347.625 249.053L139.113 258.434Z" fill="#007EAF"/>
<path fill-rule="evenodd" clip-rule="evenodd" d="M137.526 326.497C138.027 326.543 138.396 326.986 138.35 327.487C135.009 363.999 141.234 403.685 148.312 434.28C151.849 449.57 155.595 462.573 158.457 471.752C159.888 476.342 161.097 479.975 161.949 482.459C162.374 483.701 162.71 484.656 162.94 485.299C163.054 485.621 163.142 485.865 163.201 486.028C163.231 486.109 163.253 486.171 163.268 486.212L163.285 486.257L163.29 486.271C163.29 486.272 163.29 486.272 162.436 486.587C161.581 486.903 161.581 486.902 161.581 486.902L161.575 486.886L161.557 486.838C161.542 486.796 161.519 486.733 161.489 486.649C161.428 486.483 161.339 486.236 161.223 485.911C160.991 485.261 160.653 484.299 160.225 483.049C159.369 480.551 158.154 476.902 156.718 472.295C153.845 463.081 150.086 450.033 146.536 434.691C139.441 404.021 133.169 364.115 136.536 327.321C136.582 326.82 137.025 326.451 137.526 326.497ZM162.751 487.442C162.279 487.616 161.755 487.375 161.581 486.903L162.436 486.587L163.29 486.271C163.464 486.743 163.223 487.268 162.751 487.442Z" fill="#003748"/>
<path fill-rule="evenodd" clip-rule="evenodd" d="M330.79 320.22C331.285 320.129 331.76 320.456 331.852 320.95L358.412 464.688C358.504 465.183 358.177 465.658 357.682 465.75C357.187 465.841 356.712 465.514 356.621 465.019L330.06 321.281C329.968 320.787 330.295 320.311 330.79 320.22Z" fill="#003748"/>
</g>
<path d="M229.315 198.742L139.114 258.434C139.114 258.434 215.863 294.232 347.626 249.053L261.529 198.742H229.315Z" fill="#FDC3AB"/>
<path d="M390.981 441.821C390.981 441.821 379.237 423.294 357.889 441.688C357.889 441.688 350.402 456.352 371.808 485.984C374.332 489.478 379.677 490.071 383.874 487.362C387.688 484.903 389.438 480.441 388.032 476.762L378.443 453.07L390.981 441.821Z" fill="#FDC3AB"/>
<path d="M357.889 441.688C357.889 441.688 345.002 443.233 338.716 454.132C338.716 454.132 328.583 457.61 325.069 466.353C325.069 466.353 320.953 467.142 317.577 472.678C315.18 476.606 315.495 481.66 317.9 485.586C321.841 492.017 329.596 502.497 339.589 505.136C341.923 505.751 344.367 505.04 345.964 503.235C347.245 501.786 348.373 501.604 348.008 498.934C348.008 498.934 352.937 501.612 356.717 499.176C360.494 496.738 361.138 493.442 360.338 490.262C360.338 490.262 365.082 501.112 376.205 490.368C387.326 479.625 357.889 441.688 357.889 441.688Z" fill="#FDC3AB"/>
<defs>
<linearGradient id="lady-1-paint0_linear" x1="233.266" y1="190.698" x2="233.266" y2="0.000137329" gradientUnits="userSpaceOnUse">
<stop stop-color="#FDAC52"/>
<stop offset="0.348958" stop-color="#FFB96B"/>
<stop offset="1" stop-color="#FFCE97"/>
</linearGradient>
<linearGradient id="lady-1-paint1_linear" x1="190.773" y1="47.8015" x2="190.773" y2="7.1824" gradientUnits="userSpaceOnUse">
<stop stop-color="#FDAC52"/>
<stop offset="0.348958" stop-color="#FFB96B"/>
<stop offset="1" stop-color="#FFCE97"/>
</linearGradient>
<linearGradient id="lady-1-paint2_linear" x1="246.864" y1="98.7664" x2="246.864" y2="7.79687" gradientUnits="userSpaceOnUse">
<stop stop-color="#FDAC52"/>
<stop offset="0.348958" stop-color="#FFB96B"/>
<stop offset="1" stop-color="#FFCE97"/>
</linearGradient>
</defs>
</svg>
