<svg width="462" height="533" viewBox="0 0 462 533" fill="none" xmlns="http://www.w3.org/2000/svg">
<path d="M462 301.495C462 429.072 358.577 532.495 231 532.495C103.423 532.495 0 429.072 0 301.495C0 173.916 103.423 70.4952 231 70.4952C358.577 70.4952 462 173.916 462 301.495Z" fill="#D4E5EE"/>
<mask id="lady-2-mask0" mask-type="alpha" maskUnits="userSpaceOnUse" x="0" y="70" width="462" height="463">
<path d="M462 301.495C462 429.072 358.577 532.495 231 532.495C103.423 532.495 0 429.072 0 301.495C0 173.916 103.423 70.4952 231 70.4952C358.577 70.4952 462 173.916 462 301.495Z" fill="#D4E5EE"/>
</mask>
<g mask="url(#lady-2-mask0)">
<path fill-rule="evenodd" clip-rule="evenodd" d="M139.038 284.498C139.055 284.484 139.063 284.477 139.063 284.477L347.955 275.079L347.955 275.079C354.705 279.023 359.755 283.865 363.533 288.98C381.149 307.944 409.4 348.742 424.97 425.801C424.97 425.801 404.275 487.405 355.117 493.075L347.955 554.827L182.056 568.283C182.056 568.283 177.78 556.793 171.444 538.904C162.91 548.263 149.939 553.402 136.244 551.189C117.308 548.13 103.392 531.817 103.392 512.674V358.566C103.392 304.807 138.374 284.114 138.374 284.114L139.038 284.498Z" fill="#902F80"/>
<path d="M162.428 513.047C162.428 513.047 130.669 427.013 137.389 353.574" stroke="#721162" stroke-width="3.72454" stroke-miterlimit="10" stroke-linecap="round" stroke-linejoin="round"/>
<path d="M357.865 491.274L331.255 347.274" stroke="#721162" stroke-width="3.72454" stroke-miterlimit="10" stroke-linecap="round" stroke-linejoin="round"/>
</g>
<path d="M207.163 170.573L209.151 253.848L269.743 241.279L258.233 126.94L207.163 170.573Z" fill="#FDC3AB"/>
<path d="M207.977 203.331C207.977 203.331 239.589 203.923 242.538 166.713L207.413 182.165L207.977 203.331Z" fill="#FE9575"/>
<path d="M171.074 57.4178C166.219 61.5125 163.127 67.2618 161.885 73.46C158.2 91.8381 150.968 130.064 157.487 149.572C165.964 174.942 186.61 190.981 219.973 184.653C219.973 184.653 258.635 182.894 268.176 126.199C281.705 45.7598 212.658 22.3501 171.074 57.4178Z" fill="#FDC3AB"/>
<path fill-rule="evenodd" clip-rule="evenodd" d="M200.587 135.442C200.6 135.994 201.059 136.431 201.611 136.417C203.282 136.377 204.455 136.732 205.288 137.228C206.122 137.725 206.676 138.401 207.05 139.103C207.427 139.811 207.615 140.535 207.706 141.092C207.752 141.368 207.772 141.596 207.782 141.751C207.786 141.828 207.788 141.887 207.789 141.923C207.789 141.941 207.789 141.954 207.789 141.961L207.789 141.966L207.789 141.964L207.789 141.964C207.789 141.964 207.789 141.965 207.789 141.966C207.782 142.517 208.221 142.97 208.772 142.98C209.324 142.989 209.78 142.549 209.789 141.997L208.808 141.98C209.789 141.997 209.789 141.996 209.789 141.996L209.789 141.995L209.789 141.992L209.789 141.984L209.789 141.96C209.789 141.941 209.789 141.916 209.789 141.885C209.787 141.823 209.785 141.737 209.778 141.63C209.765 141.417 209.738 141.12 209.68 140.767C209.564 140.066 209.324 139.117 208.815 138.162C208.303 137.201 207.514 136.226 206.312 135.51C205.107 134.792 203.55 134.37 201.563 134.418C201.011 134.431 200.574 134.89 200.587 135.442Z" fill="#FE9575"/>
<path fill-rule="evenodd" clip-rule="evenodd" d="M227.469 113.215C227.483 113.767 227.941 114.204 228.493 114.191C233.456 114.071 235.562 114.828 236.413 115.421C236.814 115.7 236.923 115.933 236.954 116.022C236.967 116.059 236.972 116.085 236.973 116.098C236.925 116.615 237.284 117.09 237.804 117.177C238.349 117.268 238.865 116.9 238.956 116.356L237.969 116.191C238.956 116.356 238.956 116.354 238.956 116.353L238.956 116.35L238.957 116.343L238.96 116.33C238.961 116.32 238.962 116.309 238.964 116.298C238.966 116.275 238.969 116.248 238.971 116.218C238.975 116.158 238.976 116.084 238.971 115.998C238.962 115.825 238.928 115.604 238.84 115.355C238.659 114.843 238.275 114.28 237.556 113.78C236.167 112.812 233.523 112.069 228.445 112.191C227.893 112.205 227.456 112.663 227.469 113.215Z" fill="#FE9575"/>
<path fill-rule="evenodd" clip-rule="evenodd" d="M227.469 105.15C227.483 104.598 227.941 104.161 228.493 104.174C233.456 104.294 235.562 103.537 236.413 102.944C236.814 102.665 236.923 102.432 236.954 102.344C236.967 102.306 236.972 102.28 236.973 102.267C236.925 101.75 237.284 101.275 237.804 101.188C238.349 101.097 238.865 101.465 238.956 102.009L237.969 102.174C238.956 102.009 238.956 102.011 238.956 102.012L238.956 102.015L238.957 102.022L238.96 102.035C238.961 102.045 238.962 102.056 238.964 102.067C238.966 102.09 238.969 102.117 238.971 102.147C238.975 102.207 238.976 102.281 238.971 102.367C238.962 102.541 238.928 102.761 238.84 103.01C238.659 103.522 238.275 104.085 237.556 104.585C236.167 105.553 233.523 106.296 228.445 106.174C227.893 106.161 227.456 105.702 227.469 105.15Z" fill="#FE9575"/>
<path d="M166.183 107.942C165.565 110.289 163.156 111.693 160.802 111.074C158.451 110.458 157.047 108.055 157.662 105.708C158.281 103.36 160.692 101.955 163.044 102.574C165.395 103.19 166.802 105.594 166.183 107.942Z" fill="#171717"/>
<path d="M203.408 108.686C202.79 111.035 200.381 112.436 198.03 111.82C195.676 111.204 194.272 108.798 194.89 106.452C195.509 104.103 197.917 102.702 200.269 103.318C202.62 103.936 204.027 106.34 203.408 108.686Z" fill="#171717"/>
<path fill-rule="evenodd" clip-rule="evenodd" d="M180.052 134.945C180.196 134.412 179.879 133.863 179.346 133.72L173.392 132.121L177.309 122.71C177.521 122.2 177.28 121.615 176.77 121.403C176.26 121.19 175.674 121.432 175.462 121.942L171.107 132.407C170.996 132.673 171.005 132.974 171.132 133.232C171.26 133.491 171.492 133.682 171.77 133.757L178.827 135.652C179.361 135.795 179.909 135.478 180.052 134.945Z" fill="#FE9575"/>
<path d="M194.655 85.4593C193.886 87.4585 195.801 89.4667 198.792 89.7931C203.31 90.2853 209.824 91.2911 215.612 93.2992C217.765 94.0465 220.388 93.5561 221.568 92.1168C222.698 90.7383 221.93 89.1475 220.164 88.1291C216.544 86.0408 210.784 82.9358 199.912 82.8555C197.471 82.8377 195.277 83.8489 194.655 85.4593Z" fill="#171717"/>
<path d="M173.063 84.8721C173.258 86.7888 171.69 88.5783 169.675 88.7362C166.635 88.9721 162.198 89.5918 158.088 91.1877C156.559 91.7836 154.912 91.1911 154.361 89.7802C153.834 88.4289 154.583 86.9722 155.903 86.1029C158.602 84.3237 162.866 81.6974 170.015 82.1659C171.62 82.2712 172.904 83.3306 173.063 84.8721Z" fill="#171717"/>
<path d="M180.258 144.355C180.258 144.355 190.738 148.185 199.854 141.749" stroke="white" stroke-width="2.18724" stroke-miterlimit="10" stroke-linecap="round" stroke-linejoin="round"/>
<path d="M292.099 132.731C288.357 145.052 275.313 152.012 262.969 148.277C250.62 144.543 243.644 131.528 247.386 119.207C251.128 106.886 264.172 99.9259 276.519 103.66C288.866 107.392 295.842 120.408 292.099 132.731Z" fill="#FDC3AB"/>
<path d="M208.638 237.414L138.062 284.477C138.062 284.477 215.952 320.34 347.955 275.079L268.234 230.971L266.623 208.421L207.832 214.059L208.638 237.414Z" fill="#902F80"/>
<path d="M152.066 87.8556C152.066 87.8556 190.545 61.0409 211.965 65.3811C211.965 65.3811 241.989 108.534 254.56 120.172C267.127 131.821 261.5 148 261.5 148C261.5 148 268 126 269 111.5C275.5 103.5 288.121 111.5 288.121 111.5C292.933 97.3988 294.159 79.7606 285.567 59.5697C266.071 21.4229 221.3 17.4462 201.17 24.9729C181.041 32.499 152.346 45.1873 152.066 87.8556Z" fill="#16202E"/>
<mask id="lady-2-mask1" mask-type="alpha" maskUnits="userSpaceOnUse" x="141" y="1" width="169" height="152">
<path d="M152.066 87.8557C152.066 87.8557 190.545 61.0409 211.965 65.3812C211.965 65.3812 241.989 108.534 254.56 120.172C267.127 131.821 259.805 148.019 259.805 148.019C259.805 148.019 308.127 112.584 285.567 59.5698C266.071 21.423 221.3 17.4463 201.17 24.973C181.041 32.4991 152.346 45.1873 152.066 87.8557Z" fill="#16202E"/>
</mask>
<g mask="url(#lady-2-mask1)">
<path d="M262.442 99.511C277.609 87.3969 294.819 88.4357 301.528 90.4694C302.097 86.012 300.998 76.3859 292.054 73.5406C283.111 70.6952 256.189 94.9334 243.845 107.408C243.725 109.823 247.275 111.625 262.442 99.511Z" fill="#696969"/>
</g>
<path d="M243.698 32.6031C243.698 50.2567 258.015 64.5662 275.677 64.5662C293.34 64.5662 307.657 50.2567 307.657 32.6031C307.657 14.9496 293.34 0.639229 275.677 0.639229C258.015 0.639229 243.698 14.9496 243.698 32.6031Z" fill="#16202E"/>
<path d="M391.39 468.199C391.39 468.199 379.625 449.638 358.237 468.066C358.237 468.066 350.737 482.756 372.182 512.443C374.71 515.943 380.066 516.538 384.27 513.823C388.091 511.36 389.845 506.889 388.435 503.204L378.829 479.468L391.39 468.199Z" fill="#FDC3AB"/>
<path d="M358.237 468.066C358.237 468.066 345.327 469.613 339.029 480.533C339.029 480.533 328.877 484.017 325.357 492.775C325.357 492.775 321.233 493.566 317.851 499.112C315.45 503.047 315.766 508.11 318.175 512.043C322.123 518.487 329.893 528.986 339.904 531.63C342.242 532.246 344.69 531.533 346.29 529.725C347.574 528.274 348.704 528.091 348.338 525.416C348.338 525.416 353.276 528.099 357.063 525.659C360.847 523.216 361.492 519.914 360.691 516.728C360.691 516.728 365.443 527.598 376.587 516.835C387.728 506.072 358.237 468.066 358.237 468.066Z" fill="#FDC3AB"/>
</svg>
