<svg width="25" height="25" viewBox="0 0 25 25" fill="none" xmlns="http://www.w3.org/2000/svg">
<path fill-rule="evenodd" clip-rule="evenodd" d="M0.167403 7.76936C-0.392338 3.07023 3.80572 0.398177 4.08559 0.306038C4.45875 0.213898 4.9252 -0.338941 6.791 1.96455C8.56352 4.26805 9.86958 6.11084 8.65681 7.12438C7.53733 8.13792 5.76481 9.42787 6.69771 11.1785C7.44404 12.7449 12.2018 17.444 13.7878 18.1811C15.5603 19.1025 16.8663 17.3519 17.8925 16.2462C18.9187 15.0484 20.7845 16.3384 23.1168 18.089C25.449 19.9318 24.8893 20.3925 24.796 20.7611C24.7027 21.0375 21.9973 25.1838 17.2395 24.7231C12.2018 24.1702 0.633854 12.7449 0.167403 7.76936Z" fill="white"/>
</svg>
