<svg width="210" height="210" viewBox="0 0 210 210" fill="none" xmlns="http://www.w3.org/2000/svg">
<circle cx="104.5" cy="105.5" r="97.5" fill="#D4E5EE"/>
<path d="M141.874 171.22H120.309C118.526 171.22 117.063 169.77 117.063 167.975V165.253H141.66C141.672 168.189 141.684 170.174 141.684 170.174C141.684 170.531 141.755 170.887 141.874 171.22Z" fill="#ABB1B8"/>
<path d="M80.3652 165.253V167.975C80.3652 169.77 78.9148 171.22 77.1194 171.22H51.5128C49.7175 171.22 48.2671 169.77 48.2671 167.975V165.253H80.3652Z" fill="#ABB1B8"/>
<path d="M162.429 87.0646V135.925C160.36 135.354 157.923 135.021 155.32 135.021C147.723 135.021 141.577 137.803 141.577 141.238C141.577 141.429 141.636 157.05 141.66 165.253H42.989C38.5784 165.253 35 161.674 35 157.252V45.8011C35 41.3904 38.5784 37.812 42.989 37.812H130.89V46.3003C130.89 65.4879 143.86 82.2503 162.429 87.0646Z" fill="#717479"/>
<path d="M152.466 83.0583V135.164C146.237 135.747 141.577 138.243 141.577 141.238C141.577 141.37 141.601 148.764 141.624 156.039H44.9741V142.011H48.7543V115.941H44.9741V87.124H48.7543V61.0535H44.9741V47.0135H130.901C131.151 62.2541 139.579 75.8778 152.466 83.0583Z" fill="#D1D7E3"/>
<path d="M48.7521 87.1193H42.1826V61.0525H48.7521V87.1193Z" fill="#ABB1B8"/>
<path d="M48.7521 142.008H42.1826V115.941H48.7521V142.008Z" fill="#ABB1B8"/>
<path d="M141.576 101.53C141.576 112.181 132.941 120.816 122.29 120.816C111.639 120.816 103.005 112.181 103.005 101.53C103.005 90.8794 111.639 82.2451 122.29 82.2451C132.941 82.2451 141.576 90.8794 141.576 101.53Z" fill="#30445B"/>
<path d="M139.003 101.53C139.003 110.76 131.521 118.243 122.291 118.243C113.061 118.243 105.578 110.76 105.578 101.53C105.578 92.3 113.061 84.8176 122.291 84.8176C131.521 84.8176 139.003 92.3 139.003 101.53Z" fill="#29364A"/>
<path d="M113.355 102.233H108.529C108.136 102.233 107.827 101.924 107.827 101.532C107.827 101.14 108.136 100.819 108.529 100.819H113.355C113.331 101.057 113.319 101.294 113.319 101.532C113.319 101.77 113.331 102.008 113.355 102.233Z" fill="#ABB1B8"/>
<path d="M113.057 91.2968L116.469 94.709C116.112 95.006 115.768 95.3502 115.471 95.7074L112.059 92.2952C111.928 92.1647 111.856 91.9744 111.856 91.796C111.856 91.6179 111.928 91.4276 112.059 91.2968C112.332 91.0236 112.783 91.0236 113.057 91.2968Z" fill="#ABB1B8"/>
<path d="M116.469 108.344L113.057 111.757C112.784 112.03 112.332 112.03 112.059 111.757C111.785 111.483 111.785 111.043 112.059 110.758L115.471 107.346C115.768 107.715 116.112 108.047 116.469 108.344Z" fill="#ABB1B8"/>
<path d="M122.996 87.766V92.5925C122.77 92.5687 122.532 92.5572 122.294 92.5572C122.056 92.5572 121.819 92.5687 121.581 92.5925V87.766C121.581 87.3734 121.902 87.0646 122.294 87.0646C122.675 87.0646 122.996 87.3734 122.996 87.766Z" fill="#ABB1B8"/>
<path d="M122.294 110.496C122.532 110.496 122.77 110.485 122.996 110.461V115.287C122.996 115.679 122.675 116 122.294 116C121.902 116 121.581 115.679 121.581 115.287V110.461C121.819 110.485 122.056 110.496 122.294 110.496Z" fill="#ABB1B8"/>
<path d="M132.518 110.758C132.791 111.043 132.791 111.483 132.518 111.757C132.245 112.03 131.793 112.03 131.52 111.757L128.107 108.344C128.476 108.047 128.809 107.715 129.106 107.346L132.518 110.758Z" fill="#ABB1B8"/>
<path d="M128.107 94.709L131.52 91.2968C131.793 91.0236 132.245 91.0236 132.518 91.2968C132.791 91.5703 132.791 92.022 132.518 92.2952L129.106 95.7074C128.809 95.3502 128.464 95.006 128.107 94.709Z" fill="#ABB1B8"/>
<path d="M136.763 101.532C136.763 101.924 136.441 102.233 136.049 102.233H131.223C131.246 102.008 131.258 101.77 131.258 101.532C131.258 101.294 131.246 101.057 131.223 100.819H136.049C136.441 100.819 136.763 101.14 136.763 101.532Z" fill="#ABB1B8"/>
<path d="M131.261 101.53C131.261 106.485 127.245 110.501 122.29 110.501C117.336 110.501 113.319 106.485 113.319 101.53C113.319 96.5757 117.336 92.5595 122.29 92.5595C127.245 92.5595 131.261 96.5757 131.261 101.53Z" fill="#D1D7E3"/>
<path d="M129.072 101.53C129.072 105.276 126.036 108.312 122.291 108.312C118.545 108.312 115.509 105.276 115.509 101.53C115.509 97.7849 118.545 94.7484 122.291 94.7484C126.036 94.7484 129.072 97.7849 129.072 101.53Z" fill="#ABB1B8"/>
<path d="M130.89 46.3003C130.89 46.5385 130.89 46.7757 130.902 47.0135H126.717C126.705 46.7757 126.705 46.5385 126.705 46.2887V37.812H130.89V46.3003Z" fill="#3F4247"/>
<path d="M162.441 87.0646V91.392L161.383 91.1188C158.245 90.3099 155.272 89.1926 152.467 87.8017V83.0584C155.546 84.7939 158.886 86.1491 162.429 87.0646H162.441Z" fill="#3F4247"/>
<path d="M152.466 83.0583V87.8016C137.143 80.2174 126.99 64.5839 126.717 47.0135H130.901C131.151 62.2541 139.579 75.8778 152.466 83.0583Z" fill="#ABB1B8"/>
<path d="M162.434 17C162.434 17 154.205 26.9631 130.891 25.5916V46.2958C130.891 65.4842 143.86 82.2466 162.434 87.0635C181.008 82.2466 193.978 65.4842 193.978 46.2958V25.5916C170.663 26.9631 162.434 17 162.434 17Z" fill="white"/>
<path d="M161.704 80.9596C146.616 76.339 136.21 62.38 136.21 46.4778V31.933C149.065 31.6316 157.158 28.0075 161.703 25C166.247 28.0082 174.34 31.6323 187.197 31.9334V46.4778C187.197 62.38 176.792 76.339 161.704 80.9596Z" fill="#902F80"/>
<path d="M68.0777 98.7899H60.2266C60.0746 98.7899 59.9512 98.6665 59.9512 98.5145V90.6634C59.9512 90.511 60.0746 90.3876 60.2266 90.3876H68.0777C68.2301 90.3876 68.3535 90.511 68.3535 90.6634V98.5145C68.3535 98.6665 68.2301 98.7899 68.0777 98.7899Z" fill="#30445B"/>
<path d="M78.6162 98.7899H70.7651C70.6127 98.7899 70.4893 98.6665 70.4893 98.5145V90.6634C70.4893 90.511 70.6127 90.3876 70.7651 90.3876H78.6162C78.7682 90.3876 78.8916 90.511 78.8916 90.6634V98.5145C78.8916 98.6665 78.7682 98.7899 78.6162 98.7899Z" fill="#30445B"/>
<path d="M89.1539 98.7899H81.3028C81.1507 98.7899 81.0273 98.6665 81.0273 98.5145V90.6634C81.0273 90.511 81.1507 90.3876 81.3028 90.3876H89.1539C89.3063 90.3876 89.4297 90.511 89.4297 90.6634V98.5145C89.4297 98.6665 89.3063 98.7899 89.1539 98.7899Z" fill="#30445B"/>
<path d="M68.0777 108.718H60.2266C60.0746 108.718 59.9512 108.595 59.9512 108.443V100.592C59.9512 100.439 60.0746 100.316 60.2266 100.316H68.0777C68.2301 100.316 68.3535 100.439 68.3535 100.592V108.443C68.3535 108.595 68.2301 108.718 68.0777 108.718Z" fill="#30445B"/>
<path d="M78.6162 108.718H70.7651C70.6127 108.718 70.4893 108.595 70.4893 108.443V100.592C70.4893 100.439 70.6127 100.316 70.7651 100.316H78.6162C78.7682 100.316 78.8916 100.439 78.8916 100.592V108.443C78.8916 108.595 78.7682 108.718 78.6162 108.718Z" fill="#30445B"/>
<path d="M89.1539 108.718H81.3028C81.1507 108.718 81.0273 108.595 81.0273 108.443V100.592C81.0273 100.439 81.1507 100.316 81.3028 100.316H89.1539C89.3063 100.316 89.4297 100.439 89.4297 100.592V108.443C89.4297 108.595 89.3063 108.718 89.1539 108.718Z" fill="#30445B"/>
<path d="M68.0777 118.647H60.2266C60.0746 118.647 59.9512 118.523 59.9512 118.371V110.52C59.9512 110.368 60.0746 110.244 60.2266 110.244H68.0777C68.2301 110.244 68.3535 110.368 68.3535 110.52V118.371C68.3535 118.523 68.2301 118.647 68.0777 118.647Z" fill="#30445B"/>
<path d="M78.6162 118.647H70.7651C70.6127 118.647 70.4893 118.523 70.4893 118.371V110.52C70.4893 110.368 70.6127 110.244 70.7651 110.244H78.6162C78.7682 110.244 78.8916 110.368 78.8916 110.52V118.371C78.8916 118.523 78.7682 118.647 78.6162 118.647Z" fill="#30445B"/>
<path d="M89.1539 118.647H81.3028C81.1507 118.647 81.0273 118.523 81.0273 118.371V110.52C81.0273 110.368 81.1507 110.244 81.3028 110.244H89.1539C89.3063 110.244 89.4297 110.368 89.4297 110.52V118.371C89.4297 118.523 89.3063 118.647 89.1539 118.647Z" fill="#30445B"/>
<path d="M95.8667 144.179C95.8574 144.25 95.8574 144.322 95.8574 144.393V144.179H95.8667Z" fill="#F7AD34"/>
<path d="M114.875 139.298V139.512C114.875 139.441 114.875 139.37 114.866 139.298H114.875Z" fill="#F7AD34"/>
<path d="M152.366 145.341C152.357 145.404 152.357 145.467 152.357 145.529V145.341H152.366Z" fill="#F7AD34"/>
<path d="M141.875 171.22H137.583C137.523 170.876 137.499 170.531 137.499 170.174C137.499 170.174 137.488 168.177 137.476 165.253H141.66C141.672 168.189 141.684 170.174 141.684 170.174C141.684 170.531 141.756 170.887 141.875 171.22Z" fill="#91979B"/>
<path d="M162.429 131.598V135.925C160.36 135.354 157.923 135.021 155.32 135.021C147.724 135.021 141.577 137.803 141.577 141.238C141.577 141.429 141.636 157.05 141.66 165.253H137.476C137.44 157.038 137.381 141.441 137.381 141.238C137.381 135.211 144.93 130.825 155.32 130.825C157.888 130.825 160.289 131.098 162.429 131.598Z" fill="#3F4247"/>
<path d="M152.467 130.955V135.164C146.237 135.747 141.577 138.243 141.577 141.238C141.577 141.37 141.601 148.764 141.625 156.039H137.44C137.417 148.764 137.381 141.381 137.381 141.238C137.381 135.782 143.575 131.681 152.467 130.955Z" fill="#ABB1B8"/>
<path d="M93.6302 188.388C85.5575 188.375 79.0122 185.401 79.0122 181.741V186.916C79.0122 190.575 85.5575 193.541 93.6302 193.553C101.703 193.541 108.249 190.575 108.249 186.916V181.741C108.249 185.401 101.703 188.375 93.6302 188.388Z" fill="#F7AD34"/>
<path d="M108.228 181.743C108.228 185.413 101.661 188.388 93.5597 188.388C85.4588 188.388 78.8916 185.413 78.8916 181.743C78.8916 178.073 85.4588 175.098 93.5597 175.098C101.661 175.098 108.228 178.073 108.228 181.743Z" fill="#FBCD40"/>
<path d="M104.809 181.743C104.809 184.558 99.7727 186.839 93.5597 186.839C87.3466 186.839 82.3101 184.558 82.3101 181.743C82.3101 178.929 87.3466 176.647 93.5597 176.647C99.7727 176.647 104.809 178.929 104.809 181.743Z" fill="#F7AD34"/>
<path d="M97.6849 183.046C97.6849 182.015 95.8345 181.177 93.5597 181.177C92.6628 181.177 91.9332 180.846 91.9332 180.44C91.9332 180.034 92.6628 179.703 93.5597 179.703C94.0128 179.703 94.4336 179.786 94.7443 179.935C95.2175 180.163 96.0081 180.174 96.5107 179.96C97.0132 179.745 97.037 179.387 96.5642 179.16C96.0802 178.927 95.4725 178.756 94.809 178.66V178.331C94.809 178.018 94.2496 177.765 93.5597 177.765C92.8698 177.765 92.3104 178.018 92.3104 178.331V178.659C90.6445 178.9 89.4346 179.607 89.4346 180.44C89.4346 181.471 91.2849 182.309 93.5597 182.309C94.4566 182.309 95.1863 182.64 95.1863 183.046C95.1863 183.452 94.4566 183.783 93.5597 183.783C93.1066 183.783 92.6859 183.7 92.3747 183.551C91.9019 183.323 91.1113 183.312 90.6088 183.526C90.1062 183.741 90.0825 184.099 90.5553 184.326C91.0392 184.559 91.6469 184.73 92.3104 184.826V185.155C92.3104 185.468 92.8698 185.721 93.5597 185.721C94.2496 185.721 94.809 185.468 94.809 185.155V184.827C96.475 184.587 97.6849 183.879 97.6849 183.046Z" fill="#FBCD40"/>
<path d="M118.041 186.665C111.369 182.12 107.625 175.982 109.68 172.955L106.774 177.235C104.719 180.263 108.467 186.393 115.139 190.938C121.825 195.463 128.906 196.686 130.962 193.658L133.868 189.378C131.812 192.405 124.726 191.189 118.041 186.665Z" fill="#F7AD34"/>
<path d="M133.85 189.367C131.789 192.403 124.685 191.176 117.983 186.625C111.281 182.074 107.519 175.924 109.58 172.888C111.642 169.852 118.746 171.08 125.448 175.63C132.15 180.181 135.912 186.331 133.85 189.367Z" fill="#FBCD40"/>
<path d="M131.022 187.447C129.441 189.776 123.993 188.834 118.853 185.344C113.713 181.854 110.828 177.137 112.408 174.809C113.99 172.48 119.438 173.422 124.578 176.912C129.718 180.402 132.603 185.118 131.022 187.447Z" fill="#F7AD34"/>
<path d="M124.396 184.523C124.975 183.67 123.915 181.937 122.033 180.659C121.291 180.156 120.873 179.472 121.101 179.136C121.329 178.8 122.119 178.937 122.861 179.44C123.235 179.695 123.537 179.999 123.71 180.298C123.974 180.752 124.622 181.205 125.158 181.31C125.694 181.415 125.915 181.132 125.652 180.678C125.382 180.213 124.975 179.731 124.481 179.279L124.665 179.006C124.841 178.748 124.521 178.224 123.95 177.836C123.379 177.449 122.774 177.344 122.598 177.603L122.414 177.875C120.9 177.138 119.502 177.043 119.034 177.733C118.455 178.585 119.515 180.318 121.397 181.596C122.139 182.1 122.557 182.783 122.329 183.119C122.101 183.455 121.311 183.319 120.569 182.815C120.194 182.56 119.892 182.256 119.719 181.957C119.456 181.504 118.808 181.05 118.272 180.945C117.736 180.84 117.515 181.123 117.778 181.577C118.047 182.042 118.454 182.525 118.949 182.977L118.764 183.249C118.589 183.507 118.909 184.031 119.48 184.419C120.051 184.807 120.656 184.911 120.832 184.653L121.016 184.381C122.529 185.118 123.928 185.212 124.396 184.523Z" fill="#FBCD40"/>
<path d="M167.808 46.1654C167.808 43.1977 165.403 40.7924 162.435 40.7924C159.468 40.7924 157.062 43.1977 157.062 46.1654C157.062 48.0332 158.016 49.6757 159.463 50.6384V58.3476C159.463 59.989 160.793 61.3201 162.435 61.3201C164.076 61.3201 165.407 59.989 165.407 58.3476V50.6384C166.854 49.6757 167.808 48.0332 167.808 46.1654Z" fill="#D1D7E3"/>
<path d="M169.064 141.053V141.241C169.064 141.179 169.064 141.116 169.057 141.053H169.064Z" fill="#F7AD34"/>
<path d="M155.385 147.47C147.819 147.458 141.686 144.671 141.686 141.241V146.09C141.686 149.519 147.819 152.299 155.385 152.311C162.95 152.299 169.083 149.519 169.083 146.09V141.241C169.083 144.671 162.95 147.458 155.385 147.47Z" fill="#F7AD34"/>
<path d="M155.385 152.287C147.819 152.276 141.686 149.488 141.686 146.059V150.908C141.686 154.337 147.819 157.117 155.385 157.128C162.95 157.117 169.083 154.337 169.083 150.908V146.059C169.083 149.488 162.95 152.276 155.385 152.287Z" fill="#FBCD40"/>
<path d="M169.086 150.88V155.207C163.772 155.207 159.064 157.858 156.235 161.9L156.223 161.924C155.95 161.948 155.664 161.948 155.379 161.948C148.258 161.936 142.409 159.475 141.755 156.325C141.707 156.135 141.684 155.933 141.684 155.73V150.88C141.684 154.304 147.818 157.098 155.379 157.109C162.952 157.098 169.086 154.304 169.086 150.88Z" fill="#F7AD34"/>
<path d="M156.235 161.9L156.223 161.924C155.212 163.363 154.44 164.979 153.964 166.727C147.069 166.394 141.684 163.754 141.684 160.545V155.73C141.684 155.933 141.707 156.135 141.755 156.324C142.457 159.452 148.294 161.912 155.379 161.924C155.664 161.924 155.95 161.924 156.235 161.9Z" fill="#FBCD40"/>
<path d="M153.394 170.9C153.394 171.102 153.394 171.304 153.406 171.506C146.772 171.066 141.684 168.487 141.684 165.359V160.51C141.684 163.731 147.069 166.37 153.964 166.703C153.596 168.034 153.394 169.449 153.394 170.9Z" fill="#F7AD34"/>
<path d="M154.381 176.38C147.283 176.142 141.684 173.455 141.684 170.174V165.324C141.684 168.45 146.772 171.042 153.406 171.482C153.465 173.206 153.81 174.846 154.381 176.38Z" fill="#FBCD40"/>
<path d="M169.064 141.243C169.064 144.682 162.91 147.47 155.318 147.47C147.726 147.47 141.572 144.682 141.572 141.243C141.572 137.804 147.726 135.016 155.318 135.016C162.91 135.016 169.064 137.804 169.064 141.243Z" fill="#FBCD40"/>
<path d="M165.86 141.243C165.86 143.88 161.141 146.019 155.318 146.019C149.496 146.019 144.776 143.88 144.776 141.243C144.776 138.605 149.496 136.467 155.318 136.467C161.141 136.467 165.86 138.605 165.86 141.243Z" fill="#F7AD34"/>
<path d="M159.184 142.464C159.184 141.498 157.45 140.712 155.318 140.712C154.477 140.712 153.794 140.402 153.794 140.022C153.794 139.641 154.477 139.332 155.318 139.332C155.743 139.332 156.137 139.409 156.428 139.549C156.872 139.762 157.612 139.772 158.083 139.572C158.554 139.371 158.577 139.035 158.133 138.822C157.68 138.604 157.111 138.443 156.489 138.354V138.045C156.489 137.752 155.965 137.515 155.318 137.515C154.671 137.515 154.147 137.752 154.147 138.045V138.353C152.586 138.578 151.452 139.241 151.452 140.022C151.452 140.988 153.186 141.773 155.318 141.773C156.158 141.773 156.842 142.083 156.842 142.464C156.842 142.845 156.158 143.154 155.318 143.154C154.893 143.154 154.499 143.077 154.208 142.937C153.765 142.723 153.023 142.713 152.552 142.914C152.081 143.115 152.059 143.45 152.502 143.664C152.956 143.882 153.526 144.042 154.147 144.132V144.441C154.147 144.734 154.671 144.971 155.318 144.971C155.965 144.971 156.489 144.734 156.489 144.441V144.133C158.05 143.907 159.184 143.245 159.184 142.464Z" fill="#FBCD40"/>
<path d="M184.77 170.899C184.77 179.563 177.746 186.586 169.083 186.586C160.42 186.586 153.396 179.563 153.396 170.899C153.396 162.236 160.42 155.213 169.083 155.213C177.746 155.213 184.77 162.236 184.77 170.899Z" fill="#FBCD40"/>
<path d="M181.114 170.899C181.114 177.543 175.727 182.93 169.083 182.93C162.439 182.93 157.053 177.543 157.053 170.899C157.053 164.255 162.439 158.869 169.083 158.869C175.727 158.869 181.114 164.255 181.114 170.899Z" fill="#F7AD34"/>
<path d="M173.494 173.975C173.494 171.542 171.515 169.563 169.083 169.563C168.124 169.563 167.343 168.783 167.343 167.824C167.343 166.865 168.124 166.085 169.083 166.085C169.567 166.085 170.017 166.279 170.35 166.632C170.856 167.17 171.701 167.195 172.238 166.689C172.776 166.184 172.801 165.338 172.296 164.801C171.778 164.251 171.128 163.847 170.419 163.621V162.844C170.419 162.106 169.82 161.507 169.083 161.507C168.345 161.507 167.746 162.106 167.746 162.844V163.619C165.965 164.187 164.671 165.857 164.671 167.824C164.671 170.256 166.65 172.236 169.083 172.236C170.042 172.236 170.822 173.016 170.822 173.975C170.822 174.934 170.042 175.714 169.083 175.714C168.598 175.714 168.148 175.52 167.815 175.166C167.31 174.629 166.464 174.604 165.927 175.11C165.389 175.615 165.364 176.461 165.87 176.998C166.387 177.548 167.037 177.952 167.746 178.178V178.955C167.746 179.693 168.345 180.291 169.083 180.291C169.82 180.291 170.419 179.693 170.419 178.955V178.179C172.2 177.612 173.494 175.942 173.494 173.975Z" fill="#FBCD40"/>
</svg>
