<svg width="210" height="210" viewBox="0 0 210 210" fill="none" xmlns="http://www.w3.org/2000/svg">
<circle cx="104.5" cy="104.5" r="97.5" fill="#D4E5EE"/>
<g clip-path="url(#clip0)">
<path d="M80.9502 172.371L193.832 162.772V64.3784L80.9502 76.1825V172.371Z" fill="#FFA412"/>
<path d="M113.667 137.425L14 142.434L17.7923 37.1994L113.667 45.5221V137.425Z" fill="#902F80"/>
<path d="M80.9502 172.37L114.401 137.243L80.9502 138.922V172.37Z" fill="#464646"/>
<path d="M68.4352 81.4462C69.6927 77.5997 70.9501 74.2859 72.2076 71.5048C70.4933 72.5725 68.3868 74.8186 65.8904 78.2454C63.394 81.6768 60.7545 85.8669 57.972 90.8181C59.4971 91.1225 61.0983 91.503 62.7756 91.9596L65.3482 92.5891C66.1488 89.0101 67.1778 85.295 68.4352 81.4462ZM44.5947 111.045C44.5947 109.559 45.3861 107.237 46.9688 104.073C48.5493 100.914 50.6558 97.275 53.286 93.161C50.9604 92.9696 48.9023 92.8751 47.1119 92.8751H45.1092C45.8337 90.8942 47.8156 89.9026 51.0549 89.9026C52.084 89.9026 53.4568 90.0363 55.171 90.3038C58.1058 85.8854 61.0891 81.7229 64.1184 77.8188C67.1478 73.9146 69.5404 71.1427 71.2939 69.5054C72.3991 68.44 73.3127 67.905 74.0372 67.905C74.8378 67.905 75.8483 68.5138 77.0666 69.7337C76.3052 70.3425 75.2 72.81 73.7511 77.1339C72.3022 81.4554 71.0078 86.1806 69.8634 91.3046C68.7214 96.4264 68.1491 100.552 68.1491 103.674C68.1491 105.199 68.3107 106.34 68.636 107.104C68.959 107.865 69.5012 108.245 70.2649 108.245C72.3598 108.245 74.8563 105.427 77.7541 99.7887L78.3263 100.361C77.1427 103.483 75.6661 105.999 73.8941 107.901C72.1222 109.806 70.3018 110.759 68.4352 110.759C66.9102 110.759 65.7842 110.083 65.0621 108.732C64.3376 107.378 63.9754 105.503 63.9754 103.102C63.9754 100.665 64.2984 97.8285 64.9467 94.5885C62.508 94.208 59.6886 93.8275 56.4861 93.447C52.7507 100.303 49.4353 107.159 46.5397 114.017C45.2431 113.293 44.5947 112.301 44.5947 111.045Z" fill="white"/>
<rect x="118" y="87.9163" width="67" height="2" rx="1" transform="rotate(-5.06598 118 87.9163)" fill="white"/>
<rect x="118" y="111.725" width="67" height="2" rx="1" transform="rotate(-5.06598 118 111.725)" fill="white"/>
<rect x="118" y="135.535" width="67" height="2" rx="1" transform="rotate(-5.06598 118 135.535)" fill="white"/>
<rect x="115.979" y="97.4827" width="67" height="2" rx="1" transform="rotate(-1.07 115.979 97.4827)" fill="white"/>
<rect x="115.979" y="121.292" width="67" height="2" rx="1" transform="rotate(-1.07 115.979 121.292)" fill="white"/>
<rect x="115.979" y="145.101" width="67" height="2" rx="1" transform="rotate(-1.07 115.979 145.101)" fill="white"/>
</g>
<defs>
<clipPath id="clip0">
<rect width="180" height="137" fill="white" transform="translate(14 36)"/>
</clipPath>
</defs>
</svg>
